%TF.GenerationSoftware,KiCad,Pcbnew,(5.1.6-0-10_14)*%
%TF.CreationDate,2021-02-25T14:42:38-08:00*%
%TF.ProjectId,TIADevBoard,54494144-6576-4426-9f61-72642e6b6963,rev?*%
%TF.SameCoordinates,Original*%
%TF.FileFunction,Copper,L1,Top*%
%TF.FilePolarity,Positive*%
%FSLAX46Y46*%
G04 Gerber Fmt 4.6, Leading zero omitted, Abs format (unit mm)*
G04 Created by KiCad (PCBNEW (5.1.6-0-10_14)) date 2021-02-25 14:42:38*
%MOMM*%
%LPD*%
G01*
G04 APERTURE LIST*
%TA.AperFunction,SMDPad,CuDef*%
%ADD10R,0.650000X1.560000*%
%TD*%
%TA.AperFunction,SMDPad,CuDef*%
%ADD11R,1.600000X5.080000*%
%TD*%
%TA.AperFunction,SMDPad,CuDef*%
%ADD12R,1.560000X0.650000*%
%TD*%
%TA.AperFunction,ComponentPad*%
%ADD13C,2.000000*%
%TD*%
%TA.AperFunction,ComponentPad*%
%ADD14R,3.500000X3.500000*%
%TD*%
%TA.AperFunction,SMDPad,CuDef*%
%ADD15R,1.000000X1.000000*%
%TD*%
%TA.AperFunction,ComponentPad*%
%ADD16O,1.700000X1.700000*%
%TD*%
%TA.AperFunction,ComponentPad*%
%ADD17R,1.700000X1.700000*%
%TD*%
%TA.AperFunction,ComponentPad*%
%ADD18C,4.000000*%
%TD*%
%TA.AperFunction,ViaPad*%
%ADD19C,0.800000*%
%TD*%
%TA.AperFunction,Conductor*%
%ADD20C,0.250000*%
%TD*%
%TA.AperFunction,Conductor*%
%ADD21C,1.000000*%
%TD*%
%TA.AperFunction,Conductor*%
%ADD22C,2.500000*%
%TD*%
G04 APERTURE END LIST*
D10*
%TO.P,U2,5*%
%TO.N,VDD*%
X94361000Y-77216000D03*
%TO.P,U2,4*%
X96261000Y-77216000D03*
%TO.P,U2,3*%
%TO.N,Net-(CFF1-Pad2)*%
X96261000Y-79916000D03*
%TO.P,U2,2*%
%TO.N,GND*%
X95311000Y-79916000D03*
%TO.P,U2,1*%
%TO.N,Net-(C3-Pad2)*%
X94361000Y-79916000D03*
%TD*%
%TO.P,U1,5*%
%TO.N,-5V*%
X108265000Y-97188000D03*
%TO.P,U1,4*%
%TO.N,/VFB*%
X106365000Y-97188000D03*
%TO.P,U1,3*%
%TO.N,-9V*%
X106365000Y-94488000D03*
%TO.P,U1,2*%
X107315000Y-94488000D03*
%TO.P,U1,1*%
%TO.N,GND*%
X108265000Y-94488000D03*
%TD*%
%TO.P,R4,2*%
%TO.N,/VIN-*%
%TA.AperFunction,SMDPad,CuDef*%
G36*
G01*
X96823000Y-104197999D02*
X96823000Y-105098001D01*
G75*
G02*
X96573001Y-105348000I-249999J0D01*
G01*
X95922999Y-105348000D01*
G75*
G02*
X95673000Y-105098001I0J249999D01*
G01*
X95673000Y-104197999D01*
G75*
G02*
X95922999Y-103948000I249999J0D01*
G01*
X96573001Y-103948000D01*
G75*
G02*
X96823000Y-104197999I0J-249999D01*
G01*
G37*
%TD.AperFunction*%
%TO.P,R4,1*%
%TO.N,/VOP-*%
%TA.AperFunction,SMDPad,CuDef*%
G36*
G01*
X98873000Y-104197999D02*
X98873000Y-105098001D01*
G75*
G02*
X98623001Y-105348000I-249999J0D01*
G01*
X97972999Y-105348000D01*
G75*
G02*
X97723000Y-105098001I0J249999D01*
G01*
X97723000Y-104197999D01*
G75*
G02*
X97972999Y-103948000I249999J0D01*
G01*
X98623001Y-103948000D01*
G75*
G02*
X98873000Y-104197999I0J-249999D01*
G01*
G37*
%TD.AperFunction*%
%TD*%
%TO.P,R5,2*%
%TO.N,/VOP-*%
%TA.AperFunction,SMDPad,CuDef*%
G36*
G01*
X99626000Y-97974999D02*
X99626000Y-98875001D01*
G75*
G02*
X99376001Y-99125000I-249999J0D01*
G01*
X98725999Y-99125000D01*
G75*
G02*
X98476000Y-98875001I0J249999D01*
G01*
X98476000Y-97974999D01*
G75*
G02*
X98725999Y-97725000I249999J0D01*
G01*
X99376001Y-97725000D01*
G75*
G02*
X99626000Y-97974999I0J-249999D01*
G01*
G37*
%TD.AperFunction*%
%TO.P,R5,1*%
%TO.N,/VOUT*%
%TA.AperFunction,SMDPad,CuDef*%
G36*
G01*
X101676000Y-97974999D02*
X101676000Y-98875001D01*
G75*
G02*
X101426001Y-99125000I-249999J0D01*
G01*
X100775999Y-99125000D01*
G75*
G02*
X100526000Y-98875001I0J249999D01*
G01*
X100526000Y-97974999D01*
G75*
G02*
X100775999Y-97725000I249999J0D01*
G01*
X101426001Y-97725000D01*
G75*
G02*
X101676000Y-97974999I0J-249999D01*
G01*
G37*
%TD.AperFunction*%
%TD*%
D11*
%TO.P,J3,2*%
%TO.N,GND*%
X110188000Y-108966000D03*
X104648000Y-108966000D03*
%TO.P,J3,1*%
%TO.N,/VOUT*%
X107418000Y-108966000D03*
%TD*%
%TO.P,C13,2*%
%TO.N,GND*%
%TA.AperFunction,SMDPad,CuDef*%
G36*
G01*
X93423000Y-100145001D02*
X93423000Y-99244999D01*
G75*
G02*
X93672999Y-98995000I249999J0D01*
G01*
X94323001Y-98995000D01*
G75*
G02*
X94573000Y-99244999I0J-249999D01*
G01*
X94573000Y-100145001D01*
G75*
G02*
X94323001Y-100395000I-249999J0D01*
G01*
X93672999Y-100395000D01*
G75*
G02*
X93423000Y-100145001I0J249999D01*
G01*
G37*
%TD.AperFunction*%
%TO.P,C13,1*%
%TO.N,+5V*%
%TA.AperFunction,SMDPad,CuDef*%
G36*
G01*
X91373000Y-100145001D02*
X91373000Y-99244999D01*
G75*
G02*
X91622999Y-98995000I249999J0D01*
G01*
X92273001Y-98995000D01*
G75*
G02*
X92523000Y-99244999I0J-249999D01*
G01*
X92523000Y-100145001D01*
G75*
G02*
X92273001Y-100395000I-249999J0D01*
G01*
X91622999Y-100395000D01*
G75*
G02*
X91373000Y-100145001I0J249999D01*
G01*
G37*
%TD.AperFunction*%
%TD*%
%TO.P,C11,2*%
%TO.N,+5V*%
%TA.AperFunction,SMDPad,CuDef*%
G36*
G01*
X96069999Y-102041000D02*
X96970001Y-102041000D01*
G75*
G02*
X97220000Y-102290999I0J-249999D01*
G01*
X97220000Y-102941001D01*
G75*
G02*
X96970001Y-103191000I-249999J0D01*
G01*
X96069999Y-103191000D01*
G75*
G02*
X95820000Y-102941001I0J249999D01*
G01*
X95820000Y-102290999D01*
G75*
G02*
X96069999Y-102041000I249999J0D01*
G01*
G37*
%TD.AperFunction*%
%TO.P,C11,1*%
%TO.N,GND*%
%TA.AperFunction,SMDPad,CuDef*%
G36*
G01*
X96069999Y-99991000D02*
X96970001Y-99991000D01*
G75*
G02*
X97220000Y-100240999I0J-249999D01*
G01*
X97220000Y-100891001D01*
G75*
G02*
X96970001Y-101141000I-249999J0D01*
G01*
X96069999Y-101141000D01*
G75*
G02*
X95820000Y-100891001I0J249999D01*
G01*
X95820000Y-100240999D01*
G75*
G02*
X96069999Y-99991000I249999J0D01*
G01*
G37*
%TD.AperFunction*%
%TD*%
%TO.P,C9,2*%
%TO.N,/VOP-*%
%TA.AperFunction,SMDPad,CuDef*%
G36*
G01*
X99635000Y-95815999D02*
X99635000Y-96716001D01*
G75*
G02*
X99385001Y-96966000I-249999J0D01*
G01*
X98734999Y-96966000D01*
G75*
G02*
X98485000Y-96716001I0J249999D01*
G01*
X98485000Y-95815999D01*
G75*
G02*
X98734999Y-95566000I249999J0D01*
G01*
X99385001Y-95566000D01*
G75*
G02*
X99635000Y-95815999I0J-249999D01*
G01*
G37*
%TD.AperFunction*%
%TO.P,C9,1*%
%TO.N,/VOUT*%
%TA.AperFunction,SMDPad,CuDef*%
G36*
G01*
X101685000Y-95815999D02*
X101685000Y-96716001D01*
G75*
G02*
X101435001Y-96966000I-249999J0D01*
G01*
X100784999Y-96966000D01*
G75*
G02*
X100535000Y-96716001I0J249999D01*
G01*
X100535000Y-95815999D01*
G75*
G02*
X100784999Y-95566000I249999J0D01*
G01*
X101435001Y-95566000D01*
G75*
G02*
X101685000Y-95815999I0J-249999D01*
G01*
G37*
%TD.AperFunction*%
%TD*%
D12*
%TO.P,U4,5*%
%TO.N,+5V*%
X98726000Y-102550000D03*
%TO.P,U4,4*%
%TO.N,/VOP-*%
X98726000Y-100650000D03*
%TO.P,U4,3*%
%TO.N,GND*%
X101426000Y-100650000D03*
%TO.P,U4,2*%
%TO.N,-5V*%
X101426000Y-101600000D03*
%TO.P,U4,1*%
%TO.N,/VOUT*%
X101426000Y-102550000D03*
%TD*%
D13*
%TO.P,TP6,1*%
%TO.N,Net-(CFF1-Pad2)*%
X89535000Y-75565000D03*
%TD*%
%TO.P,TP5,1*%
%TO.N,Net-(C3-Pad2)*%
X95123000Y-85217000D03*
%TD*%
%TO.P,TP4,1*%
%TO.N,/-9V_UF*%
X101727000Y-85217000D03*
%TD*%
%TO.P,TP3,1*%
%TO.N,-5V*%
X117729000Y-100203000D03*
%TD*%
%TO.P,TP2,1*%
%TO.N,-9V*%
X103251000Y-91059000D03*
%TD*%
%TO.P,RFB2,2*%
%TO.N,GND*%
%TA.AperFunction,SMDPad,CuDef*%
G36*
G01*
X107629000Y-77158001D02*
X107629000Y-76257999D01*
G75*
G02*
X107878999Y-76008000I249999J0D01*
G01*
X108529001Y-76008000D01*
G75*
G02*
X108779000Y-76257999I0J-249999D01*
G01*
X108779000Y-77158001D01*
G75*
G02*
X108529001Y-77408000I-249999J0D01*
G01*
X107878999Y-77408000D01*
G75*
G02*
X107629000Y-77158001I0J249999D01*
G01*
G37*
%TD.AperFunction*%
%TO.P,RFB2,1*%
%TO.N,Net-(CFF1-Pad2)*%
%TA.AperFunction,SMDPad,CuDef*%
G36*
G01*
X105579000Y-77158001D02*
X105579000Y-76257999D01*
G75*
G02*
X105828999Y-76008000I249999J0D01*
G01*
X106479001Y-76008000D01*
G75*
G02*
X106729000Y-76257999I0J-249999D01*
G01*
X106729000Y-77158001D01*
G75*
G02*
X106479001Y-77408000I-249999J0D01*
G01*
X105828999Y-77408000D01*
G75*
G02*
X105579000Y-77158001I0J249999D01*
G01*
G37*
%TD.AperFunction*%
%TD*%
%TO.P,RFB1,2*%
%TO.N,Net-(CFF1-Pad2)*%
%TA.AperFunction,SMDPad,CuDef*%
G36*
G01*
X106747000Y-80321999D02*
X106747000Y-81222001D01*
G75*
G02*
X106497001Y-81472000I-249999J0D01*
G01*
X105846999Y-81472000D01*
G75*
G02*
X105597000Y-81222001I0J249999D01*
G01*
X105597000Y-80321999D01*
G75*
G02*
X105846999Y-80072000I249999J0D01*
G01*
X106497001Y-80072000D01*
G75*
G02*
X106747000Y-80321999I0J-249999D01*
G01*
G37*
%TD.AperFunction*%
%TO.P,RFB1,1*%
%TO.N,/-9V_UF*%
%TA.AperFunction,SMDPad,CuDef*%
G36*
G01*
X108797000Y-80321999D02*
X108797000Y-81222001D01*
G75*
G02*
X108547001Y-81472000I-249999J0D01*
G01*
X107896999Y-81472000D01*
G75*
G02*
X107647000Y-81222001I0J249999D01*
G01*
X107647000Y-80321999D01*
G75*
G02*
X107896999Y-80072000I249999J0D01*
G01*
X108547001Y-80072000D01*
G75*
G02*
X108797000Y-80321999I0J-249999D01*
G01*
G37*
%TD.AperFunction*%
%TD*%
%TO.P,R2,2*%
%TO.N,GND*%
%TA.AperFunction,SMDPad,CuDef*%
G36*
G01*
X115775001Y-95308000D02*
X114874999Y-95308000D01*
G75*
G02*
X114625000Y-95058001I0J249999D01*
G01*
X114625000Y-94407999D01*
G75*
G02*
X114874999Y-94158000I249999J0D01*
G01*
X115775001Y-94158000D01*
G75*
G02*
X116025000Y-94407999I0J-249999D01*
G01*
X116025000Y-95058001D01*
G75*
G02*
X115775001Y-95308000I-249999J0D01*
G01*
G37*
%TD.AperFunction*%
%TO.P,R2,1*%
%TO.N,/VFB*%
%TA.AperFunction,SMDPad,CuDef*%
G36*
G01*
X115775001Y-97358000D02*
X114874999Y-97358000D01*
G75*
G02*
X114625000Y-97108001I0J249999D01*
G01*
X114625000Y-96457999D01*
G75*
G02*
X114874999Y-96208000I249999J0D01*
G01*
X115775001Y-96208000D01*
G75*
G02*
X116025000Y-96457999I0J-249999D01*
G01*
X116025000Y-97108001D01*
G75*
G02*
X115775001Y-97358000I-249999J0D01*
G01*
G37*
%TD.AperFunction*%
%TD*%
%TO.P,R1,2*%
%TO.N,/VFB*%
%TA.AperFunction,SMDPad,CuDef*%
G36*
G01*
X113734001Y-97476000D02*
X112833999Y-97476000D01*
G75*
G02*
X112584000Y-97226001I0J249999D01*
G01*
X112584000Y-96575999D01*
G75*
G02*
X112833999Y-96326000I249999J0D01*
G01*
X113734001Y-96326000D01*
G75*
G02*
X113984000Y-96575999I0J-249999D01*
G01*
X113984000Y-97226001D01*
G75*
G02*
X113734001Y-97476000I-249999J0D01*
G01*
G37*
%TD.AperFunction*%
%TO.P,R1,1*%
%TO.N,-5V*%
%TA.AperFunction,SMDPad,CuDef*%
G36*
G01*
X113734001Y-99526000D02*
X112833999Y-99526000D01*
G75*
G02*
X112584000Y-99276001I0J249999D01*
G01*
X112584000Y-98625999D01*
G75*
G02*
X112833999Y-98376000I249999J0D01*
G01*
X113734001Y-98376000D01*
G75*
G02*
X113984000Y-98625999I0J-249999D01*
G01*
X113984000Y-99276001D01*
G75*
G02*
X113734001Y-99526000I-249999J0D01*
G01*
G37*
%TD.AperFunction*%
%TD*%
%TO.P,L3,2*%
%TO.N,-9V*%
%TA.AperFunction,SMDPad,CuDef*%
G36*
G01*
X106738000Y-89456999D02*
X106738000Y-90357001D01*
G75*
G02*
X106488001Y-90607000I-249999J0D01*
G01*
X105837999Y-90607000D01*
G75*
G02*
X105588000Y-90357001I0J249999D01*
G01*
X105588000Y-89456999D01*
G75*
G02*
X105837999Y-89207000I249999J0D01*
G01*
X106488001Y-89207000D01*
G75*
G02*
X106738000Y-89456999I0J-249999D01*
G01*
G37*
%TD.AperFunction*%
%TO.P,L3,1*%
%TO.N,/-9V_UF*%
%TA.AperFunction,SMDPad,CuDef*%
G36*
G01*
X108788000Y-89456999D02*
X108788000Y-90357001D01*
G75*
G02*
X108538001Y-90607000I-249999J0D01*
G01*
X107887999Y-90607000D01*
G75*
G02*
X107638000Y-90357001I0J249999D01*
G01*
X107638000Y-89456999D01*
G75*
G02*
X107887999Y-89207000I249999J0D01*
G01*
X108538001Y-89207000D01*
G75*
G02*
X108788000Y-89456999I0J-249999D01*
G01*
G37*
%TD.AperFunction*%
%TD*%
%TO.P,L2,2*%
%TO.N,/-9V_UF*%
%TA.AperFunction,SMDPad,CuDef*%
G36*
G01*
X101678000Y-82746001D02*
X101678000Y-81845999D01*
G75*
G02*
X101927999Y-81596000I249999J0D01*
G01*
X102578001Y-81596000D01*
G75*
G02*
X102828000Y-81845999I0J-249999D01*
G01*
X102828000Y-82746001D01*
G75*
G02*
X102578001Y-82996000I-249999J0D01*
G01*
X101927999Y-82996000D01*
G75*
G02*
X101678000Y-82746001I0J249999D01*
G01*
G37*
%TD.AperFunction*%
%TO.P,L2,1*%
%TO.N,/DTOP*%
%TA.AperFunction,SMDPad,CuDef*%
G36*
G01*
X99628000Y-82746001D02*
X99628000Y-81845999D01*
G75*
G02*
X99877999Y-81596000I249999J0D01*
G01*
X100528001Y-81596000D01*
G75*
G02*
X100778000Y-81845999I0J-249999D01*
G01*
X100778000Y-82746001D01*
G75*
G02*
X100528001Y-82996000I-249999J0D01*
G01*
X99877999Y-82996000D01*
G75*
G02*
X99628000Y-82746001I0J249999D01*
G01*
G37*
%TD.AperFunction*%
%TD*%
%TO.P,L1,2*%
%TO.N,Net-(C3-Pad2)*%
%TA.AperFunction,SMDPad,CuDef*%
G36*
G01*
X93550000Y-82746001D02*
X93550000Y-81845999D01*
G75*
G02*
X93799999Y-81596000I249999J0D01*
G01*
X94450001Y-81596000D01*
G75*
G02*
X94700000Y-81845999I0J-249999D01*
G01*
X94700000Y-82746001D01*
G75*
G02*
X94450001Y-82996000I-249999J0D01*
G01*
X93799999Y-82996000D01*
G75*
G02*
X93550000Y-82746001I0J249999D01*
G01*
G37*
%TD.AperFunction*%
%TO.P,L1,1*%
%TO.N,VDD*%
%TA.AperFunction,SMDPad,CuDef*%
G36*
G01*
X91500000Y-82746001D02*
X91500000Y-81845999D01*
G75*
G02*
X91749999Y-81596000I249999J0D01*
G01*
X92400001Y-81596000D01*
G75*
G02*
X92650000Y-81845999I0J-249999D01*
G01*
X92650000Y-82746001D01*
G75*
G02*
X92400001Y-82996000I-249999J0D01*
G01*
X91749999Y-82996000D01*
G75*
G02*
X91500000Y-82746001I0J249999D01*
G01*
G37*
%TD.AperFunction*%
%TD*%
%TO.P,J1,3*%
%TO.N,N/C*%
%TA.AperFunction,ComponentPad*%
G36*
G01*
X116991000Y-79796000D02*
X116991000Y-81546000D01*
G75*
G02*
X116116000Y-82421000I-875000J0D01*
G01*
X114366000Y-82421000D01*
G75*
G02*
X113491000Y-81546000I0J875000D01*
G01*
X113491000Y-79796000D01*
G75*
G02*
X114366000Y-78921000I875000J0D01*
G01*
X116116000Y-78921000D01*
G75*
G02*
X116991000Y-79796000I0J-875000D01*
G01*
G37*
%TD.AperFunction*%
%TO.P,J1,2*%
%TO.N,GND*%
%TA.AperFunction,ComponentPad*%
G36*
G01*
X119891000Y-84471000D02*
X119891000Y-86471000D01*
G75*
G02*
X119141000Y-87221000I-750000J0D01*
G01*
X117641000Y-87221000D01*
G75*
G02*
X116891000Y-86471000I0J750000D01*
G01*
X116891000Y-84471000D01*
G75*
G02*
X117641000Y-83721000I750000J0D01*
G01*
X119141000Y-83721000D01*
G75*
G02*
X119891000Y-84471000I0J-750000D01*
G01*
G37*
%TD.AperFunction*%
D14*
%TO.P,J1,1*%
%TO.N,VDD*%
X112141000Y-85471000D03*
%TD*%
D15*
%TO.P,D1,2*%
%TO.N,/DTOP*%
X98425000Y-80137000D03*
%TO.P,D1,1*%
%TO.N,GND*%
X98425000Y-77637000D03*
%TD*%
%TO.P,CFF1,2*%
%TO.N,Net-(CFF1-Pad2)*%
%TA.AperFunction,SMDPad,CuDef*%
G36*
G01*
X106729000Y-78289999D02*
X106729000Y-79190001D01*
G75*
G02*
X106479001Y-79440000I-249999J0D01*
G01*
X105828999Y-79440000D01*
G75*
G02*
X105579000Y-79190001I0J249999D01*
G01*
X105579000Y-78289999D01*
G75*
G02*
X105828999Y-78040000I249999J0D01*
G01*
X106479001Y-78040000D01*
G75*
G02*
X106729000Y-78289999I0J-249999D01*
G01*
G37*
%TD.AperFunction*%
%TO.P,CFF1,1*%
%TO.N,/-9V_UF*%
%TA.AperFunction,SMDPad,CuDef*%
G36*
G01*
X108779000Y-78289999D02*
X108779000Y-79190001D01*
G75*
G02*
X108529001Y-79440000I-249999J0D01*
G01*
X107878999Y-79440000D01*
G75*
G02*
X107629000Y-79190001I0J249999D01*
G01*
X107629000Y-78289999D01*
G75*
G02*
X107878999Y-78040000I249999J0D01*
G01*
X108529001Y-78040000D01*
G75*
G02*
X108779000Y-78289999I0J-249999D01*
G01*
G37*
%TD.AperFunction*%
%TD*%
%TO.P,C8,2*%
%TO.N,-5V*%
%TA.AperFunction,SMDPad,CuDef*%
G36*
G01*
X103308999Y-102050000D02*
X104209001Y-102050000D01*
G75*
G02*
X104459000Y-102299999I0J-249999D01*
G01*
X104459000Y-102950001D01*
G75*
G02*
X104209001Y-103200000I-249999J0D01*
G01*
X103308999Y-103200000D01*
G75*
G02*
X103059000Y-102950001I0J249999D01*
G01*
X103059000Y-102299999D01*
G75*
G02*
X103308999Y-102050000I249999J0D01*
G01*
G37*
%TD.AperFunction*%
%TO.P,C8,1*%
%TO.N,GND*%
%TA.AperFunction,SMDPad,CuDef*%
G36*
G01*
X103308999Y-100000000D02*
X104209001Y-100000000D01*
G75*
G02*
X104459000Y-100249999I0J-249999D01*
G01*
X104459000Y-100900001D01*
G75*
G02*
X104209001Y-101150000I-249999J0D01*
G01*
X103308999Y-101150000D01*
G75*
G02*
X103059000Y-100900001I0J249999D01*
G01*
X103059000Y-100249999D01*
G75*
G02*
X103308999Y-100000000I249999J0D01*
G01*
G37*
%TD.AperFunction*%
%TD*%
%TO.P,C7,2*%
%TO.N,GND*%
%TA.AperFunction,SMDPad,CuDef*%
G36*
G01*
X107647000Y-92525001D02*
X107647000Y-91624999D01*
G75*
G02*
X107896999Y-91375000I249999J0D01*
G01*
X108547001Y-91375000D01*
G75*
G02*
X108797000Y-91624999I0J-249999D01*
G01*
X108797000Y-92525001D01*
G75*
G02*
X108547001Y-92775000I-249999J0D01*
G01*
X107896999Y-92775000D01*
G75*
G02*
X107647000Y-92525001I0J249999D01*
G01*
G37*
%TD.AperFunction*%
%TO.P,C7,1*%
%TO.N,-9V*%
%TA.AperFunction,SMDPad,CuDef*%
G36*
G01*
X105597000Y-92525001D02*
X105597000Y-91624999D01*
G75*
G02*
X105846999Y-91375000I249999J0D01*
G01*
X106497001Y-91375000D01*
G75*
G02*
X106747000Y-91624999I0J-249999D01*
G01*
X106747000Y-92525001D01*
G75*
G02*
X106497001Y-92775000I-249999J0D01*
G01*
X105846999Y-92775000D01*
G75*
G02*
X105597000Y-92525001I0J249999D01*
G01*
G37*
%TD.AperFunction*%
%TD*%
%TO.P,C6,2*%
%TO.N,GND*%
%TA.AperFunction,SMDPad,CuDef*%
G36*
G01*
X106747000Y-82353999D02*
X106747000Y-83254001D01*
G75*
G02*
X106497001Y-83504000I-249999J0D01*
G01*
X105846999Y-83504000D01*
G75*
G02*
X105597000Y-83254001I0J249999D01*
G01*
X105597000Y-82353999D01*
G75*
G02*
X105846999Y-82104000I249999J0D01*
G01*
X106497001Y-82104000D01*
G75*
G02*
X106747000Y-82353999I0J-249999D01*
G01*
G37*
%TD.AperFunction*%
%TO.P,C6,1*%
%TO.N,/-9V_UF*%
%TA.AperFunction,SMDPad,CuDef*%
G36*
G01*
X108797000Y-82353999D02*
X108797000Y-83254001D01*
G75*
G02*
X108547001Y-83504000I-249999J0D01*
G01*
X107896999Y-83504000D01*
G75*
G02*
X107647000Y-83254001I0J249999D01*
G01*
X107647000Y-82353999D01*
G75*
G02*
X107896999Y-82104000I249999J0D01*
G01*
X108547001Y-82104000D01*
G75*
G02*
X108797000Y-82353999I0J-249999D01*
G01*
G37*
%TD.AperFunction*%
%TD*%
%TO.P,C5,2*%
%TO.N,GND*%
%TA.AperFunction,SMDPad,CuDef*%
G36*
G01*
X106856000Y-99117999D02*
X106856000Y-100018001D01*
G75*
G02*
X106606001Y-100268000I-249999J0D01*
G01*
X105955999Y-100268000D01*
G75*
G02*
X105706000Y-100018001I0J249999D01*
G01*
X105706000Y-99117999D01*
G75*
G02*
X105955999Y-98868000I249999J0D01*
G01*
X106606001Y-98868000D01*
G75*
G02*
X106856000Y-99117999I0J-249999D01*
G01*
G37*
%TD.AperFunction*%
%TO.P,C5,1*%
%TO.N,-5V*%
%TA.AperFunction,SMDPad,CuDef*%
G36*
G01*
X108906000Y-99117999D02*
X108906000Y-100018001D01*
G75*
G02*
X108656001Y-100268000I-249999J0D01*
G01*
X108005999Y-100268000D01*
G75*
G02*
X107756000Y-100018001I0J249999D01*
G01*
X107756000Y-99117999D01*
G75*
G02*
X108005999Y-98868000I249999J0D01*
G01*
X108656001Y-98868000D01*
G75*
G02*
X108906000Y-99117999I0J-249999D01*
G01*
G37*
%TD.AperFunction*%
%TD*%
%TO.P,C4,2*%
%TO.N,GND*%
%TA.AperFunction,SMDPad,CuDef*%
G36*
G01*
X111702001Y-95299000D02*
X110801999Y-95299000D01*
G75*
G02*
X110552000Y-95049001I0J249999D01*
G01*
X110552000Y-94398999D01*
G75*
G02*
X110801999Y-94149000I249999J0D01*
G01*
X111702001Y-94149000D01*
G75*
G02*
X111952000Y-94398999I0J-249999D01*
G01*
X111952000Y-95049001D01*
G75*
G02*
X111702001Y-95299000I-249999J0D01*
G01*
G37*
%TD.AperFunction*%
%TO.P,C4,1*%
%TO.N,/VFB*%
%TA.AperFunction,SMDPad,CuDef*%
G36*
G01*
X111702001Y-97349000D02*
X110801999Y-97349000D01*
G75*
G02*
X110552000Y-97099001I0J249999D01*
G01*
X110552000Y-96448999D01*
G75*
G02*
X110801999Y-96199000I249999J0D01*
G01*
X111702001Y-96199000D01*
G75*
G02*
X111952000Y-96448999I0J-249999D01*
G01*
X111952000Y-97099001D01*
G75*
G02*
X111702001Y-97349000I-249999J0D01*
G01*
G37*
%TD.AperFunction*%
%TD*%
%TO.P,C3,2*%
%TO.N,Net-(C3-Pad2)*%
%TA.AperFunction,SMDPad,CuDef*%
G36*
G01*
X96696000Y-81845999D02*
X96696000Y-82746001D01*
G75*
G02*
X96446001Y-82996000I-249999J0D01*
G01*
X95795999Y-82996000D01*
G75*
G02*
X95546000Y-82746001I0J249999D01*
G01*
X95546000Y-81845999D01*
G75*
G02*
X95795999Y-81596000I249999J0D01*
G01*
X96446001Y-81596000D01*
G75*
G02*
X96696000Y-81845999I0J-249999D01*
G01*
G37*
%TD.AperFunction*%
%TO.P,C3,1*%
%TO.N,/DTOP*%
%TA.AperFunction,SMDPad,CuDef*%
G36*
G01*
X98746000Y-81845999D02*
X98746000Y-82746001D01*
G75*
G02*
X98496001Y-82996000I-249999J0D01*
G01*
X97845999Y-82996000D01*
G75*
G02*
X97596000Y-82746001I0J249999D01*
G01*
X97596000Y-81845999D01*
G75*
G02*
X97845999Y-81596000I249999J0D01*
G01*
X98496001Y-81596000D01*
G75*
G02*
X98746000Y-81845999I0J-249999D01*
G01*
G37*
%TD.AperFunction*%
%TD*%
%TO.P,C1,2*%
%TO.N,GND*%
%TA.AperFunction,SMDPad,CuDef*%
G36*
G01*
X95836000Y-75507001D02*
X95836000Y-74606999D01*
G75*
G02*
X96085999Y-74357000I249999J0D01*
G01*
X96736001Y-74357000D01*
G75*
G02*
X96986000Y-74606999I0J-249999D01*
G01*
X96986000Y-75507001D01*
G75*
G02*
X96736001Y-75757000I-249999J0D01*
G01*
X96085999Y-75757000D01*
G75*
G02*
X95836000Y-75507001I0J249999D01*
G01*
G37*
%TD.AperFunction*%
%TO.P,C1,1*%
%TO.N,VDD*%
%TA.AperFunction,SMDPad,CuDef*%
G36*
G01*
X93786000Y-75507001D02*
X93786000Y-74606999D01*
G75*
G02*
X94035999Y-74357000I249999J0D01*
G01*
X94686001Y-74357000D01*
G75*
G02*
X94936000Y-74606999I0J-249999D01*
G01*
X94936000Y-75507001D01*
G75*
G02*
X94686001Y-75757000I-249999J0D01*
G01*
X94035999Y-75757000D01*
G75*
G02*
X93786000Y-75507001I0J249999D01*
G01*
G37*
%TD.AperFunction*%
%TD*%
D16*
%TO.P,J4,6*%
%TO.N,GND*%
X83439000Y-80772000D03*
%TO.P,J4,5*%
X85979000Y-80772000D03*
%TO.P,J4,4*%
X83439000Y-83312000D03*
%TO.P,J4,3*%
X85979000Y-83312000D03*
%TO.P,J4,2*%
X83439000Y-85852000D03*
D17*
%TO.P,J4,1*%
X85979000Y-85852000D03*
%TD*%
D13*
%TO.P,TP1,1*%
%TO.N,+5V*%
X88773000Y-97155000D03*
%TD*%
D10*
%TO.P,U3,5*%
%TO.N,Net-(U3-Pad5)*%
X92964000Y-94535000D03*
%TO.P,U3,6*%
%TO.N,VDD*%
X92014000Y-94535000D03*
%TO.P,U3,4*%
%TO.N,GND*%
X93914000Y-94535000D03*
%TO.P,U3,3*%
%TO.N,Net-(U3-Pad3)*%
X93914000Y-97235000D03*
%TO.P,U3,2*%
%TO.N,VDD*%
X92964000Y-97235000D03*
%TO.P,U3,1*%
%TO.N,+5V*%
X92014000Y-97235000D03*
%TD*%
D11*
%TO.P,J2,2*%
%TO.N,GND*%
X95734000Y-109162000D03*
X90194000Y-109162000D03*
%TO.P,J2,1*%
%TO.N,/VIN-*%
X92964000Y-109162000D03*
%TD*%
D18*
%TO.P,H4,1*%
%TO.N,N/C*%
X83820000Y-109220000D03*
%TD*%
%TO.P,H3,1*%
%TO.N,N/C*%
X117475000Y-109220000D03*
%TD*%
%TO.P,H2,1*%
%TO.N,N/C*%
X117475000Y-75565000D03*
%TD*%
%TO.P,H1,1*%
%TO.N,N/C*%
X83820000Y-75565000D03*
%TD*%
D19*
%TO.N,GND*%
X105156000Y-100584000D03*
X111252000Y-93472000D03*
X115316000Y-93472000D03*
X97536000Y-75057000D03*
X98425000Y-76454000D03*
X95250000Y-99060000D03*
X96520000Y-99314000D03*
X93853000Y-92837000D03*
X102235000Y-99568000D03*
X109220000Y-76708000D03*
X105029000Y-82677000D03*
X95377000Y-78486000D03*
X109347000Y-92075000D03*
X109474000Y-94488000D03*
X105029000Y-99060000D03*
X103251000Y-108966000D03*
X111760000Y-108966000D03*
X88646000Y-109220000D03*
X97409000Y-109093000D03*
%TO.N,/-9V_UF*%
X109474000Y-82296000D03*
%TO.N,VDD*%
X106045000Y-85725000D03*
%TO.N,Net-(CFF1-Pad2)*%
X96520000Y-78596002D03*
%TD*%
D20*
%TO.N,GND*%
X103759000Y-100575000D02*
X105038000Y-100575000D01*
X105047000Y-100584000D02*
X105156000Y-100584000D01*
X105038000Y-100575000D02*
X105047000Y-100584000D01*
X103684000Y-100650000D02*
X103759000Y-100575000D01*
X101426000Y-100650000D02*
X103684000Y-100650000D01*
X111252000Y-94724000D02*
X111252000Y-93472000D01*
X115325000Y-93481000D02*
X115316000Y-93472000D01*
X115325000Y-94733000D02*
X115325000Y-93481000D01*
X96411000Y-75057000D02*
X97536000Y-75057000D01*
X98425000Y-77637000D02*
X98425000Y-76454000D01*
X94615000Y-99695000D02*
X95250000Y-99060000D01*
X93998000Y-99695000D02*
X94615000Y-99695000D01*
X96520000Y-100566000D02*
X96520000Y-99314000D01*
X93914000Y-92898000D02*
X93853000Y-92837000D01*
X93914000Y-94535000D02*
X93914000Y-92898000D01*
X101426000Y-100377000D02*
X102235000Y-99568000D01*
X101426000Y-100650000D02*
X101426000Y-100377000D01*
X108204000Y-76708000D02*
X109220000Y-76708000D01*
X105156000Y-82804000D02*
X105029000Y-82677000D01*
X106172000Y-82804000D02*
X105156000Y-82804000D01*
X95311000Y-78552000D02*
X95377000Y-78486000D01*
X95311000Y-79916000D02*
X95311000Y-78552000D01*
X108222000Y-92075000D02*
X109347000Y-92075000D01*
X108265000Y-94488000D02*
X109474000Y-94488000D01*
X105537000Y-99568000D02*
X105029000Y-99060000D01*
X106281000Y-99568000D02*
X105537000Y-99568000D01*
X104648000Y-108966000D02*
X103251000Y-108966000D01*
X110188000Y-108966000D02*
X111760000Y-108966000D01*
X88704000Y-109162000D02*
X88646000Y-109220000D01*
X90194000Y-109162000D02*
X88704000Y-109162000D01*
X97340000Y-109162000D02*
X97409000Y-109093000D01*
X95734000Y-109162000D02*
X97340000Y-109162000D01*
%TO.N,/-9V_UF*%
X108222000Y-82296000D02*
X109474000Y-82296000D01*
%TO.N,VDD*%
X92014000Y-95565000D02*
X92964000Y-96515000D01*
X92964000Y-96515000D02*
X92964000Y-97235000D01*
X92014000Y-94535000D02*
X92014000Y-95565000D01*
D21*
X94361000Y-75057000D02*
X94361000Y-77216000D01*
X94361000Y-77216000D02*
X96261000Y-77216000D01*
X92075000Y-79502000D02*
X94361000Y-77216000D01*
X92075000Y-82296000D02*
X92075000Y-79502000D01*
X112141000Y-78000998D02*
X112141000Y-85471000D01*
X107796992Y-73656990D02*
X112141000Y-78000998D01*
X95061010Y-73656990D02*
X107796992Y-73656990D01*
X94361000Y-74357000D02*
X95061010Y-73656990D01*
X94361000Y-75057000D02*
X94361000Y-74357000D01*
D22*
X111324001Y-82368001D02*
X111324001Y-76073999D01*
X109115012Y-73865010D02*
X99056990Y-73865010D01*
X111324001Y-76073999D02*
X109115012Y-73865010D01*
X112141000Y-83185000D02*
X111324001Y-82368001D01*
X99056990Y-73865010D02*
X99082012Y-73865010D01*
X112141000Y-85471000D02*
X112141000Y-83185000D01*
D21*
X93324999Y-91736999D02*
X91938999Y-93122999D01*
X100033001Y-91736999D02*
X93324999Y-91736999D01*
X106045000Y-85725000D02*
X100033001Y-91736999D01*
X91938999Y-93194999D02*
X91938999Y-94535000D01*
X91938999Y-93122999D02*
X91938999Y-93194999D01*
D20*
%TO.N,/VOP-*%
X98318002Y-104648000D02*
X97917000Y-104648000D01*
X99831001Y-103135001D02*
X98318002Y-104648000D01*
X99831001Y-101755001D02*
X99831001Y-103135001D01*
X98726000Y-100650000D02*
X99831001Y-101755001D01*
X99051000Y-100325000D02*
X98726000Y-100650000D01*
X99051000Y-98425000D02*
X99051000Y-100325000D01*
X99060000Y-98416000D02*
X99051000Y-98425000D01*
X99060000Y-96266000D02*
X99060000Y-98416000D01*
%TO.N,/VOUT*%
X100396000Y-102550000D02*
X101426000Y-102550000D01*
X100320999Y-102474999D02*
X100396000Y-102550000D01*
X100320999Y-99205001D02*
X100320999Y-102474999D01*
X101101000Y-98425000D02*
X100320999Y-99205001D01*
X101110000Y-98416000D02*
X101101000Y-98425000D01*
X101110000Y-96266000D02*
X101110000Y-98416000D01*
X107418000Y-107872190D02*
X107418000Y-108966000D01*
X102095810Y-102550000D02*
X107418000Y-107872190D01*
X101426000Y-102550000D02*
X102095810Y-102550000D01*
%TO.N,/VIN-*%
X92964000Y-107932000D02*
X96248000Y-104648000D01*
X92964000Y-109162000D02*
X92964000Y-107932000D01*
D21*
%TO.N,-9V*%
X106172000Y-92075000D02*
X106172000Y-94295000D01*
X106172000Y-89916000D02*
X106163000Y-89907000D01*
X106172000Y-92075000D02*
X106172000Y-89916000D01*
D20*
X104403000Y-89907000D02*
X103251000Y-91059000D01*
X106163000Y-89907000D02*
X104403000Y-89907000D01*
X106365000Y-94488000D02*
X106172000Y-94295000D01*
X107315000Y-94488000D02*
X106365000Y-94488000D01*
D21*
%TO.N,Net-(C3-Pad2)*%
X94125000Y-80076999D02*
X94285999Y-79916000D01*
X96121000Y-82296000D02*
X94125000Y-82296000D01*
X94125000Y-80917000D02*
X94125000Y-80076999D01*
X94125000Y-82296000D02*
X94125000Y-80917000D01*
D20*
X94125000Y-84219000D02*
X95123000Y-85217000D01*
X94125000Y-82296000D02*
X94125000Y-84219000D01*
%TO.N,/VFB*%
X111252000Y-96774000D02*
X113284000Y-96774000D01*
X115316000Y-96774000D02*
X115325000Y-96783000D01*
X113284000Y-96774000D02*
X115316000Y-96774000D01*
X110560999Y-96082999D02*
X107470001Y-96082999D01*
X107470001Y-96082999D02*
X106365000Y-97188000D01*
X111252000Y-96774000D02*
X110560999Y-96082999D01*
%TO.N,-5V*%
X102734000Y-101600000D02*
X103759000Y-102625000D01*
X101426000Y-101600000D02*
X102734000Y-101600000D01*
D21*
X105974000Y-102625000D02*
X103759000Y-102625000D01*
X108331000Y-100268000D02*
X105974000Y-102625000D01*
X108331000Y-99568000D02*
X108331000Y-100268000D01*
D20*
X108948000Y-98951000D02*
X108331000Y-99568000D01*
X113284000Y-98951000D02*
X108948000Y-98951000D01*
D21*
X108265000Y-99502000D02*
X108331000Y-99568000D01*
X108265000Y-97188000D02*
X108265000Y-99502000D01*
D20*
X116477000Y-98951000D02*
X117729000Y-100203000D01*
X113284000Y-98951000D02*
X116477000Y-98951000D01*
D21*
%TO.N,/-9V_UF*%
X108222000Y-89898000D02*
X108213000Y-89907000D01*
%TO.N,+5V*%
X91938999Y-98575001D02*
X91938999Y-97235000D01*
X91948000Y-98584002D02*
X91938999Y-98575001D01*
X91948000Y-99695000D02*
X91948000Y-98584002D01*
X94800480Y-102616000D02*
X96520000Y-102616000D01*
X91948000Y-99763520D02*
X94800480Y-102616000D01*
X91948000Y-99695000D02*
X91948000Y-99763520D01*
X98660000Y-102616000D02*
X98726000Y-102550000D01*
X96520000Y-102616000D02*
X98660000Y-102616000D01*
D20*
X88853000Y-97235000D02*
X88773000Y-97155000D01*
X92014000Y-97235000D02*
X88853000Y-97235000D01*
%TO.N,Net-(CFF1-Pad2)*%
X106163000Y-78731000D02*
X106172000Y-78740000D01*
X106163000Y-76581000D02*
X106163000Y-78731000D01*
X106172000Y-78740000D02*
X106172000Y-80772000D01*
X97437000Y-78740000D02*
X96261000Y-79916000D01*
X106172000Y-78740000D02*
X97437000Y-78740000D01*
X96520000Y-79657000D02*
X96261000Y-79916000D01*
X96520000Y-78596002D02*
X96520000Y-79657000D01*
D21*
%TO.N,/DTOP*%
X98171000Y-80391000D02*
X98425000Y-80137000D01*
X98171000Y-82296000D02*
X98171000Y-80391000D01*
X98171000Y-82296000D02*
X100203000Y-82296000D01*
%TO.N,/-9V_UF*%
X108080010Y-84204010D02*
X108222000Y-84346000D01*
X104161010Y-84204010D02*
X108080010Y-84204010D01*
X108222000Y-82804000D02*
X108222000Y-84346000D01*
X108080010Y-88359010D02*
X108222000Y-88501000D01*
X108080010Y-84204010D02*
X108080010Y-88359010D01*
X108222000Y-88501000D02*
X108222000Y-89898000D01*
X108222000Y-87902000D02*
X108222000Y-88501000D01*
D20*
X108204000Y-80754000D02*
X108222000Y-80772000D01*
X108204000Y-78740000D02*
X108204000Y-80754000D01*
X108222000Y-80772000D02*
X108222000Y-82804000D01*
X103069500Y-83874500D02*
X103831500Y-83874500D01*
X101727000Y-85217000D02*
X103069500Y-83874500D01*
D21*
X103831500Y-83874500D02*
X104161010Y-84204010D01*
X102253000Y-82296000D02*
X103831500Y-83874500D01*
%TD*%
M02*
