M48
; DRILL file {KiCad (5.1.6-0-10_14)} date Thursday, February 11, 2021 at 04:18:02 PM
; FORMAT={-:-/ absolute / inch / decimal}
; #@! TF.CreationDate,2021-02-11T16:18:02-08:00
; #@! TF.GenerationSoftware,Kicad,Pcbnew,(5.1.6-0-10_14)
; #@! TF.FileFunction,Plated,1,2,PTH
FMAT,2
INCH
T1C0.0157
T2C0.0394
T3C0.0520
T4C0.1213
%
G90
G05
T1
X3.4059Y-4.1091
X3.41Y-3.895
X3.485Y-4.023
X3.525Y-4.075
X3.525Y-4.175
X3.5744Y-3.9494
X3.655Y-3.955
X3.6566Y-4.02
X3.73Y-3.69
X3.7475Y-4.18
X3.765Y-3.82
X3.78Y-3.99
X3.84Y-3.64
X4.0Y-3.83
X4.0Y-4.17
X4.01Y-3.605
T2
X3.6Y-3.555
X3.275Y-3.435
X3.275Y-3.535
X3.275Y-3.635
X3.375Y-3.435
X3.375Y-3.535
X3.375Y-3.635
T3
X3.58Y-3.23
X3.7769Y-3.23
T4
X3.3Y-4.3
X4.0Y-4.3
X4.0Y-3.25
X3.3Y-3.25
T0
M30
