%TF.GenerationSoftware,KiCad,Pcbnew,(5.1.6-0-10_14)*%
%TF.CreationDate,2021-01-28T16:47:55-08:00*%
%TF.ProjectId,TIADevBoard,54494144-6576-4426-9f61-72642e6b6963,rev?*%
%TF.SameCoordinates,Original*%
%TF.FileFunction,Paste,Top*%
%TF.FilePolarity,Positive*%
%FSLAX46Y46*%
G04 Gerber Fmt 4.6, Leading zero omitted, Abs format (unit mm)*
G04 Created by KiCad (PCBNEW (5.1.6-0-10_14)) date 2021-01-28 16:47:55*
%MOMM*%
%LPD*%
G01*
G04 APERTURE LIST*
%ADD10R,1.600000X5.080000*%
%ADD11R,1.500000X1.000000*%
%ADD12R,0.280000X1.400000*%
%ADD13R,0.300000X1.400000*%
%ADD14R,0.650000X1.560000*%
%ADD15R,1.450000X0.450000*%
%ADD16R,5.080000X1.600000*%
%ADD17R,1.800000X3.500000*%
G04 APERTURE END LIST*
D10*
%TO.C,J5*%
X95099000Y-109225500D03*
X89559000Y-109225500D03*
X92329000Y-109225500D03*
%TD*%
%TO.C,C13*%
G36*
G01*
X100006999Y-91391000D02*
X100907001Y-91391000D01*
G75*
G02*
X101157000Y-91640999I0J-249999D01*
G01*
X101157000Y-92291001D01*
G75*
G02*
X100907001Y-92541000I-249999J0D01*
G01*
X100006999Y-92541000D01*
G75*
G02*
X99757000Y-92291001I0J249999D01*
G01*
X99757000Y-91640999D01*
G75*
G02*
X100006999Y-91391000I249999J0D01*
G01*
G37*
G36*
G01*
X100006999Y-89341000D02*
X100907001Y-89341000D01*
G75*
G02*
X101157000Y-89590999I0J-249999D01*
G01*
X101157000Y-90241001D01*
G75*
G02*
X100907001Y-90491000I-249999J0D01*
G01*
X100006999Y-90491000D01*
G75*
G02*
X99757000Y-90241001I0J249999D01*
G01*
X99757000Y-89590999D01*
G75*
G02*
X100006999Y-89341000I249999J0D01*
G01*
G37*
%TD*%
D11*
%TO.C,U4*%
X93345000Y-88900000D03*
D12*
X92595000Y-87475000D03*
X93095000Y-87475000D03*
X93595000Y-87475000D03*
X94095000Y-87475000D03*
X94095000Y-90325000D03*
X93595000Y-90325000D03*
X93095000Y-90325000D03*
D13*
X92595000Y-90325000D03*
%TD*%
%TO.C,C12*%
G36*
G01*
X90427500Y-104515499D02*
X90427500Y-105415501D01*
G75*
G02*
X90177501Y-105665500I-249999J0D01*
G01*
X89527499Y-105665500D01*
G75*
G02*
X89277500Y-105415501I0J249999D01*
G01*
X89277500Y-104515499D01*
G75*
G02*
X89527499Y-104265500I249999J0D01*
G01*
X90177501Y-104265500D01*
G75*
G02*
X90427500Y-104515499I0J-249999D01*
G01*
G37*
G36*
G01*
X92477500Y-104515499D02*
X92477500Y-105415501D01*
G75*
G02*
X92227501Y-105665500I-249999J0D01*
G01*
X91577499Y-105665500D01*
G75*
G02*
X91327500Y-105415501I0J249999D01*
G01*
X91327500Y-104515499D01*
G75*
G02*
X91577499Y-104265500I249999J0D01*
G01*
X92227501Y-104265500D01*
G75*
G02*
X92477500Y-104515499I0J-249999D01*
G01*
G37*
%TD*%
%TO.C,C11*%
G36*
G01*
X96069999Y-98630000D02*
X96970001Y-98630000D01*
G75*
G02*
X97220000Y-98879999I0J-249999D01*
G01*
X97220000Y-99530001D01*
G75*
G02*
X96970001Y-99780000I-249999J0D01*
G01*
X96069999Y-99780000D01*
G75*
G02*
X95820000Y-99530001I0J249999D01*
G01*
X95820000Y-98879999D01*
G75*
G02*
X96069999Y-98630000I249999J0D01*
G01*
G37*
G36*
G01*
X96069999Y-96580000D02*
X96970001Y-96580000D01*
G75*
G02*
X97220000Y-96829999I0J-249999D01*
G01*
X97220000Y-97480001D01*
G75*
G02*
X96970001Y-97730000I-249999J0D01*
G01*
X96069999Y-97730000D01*
G75*
G02*
X95820000Y-97480001I0J249999D01*
G01*
X95820000Y-96829999D01*
G75*
G02*
X96069999Y-96580000I249999J0D01*
G01*
G37*
%TD*%
D14*
%TO.C,U3*%
X103693000Y-86962000D03*
X102743000Y-86962000D03*
X104643000Y-86962000D03*
X104643000Y-89662000D03*
X103693000Y-89662000D03*
X102743000Y-89662000D03*
%TD*%
D15*
%TO.C,U2*%
X96475000Y-100935000D03*
X96475000Y-101585000D03*
X96475000Y-102235000D03*
X96475000Y-102885000D03*
X92075000Y-102885000D03*
X92075000Y-102235000D03*
X92075000Y-101585000D03*
X92075000Y-100935000D03*
%TD*%
%TO.C,U1*%
G36*
G01*
X102400000Y-75080000D02*
X102400000Y-74780000D01*
G75*
G02*
X102550000Y-74630000I150000J0D01*
G01*
X104200000Y-74630000D01*
G75*
G02*
X104350000Y-74780000I0J-150000D01*
G01*
X104350000Y-75080000D01*
G75*
G02*
X104200000Y-75230000I-150000J0D01*
G01*
X102550000Y-75230000D01*
G75*
G02*
X102400000Y-75080000I0J150000D01*
G01*
G37*
G36*
G01*
X102400000Y-76350000D02*
X102400000Y-76050000D01*
G75*
G02*
X102550000Y-75900000I150000J0D01*
G01*
X104200000Y-75900000D01*
G75*
G02*
X104350000Y-76050000I0J-150000D01*
G01*
X104350000Y-76350000D01*
G75*
G02*
X104200000Y-76500000I-150000J0D01*
G01*
X102550000Y-76500000D01*
G75*
G02*
X102400000Y-76350000I0J150000D01*
G01*
G37*
G36*
G01*
X102400000Y-77620000D02*
X102400000Y-77320000D01*
G75*
G02*
X102550000Y-77170000I150000J0D01*
G01*
X104200000Y-77170000D01*
G75*
G02*
X104350000Y-77320000I0J-150000D01*
G01*
X104350000Y-77620000D01*
G75*
G02*
X104200000Y-77770000I-150000J0D01*
G01*
X102550000Y-77770000D01*
G75*
G02*
X102400000Y-77620000I0J150000D01*
G01*
G37*
G36*
G01*
X102400000Y-78890000D02*
X102400000Y-78590000D01*
G75*
G02*
X102550000Y-78440000I150000J0D01*
G01*
X104200000Y-78440000D01*
G75*
G02*
X104350000Y-78590000I0J-150000D01*
G01*
X104350000Y-78890000D01*
G75*
G02*
X104200000Y-79040000I-150000J0D01*
G01*
X102550000Y-79040000D01*
G75*
G02*
X102400000Y-78890000I0J150000D01*
G01*
G37*
G36*
G01*
X97450000Y-78890000D02*
X97450000Y-78590000D01*
G75*
G02*
X97600000Y-78440000I150000J0D01*
G01*
X99250000Y-78440000D01*
G75*
G02*
X99400000Y-78590000I0J-150000D01*
G01*
X99400000Y-78890000D01*
G75*
G02*
X99250000Y-79040000I-150000J0D01*
G01*
X97600000Y-79040000D01*
G75*
G02*
X97450000Y-78890000I0J150000D01*
G01*
G37*
G36*
G01*
X97450000Y-77620000D02*
X97450000Y-77320000D01*
G75*
G02*
X97600000Y-77170000I150000J0D01*
G01*
X99250000Y-77170000D01*
G75*
G02*
X99400000Y-77320000I0J-150000D01*
G01*
X99400000Y-77620000D01*
G75*
G02*
X99250000Y-77770000I-150000J0D01*
G01*
X97600000Y-77770000D01*
G75*
G02*
X97450000Y-77620000I0J150000D01*
G01*
G37*
G36*
G01*
X97450000Y-76350000D02*
X97450000Y-76050000D01*
G75*
G02*
X97600000Y-75900000I150000J0D01*
G01*
X99250000Y-75900000D01*
G75*
G02*
X99400000Y-76050000I0J-150000D01*
G01*
X99400000Y-76350000D01*
G75*
G02*
X99250000Y-76500000I-150000J0D01*
G01*
X97600000Y-76500000D01*
G75*
G02*
X97450000Y-76350000I0J150000D01*
G01*
G37*
G36*
G01*
X97450000Y-75080000D02*
X97450000Y-74780000D01*
G75*
G02*
X97600000Y-74630000I150000J0D01*
G01*
X99250000Y-74630000D01*
G75*
G02*
X99400000Y-74780000I0J-150000D01*
G01*
X99400000Y-75080000D01*
G75*
G02*
X99250000Y-75230000I-150000J0D01*
G01*
X97600000Y-75230000D01*
G75*
G02*
X97450000Y-75080000I0J150000D01*
G01*
G37*
%TD*%
%TO.C,RSNS1*%
G36*
G01*
X105594999Y-76405000D02*
X106495001Y-76405000D01*
G75*
G02*
X106745000Y-76654999I0J-249999D01*
G01*
X106745000Y-77305001D01*
G75*
G02*
X106495001Y-77555000I-249999J0D01*
G01*
X105594999Y-77555000D01*
G75*
G02*
X105345000Y-77305001I0J249999D01*
G01*
X105345000Y-76654999D01*
G75*
G02*
X105594999Y-76405000I249999J0D01*
G01*
G37*
G36*
G01*
X105594999Y-74355000D02*
X106495001Y-74355000D01*
G75*
G02*
X106745000Y-74604999I0J-249999D01*
G01*
X106745000Y-75255001D01*
G75*
G02*
X106495001Y-75505000I-249999J0D01*
G01*
X105594999Y-75505000D01*
G75*
G02*
X105345000Y-75255001I0J249999D01*
G01*
X105345000Y-74604999D01*
G75*
G02*
X105594999Y-74355000I249999J0D01*
G01*
G37*
%TD*%
%TO.C,R6*%
G36*
G01*
X93550000Y-95700001D02*
X93550000Y-94799999D01*
G75*
G02*
X93799999Y-94550000I249999J0D01*
G01*
X94450001Y-94550000D01*
G75*
G02*
X94700000Y-94799999I0J-249999D01*
G01*
X94700000Y-95700001D01*
G75*
G02*
X94450001Y-95950000I-249999J0D01*
G01*
X93799999Y-95950000D01*
G75*
G02*
X93550000Y-95700001I0J249999D01*
G01*
G37*
G36*
G01*
X91500000Y-95700001D02*
X91500000Y-94799999D01*
G75*
G02*
X91749999Y-94550000I249999J0D01*
G01*
X92400001Y-94550000D01*
G75*
G02*
X92650000Y-94799999I0J-249999D01*
G01*
X92650000Y-95700001D01*
G75*
G02*
X92400001Y-95950000I-249999J0D01*
G01*
X91749999Y-95950000D01*
G75*
G02*
X91500000Y-95700001I0J249999D01*
G01*
G37*
%TD*%
%TO.C,R5*%
G36*
G01*
X93550000Y-99510001D02*
X93550000Y-98609999D01*
G75*
G02*
X93799999Y-98360000I249999J0D01*
G01*
X94450001Y-98360000D01*
G75*
G02*
X94700000Y-98609999I0J-249999D01*
G01*
X94700000Y-99510001D01*
G75*
G02*
X94450001Y-99760000I-249999J0D01*
G01*
X93799999Y-99760000D01*
G75*
G02*
X93550000Y-99510001I0J249999D01*
G01*
G37*
G36*
G01*
X91500000Y-99510001D02*
X91500000Y-98609999D01*
G75*
G02*
X91749999Y-98360000I249999J0D01*
G01*
X92400001Y-98360000D01*
G75*
G02*
X92650000Y-98609999I0J-249999D01*
G01*
X92650000Y-99510001D01*
G75*
G02*
X92400001Y-99760000I-249999J0D01*
G01*
X91749999Y-99760000D01*
G75*
G02*
X91500000Y-99510001I0J249999D01*
G01*
G37*
%TD*%
%TO.C,R4*%
G36*
G01*
X88205000Y-101149999D02*
X88205000Y-102050001D01*
G75*
G02*
X87955001Y-102300000I-249999J0D01*
G01*
X87304999Y-102300000D01*
G75*
G02*
X87055000Y-102050001I0J249999D01*
G01*
X87055000Y-101149999D01*
G75*
G02*
X87304999Y-100900000I249999J0D01*
G01*
X87955001Y-100900000D01*
G75*
G02*
X88205000Y-101149999I0J-249999D01*
G01*
G37*
G36*
G01*
X90255000Y-101149999D02*
X90255000Y-102050001D01*
G75*
G02*
X90005001Y-102300000I-249999J0D01*
G01*
X89354999Y-102300000D01*
G75*
G02*
X89105000Y-102050001I0J249999D01*
G01*
X89105000Y-101149999D01*
G75*
G02*
X89354999Y-100900000I249999J0D01*
G01*
X90005001Y-100900000D01*
G75*
G02*
X90255000Y-101149999I0J-249999D01*
G01*
G37*
%TD*%
%TO.C,R3*%
G36*
G01*
X98875001Y-70425000D02*
X97974999Y-70425000D01*
G75*
G02*
X97725000Y-70175001I0J249999D01*
G01*
X97725000Y-69524999D01*
G75*
G02*
X97974999Y-69275000I249999J0D01*
G01*
X98875001Y-69275000D01*
G75*
G02*
X99125000Y-69524999I0J-249999D01*
G01*
X99125000Y-70175001D01*
G75*
G02*
X98875001Y-70425000I-249999J0D01*
G01*
G37*
G36*
G01*
X98875001Y-72475000D02*
X97974999Y-72475000D01*
G75*
G02*
X97725000Y-72225001I0J249999D01*
G01*
X97725000Y-71574999D01*
G75*
G02*
X97974999Y-71325000I249999J0D01*
G01*
X98875001Y-71325000D01*
G75*
G02*
X99125000Y-71574999I0J-249999D01*
G01*
X99125000Y-72225001D01*
G75*
G02*
X98875001Y-72475000I-249999J0D01*
G01*
G37*
%TD*%
%TO.C,R2*%
G36*
G01*
X102685001Y-70425000D02*
X101784999Y-70425000D01*
G75*
G02*
X101535000Y-70175001I0J249999D01*
G01*
X101535000Y-69524999D01*
G75*
G02*
X101784999Y-69275000I249999J0D01*
G01*
X102685001Y-69275000D01*
G75*
G02*
X102935000Y-69524999I0J-249999D01*
G01*
X102935000Y-70175001D01*
G75*
G02*
X102685001Y-70425000I-249999J0D01*
G01*
G37*
G36*
G01*
X102685001Y-72475000D02*
X101784999Y-72475000D01*
G75*
G02*
X101535000Y-72225001I0J249999D01*
G01*
X101535000Y-71574999D01*
G75*
G02*
X101784999Y-71325000I249999J0D01*
G01*
X102685001Y-71325000D01*
G75*
G02*
X102935000Y-71574999I0J-249999D01*
G01*
X102935000Y-72225001D01*
G75*
G02*
X102685001Y-72475000I-249999J0D01*
G01*
G37*
%TD*%
%TO.C,R1*%
G36*
G01*
X99879999Y-71325000D02*
X100780001Y-71325000D01*
G75*
G02*
X101030000Y-71574999I0J-249999D01*
G01*
X101030000Y-72225001D01*
G75*
G02*
X100780001Y-72475000I-249999J0D01*
G01*
X99879999Y-72475000D01*
G75*
G02*
X99630000Y-72225001I0J249999D01*
G01*
X99630000Y-71574999D01*
G75*
G02*
X99879999Y-71325000I249999J0D01*
G01*
G37*
G36*
G01*
X99879999Y-69275000D02*
X100780001Y-69275000D01*
G75*
G02*
X101030000Y-69524999I0J-249999D01*
G01*
X101030000Y-70175001D01*
G75*
G02*
X100780001Y-70425000I-249999J0D01*
G01*
X99879999Y-70425000D01*
G75*
G02*
X99630000Y-70175001I0J249999D01*
G01*
X99630000Y-69524999D01*
G75*
G02*
X99879999Y-69275000I249999J0D01*
G01*
G37*
%TD*%
%TO.C,L1*%
G36*
G01*
X89095000Y-77827500D02*
X91245000Y-77827500D01*
G75*
G02*
X91495000Y-78077500I0J-250000D01*
G01*
X91495000Y-79002500D01*
G75*
G02*
X91245000Y-79252500I-250000J0D01*
G01*
X89095000Y-79252500D01*
G75*
G02*
X88845000Y-79002500I0J250000D01*
G01*
X88845000Y-78077500D01*
G75*
G02*
X89095000Y-77827500I250000J0D01*
G01*
G37*
G36*
G01*
X89095000Y-74852500D02*
X91245000Y-74852500D01*
G75*
G02*
X91495000Y-75102500I0J-250000D01*
G01*
X91495000Y-76027500D01*
G75*
G02*
X91245000Y-76277500I-250000J0D01*
G01*
X89095000Y-76277500D01*
G75*
G02*
X88845000Y-76027500I0J250000D01*
G01*
X88845000Y-75102500D01*
G75*
G02*
X89095000Y-74852500I250000J0D01*
G01*
G37*
%TD*%
D16*
%TO.C,J3*%
X101600000Y-98830000D03*
X101600000Y-104370000D03*
X101600000Y-101600000D03*
%TD*%
%TO.C,J2*%
X84005000Y-104370000D03*
X84005000Y-98830000D03*
X84005000Y-101600000D03*
%TD*%
D17*
%TO.C,D1*%
X93980000Y-79335000D03*
X93980000Y-74335000D03*
%TD*%
%TO.C,C10*%
G36*
G01*
X97360000Y-95700001D02*
X97360000Y-94799999D01*
G75*
G02*
X97609999Y-94550000I249999J0D01*
G01*
X98260001Y-94550000D01*
G75*
G02*
X98510000Y-94799999I0J-249999D01*
G01*
X98510000Y-95700001D01*
G75*
G02*
X98260001Y-95950000I-249999J0D01*
G01*
X97609999Y-95950000D01*
G75*
G02*
X97360000Y-95700001I0J249999D01*
G01*
G37*
G36*
G01*
X95310000Y-95700001D02*
X95310000Y-94799999D01*
G75*
G02*
X95559999Y-94550000I249999J0D01*
G01*
X96210001Y-94550000D01*
G75*
G02*
X96460000Y-94799999I0J-249999D01*
G01*
X96460000Y-95700001D01*
G75*
G02*
X96210001Y-95950000I-249999J0D01*
G01*
X95559999Y-95950000D01*
G75*
G02*
X95310000Y-95700001I0J249999D01*
G01*
G37*
%TD*%
%TO.C,C9*%
G36*
G01*
X93550000Y-97605001D02*
X93550000Y-96704999D01*
G75*
G02*
X93799999Y-96455000I249999J0D01*
G01*
X94450001Y-96455000D01*
G75*
G02*
X94700000Y-96704999I0J-249999D01*
G01*
X94700000Y-97605001D01*
G75*
G02*
X94450001Y-97855000I-249999J0D01*
G01*
X93799999Y-97855000D01*
G75*
G02*
X93550000Y-97605001I0J249999D01*
G01*
G37*
G36*
G01*
X91500000Y-97605001D02*
X91500000Y-96704999D01*
G75*
G02*
X91749999Y-96455000I249999J0D01*
G01*
X92400001Y-96455000D01*
G75*
G02*
X92650000Y-96704999I0J-249999D01*
G01*
X92650000Y-97605001D01*
G75*
G02*
X92400001Y-97855000I-249999J0D01*
G01*
X91749999Y-97855000D01*
G75*
G02*
X91500000Y-97605001I0J249999D01*
G01*
G37*
%TD*%
%TO.C,C8*%
G36*
G01*
X89330000Y-92259999D02*
X89330000Y-93160001D01*
G75*
G02*
X89080001Y-93410000I-249999J0D01*
G01*
X88429999Y-93410000D01*
G75*
G02*
X88180000Y-93160001I0J249999D01*
G01*
X88180000Y-92259999D01*
G75*
G02*
X88429999Y-92010000I249999J0D01*
G01*
X89080001Y-92010000D01*
G75*
G02*
X89330000Y-92259999I0J-249999D01*
G01*
G37*
G36*
G01*
X91380000Y-92259999D02*
X91380000Y-93160001D01*
G75*
G02*
X91130001Y-93410000I-249999J0D01*
G01*
X90479999Y-93410000D01*
G75*
G02*
X90230000Y-93160001I0J249999D01*
G01*
X90230000Y-92259999D01*
G75*
G02*
X90479999Y-92010000I249999J0D01*
G01*
X91130001Y-92010000D01*
G75*
G02*
X91380000Y-92259999I0J-249999D01*
G01*
G37*
%TD*%
%TO.C,C7*%
G36*
G01*
X96090000Y-93160001D02*
X96090000Y-92259999D01*
G75*
G02*
X96339999Y-92010000I249999J0D01*
G01*
X96990001Y-92010000D01*
G75*
G02*
X97240000Y-92259999I0J-249999D01*
G01*
X97240000Y-93160001D01*
G75*
G02*
X96990001Y-93410000I-249999J0D01*
G01*
X96339999Y-93410000D01*
G75*
G02*
X96090000Y-93160001I0J249999D01*
G01*
G37*
G36*
G01*
X94040000Y-93160001D02*
X94040000Y-92259999D01*
G75*
G02*
X94289999Y-92010000I249999J0D01*
G01*
X94940001Y-92010000D01*
G75*
G02*
X95190000Y-92259999I0J-249999D01*
G01*
X95190000Y-93160001D01*
G75*
G02*
X94940001Y-93410000I-249999J0D01*
G01*
X94289999Y-93410000D01*
G75*
G02*
X94040000Y-93160001I0J249999D01*
G01*
G37*
%TD*%
%TO.C,C6*%
G36*
G01*
X93786000Y-85667001D02*
X93786000Y-84766999D01*
G75*
G02*
X94035999Y-84517000I249999J0D01*
G01*
X94686001Y-84517000D01*
G75*
G02*
X94936000Y-84766999I0J-249999D01*
G01*
X94936000Y-85667001D01*
G75*
G02*
X94686001Y-85917000I-249999J0D01*
G01*
X94035999Y-85917000D01*
G75*
G02*
X93786000Y-85667001I0J249999D01*
G01*
G37*
G36*
G01*
X91736000Y-85667001D02*
X91736000Y-84766999D01*
G75*
G02*
X91985999Y-84517000I249999J0D01*
G01*
X92636001Y-84517000D01*
G75*
G02*
X92886000Y-84766999I0J-249999D01*
G01*
X92886000Y-85667001D01*
G75*
G02*
X92636001Y-85917000I-249999J0D01*
G01*
X91985999Y-85917000D01*
G75*
G02*
X91736000Y-85667001I0J249999D01*
G01*
G37*
%TD*%
%TO.C,C5*%
G36*
G01*
X97360000Y-88080001D02*
X97360000Y-87179999D01*
G75*
G02*
X97609999Y-86930000I249999J0D01*
G01*
X98260001Y-86930000D01*
G75*
G02*
X98510000Y-87179999I0J-249999D01*
G01*
X98510000Y-88080001D01*
G75*
G02*
X98260001Y-88330000I-249999J0D01*
G01*
X97609999Y-88330000D01*
G75*
G02*
X97360000Y-88080001I0J249999D01*
G01*
G37*
G36*
G01*
X95310000Y-88080001D02*
X95310000Y-87179999D01*
G75*
G02*
X95559999Y-86930000I249999J0D01*
G01*
X96210001Y-86930000D01*
G75*
G02*
X96460000Y-87179999I0J-249999D01*
G01*
X96460000Y-88080001D01*
G75*
G02*
X96210001Y-88330000I-249999J0D01*
G01*
X95559999Y-88330000D01*
G75*
G02*
X95310000Y-88080001I0J249999D01*
G01*
G37*
%TD*%
%TO.C,C4*%
G36*
G01*
X99000000Y-80829999D02*
X99000000Y-81730001D01*
G75*
G02*
X98750001Y-81980000I-249999J0D01*
G01*
X98099999Y-81980000D01*
G75*
G02*
X97850000Y-81730001I0J249999D01*
G01*
X97850000Y-80829999D01*
G75*
G02*
X98099999Y-80580000I249999J0D01*
G01*
X98750001Y-80580000D01*
G75*
G02*
X99000000Y-80829999I0J-249999D01*
G01*
G37*
G36*
G01*
X101050000Y-80829999D02*
X101050000Y-81730001D01*
G75*
G02*
X100800001Y-81980000I-249999J0D01*
G01*
X100149999Y-81980000D01*
G75*
G02*
X99900000Y-81730001I0J249999D01*
G01*
X99900000Y-80829999D01*
G75*
G02*
X100149999Y-80580000I249999J0D01*
G01*
X100800001Y-80580000D01*
G75*
G02*
X101050000Y-80829999I0J-249999D01*
G01*
G37*
%TD*%
%TO.C,C2*%
G36*
G01*
X99900000Y-83635001D02*
X99900000Y-82734999D01*
G75*
G02*
X100149999Y-82485000I249999J0D01*
G01*
X100800001Y-82485000D01*
G75*
G02*
X101050000Y-82734999I0J-249999D01*
G01*
X101050000Y-83635001D01*
G75*
G02*
X100800001Y-83885000I-249999J0D01*
G01*
X100149999Y-83885000D01*
G75*
G02*
X99900000Y-83635001I0J249999D01*
G01*
G37*
G36*
G01*
X97850000Y-83635001D02*
X97850000Y-82734999D01*
G75*
G02*
X98099999Y-82485000I249999J0D01*
G01*
X98750001Y-82485000D01*
G75*
G02*
X99000000Y-82734999I0J-249999D01*
G01*
X99000000Y-83635001D01*
G75*
G02*
X98750001Y-83885000I-249999J0D01*
G01*
X98099999Y-83885000D01*
G75*
G02*
X97850000Y-83635001I0J249999D01*
G01*
G37*
%TD*%
M02*
