%TF.GenerationSoftware,KiCad,Pcbnew,(5.1.6-0-10_14)*%
%TF.CreationDate,2021-01-28T16:47:55-08:00*%
%TF.ProjectId,TIADevBoard,54494144-6576-4426-9f61-72642e6b6963,rev?*%
%TF.SameCoordinates,Original*%
%TF.FileFunction,Copper,L1,Top*%
%TF.FilePolarity,Positive*%
%FSLAX46Y46*%
G04 Gerber Fmt 4.6, Leading zero omitted, Abs format (unit mm)*
G04 Created by KiCad (PCBNEW (5.1.6-0-10_14)) date 2021-01-28 16:47:55*
%MOMM*%
%LPD*%
G01*
G04 APERTURE LIST*
%TA.AperFunction,SMDPad,CuDef*%
%ADD10R,1.600000X5.080000*%
%TD*%
%TA.AperFunction,ComponentPad*%
%ADD11O,1.700000X1.700000*%
%TD*%
%TA.AperFunction,ComponentPad*%
%ADD12R,1.700000X1.700000*%
%TD*%
%TA.AperFunction,ComponentPad*%
%ADD13C,2.000000*%
%TD*%
%TA.AperFunction,SMDPad,CuDef*%
%ADD14R,1.500000X1.000000*%
%TD*%
%TA.AperFunction,SMDPad,CuDef*%
%ADD15R,0.280000X1.400000*%
%TD*%
%TA.AperFunction,SMDPad,CuDef*%
%ADD16R,0.300000X1.400000*%
%TD*%
%TA.AperFunction,ComponentPad*%
%ADD17O,3.960000X1.980000*%
%TD*%
%TA.AperFunction,ComponentPad*%
%ADD18R,3.960000X1.980000*%
%TD*%
%TA.AperFunction,SMDPad,CuDef*%
%ADD19R,0.650000X1.560000*%
%TD*%
%TA.AperFunction,SMDPad,CuDef*%
%ADD20R,1.450000X0.450000*%
%TD*%
%TA.AperFunction,SMDPad,CuDef*%
%ADD21R,5.080000X1.600000*%
%TD*%
%TA.AperFunction,ComponentPad*%
%ADD22C,4.000000*%
%TD*%
%TA.AperFunction,SMDPad,CuDef*%
%ADD23R,1.800000X3.500000*%
%TD*%
%TA.AperFunction,ComponentPad*%
%ADD24C,1.600000*%
%TD*%
%TA.AperFunction,ComponentPad*%
%ADD25R,1.600000X1.600000*%
%TD*%
%TA.AperFunction,ViaPad*%
%ADD26C,0.800000*%
%TD*%
%TA.AperFunction,Conductor*%
%ADD27C,0.250000*%
%TD*%
%TA.AperFunction,Conductor*%
%ADD28C,1.000000*%
%TD*%
G04 APERTURE END LIST*
D10*
%TO.P,J5,2*%
%TO.N,GND*%
X95099000Y-109225500D03*
X89559000Y-109225500D03*
%TO.P,J5,1*%
%TO.N,/VIN+*%
X92329000Y-109225500D03*
%TD*%
D11*
%TO.P,J4,6*%
%TO.N,GND*%
X77470000Y-74295000D03*
%TO.P,J4,5*%
X77470000Y-76835000D03*
%TO.P,J4,4*%
X74930000Y-74295000D03*
%TO.P,J4,3*%
X74930000Y-76835000D03*
%TO.P,J4,2*%
X72390000Y-74295000D03*
D12*
%TO.P,J4,1*%
X72390000Y-76835000D03*
%TD*%
D13*
%TO.P,TP6,1*%
%TO.N,/SwE*%
X88265000Y-68580000D03*
%TD*%
%TO.P,TP5,1*%
%TO.N,/TC*%
X105410000Y-81915000D03*
%TD*%
%TO.P,TP4,1*%
%TO.N,/-2.5V*%
X83185000Y-93980000D03*
%TD*%
%TO.P,TP3,1*%
%TO.N,-5V*%
X90805000Y-71120000D03*
%TD*%
%TO.P,TP2,1*%
%TO.N,/Ipk*%
X94615000Y-68580000D03*
%TD*%
%TO.P,TP1,1*%
%TO.N,/3V*%
X105410000Y-92710000D03*
%TD*%
%TO.P,C13,2*%
%TO.N,GND*%
%TA.AperFunction,SMDPad,CuDef*%
G36*
G01*
X100006999Y-91391000D02*
X100907001Y-91391000D01*
G75*
G02*
X101157000Y-91640999I0J-249999D01*
G01*
X101157000Y-92291001D01*
G75*
G02*
X100907001Y-92541000I-249999J0D01*
G01*
X100006999Y-92541000D01*
G75*
G02*
X99757000Y-92291001I0J249999D01*
G01*
X99757000Y-91640999D01*
G75*
G02*
X100006999Y-91391000I249999J0D01*
G01*
G37*
%TD.AperFunction*%
%TO.P,C13,1*%
%TO.N,/3V*%
%TA.AperFunction,SMDPad,CuDef*%
G36*
G01*
X100006999Y-89341000D02*
X100907001Y-89341000D01*
G75*
G02*
X101157000Y-89590999I0J-249999D01*
G01*
X101157000Y-90241001D01*
G75*
G02*
X100907001Y-90491000I-249999J0D01*
G01*
X100006999Y-90491000D01*
G75*
G02*
X99757000Y-90241001I0J249999D01*
G01*
X99757000Y-89590999D01*
G75*
G02*
X100006999Y-89341000I249999J0D01*
G01*
G37*
%TD.AperFunction*%
%TD*%
D14*
%TO.P,U4,9*%
%TO.N,-5V*%
X93345000Y-88900000D03*
D15*
%TO.P,U4,8*%
X92595000Y-87475000D03*
%TO.P,U4,7*%
%TO.N,Net-(C6-Pad1)*%
X93095000Y-87475000D03*
%TO.P,U4,6*%
%TO.N,GND*%
X93595000Y-87475000D03*
%TO.P,U4,5*%
%TO.N,-5V*%
X94095000Y-87475000D03*
%TO.P,U4,4*%
%TO.N,Net-(C7-Pad2)*%
X94095000Y-90325000D03*
%TO.P,U4,3*%
%TO.N,Net-(C7-Pad1)*%
X93595000Y-90325000D03*
%TO.P,U4,2*%
%TO.N,Net-(U4-Pad2)*%
X93095000Y-90325000D03*
D16*
%TO.P,U4,1*%
%TO.N,/-2.5V*%
X92595000Y-90325000D03*
%TD*%
%TO.P,C12,2*%
%TO.N,GND*%
%TA.AperFunction,SMDPad,CuDef*%
G36*
G01*
X90427500Y-104515499D02*
X90427500Y-105415501D01*
G75*
G02*
X90177501Y-105665500I-249999J0D01*
G01*
X89527499Y-105665500D01*
G75*
G02*
X89277500Y-105415501I0J249999D01*
G01*
X89277500Y-104515499D01*
G75*
G02*
X89527499Y-104265500I249999J0D01*
G01*
X90177501Y-104265500D01*
G75*
G02*
X90427500Y-104515499I0J-249999D01*
G01*
G37*
%TD.AperFunction*%
%TO.P,C12,1*%
%TO.N,/-2.5V*%
%TA.AperFunction,SMDPad,CuDef*%
G36*
G01*
X92477500Y-104515499D02*
X92477500Y-105415501D01*
G75*
G02*
X92227501Y-105665500I-249999J0D01*
G01*
X91577499Y-105665500D01*
G75*
G02*
X91327500Y-105415501I0J249999D01*
G01*
X91327500Y-104515499D01*
G75*
G02*
X91577499Y-104265500I249999J0D01*
G01*
X92227501Y-104265500D01*
G75*
G02*
X92477500Y-104515499I0J-249999D01*
G01*
G37*
%TD.AperFunction*%
%TD*%
%TO.P,C11,2*%
%TO.N,/3V*%
%TA.AperFunction,SMDPad,CuDef*%
G36*
G01*
X96069999Y-98630000D02*
X96970001Y-98630000D01*
G75*
G02*
X97220000Y-98879999I0J-249999D01*
G01*
X97220000Y-99530001D01*
G75*
G02*
X96970001Y-99780000I-249999J0D01*
G01*
X96069999Y-99780000D01*
G75*
G02*
X95820000Y-99530001I0J249999D01*
G01*
X95820000Y-98879999D01*
G75*
G02*
X96069999Y-98630000I249999J0D01*
G01*
G37*
%TD.AperFunction*%
%TO.P,C11,1*%
%TO.N,GND*%
%TA.AperFunction,SMDPad,CuDef*%
G36*
G01*
X96069999Y-96580000D02*
X96970001Y-96580000D01*
G75*
G02*
X97220000Y-96829999I0J-249999D01*
G01*
X97220000Y-97480001D01*
G75*
G02*
X96970001Y-97730000I-249999J0D01*
G01*
X96069999Y-97730000D01*
G75*
G02*
X95820000Y-97480001I0J249999D01*
G01*
X95820000Y-96829999D01*
G75*
G02*
X96069999Y-96580000I249999J0D01*
G01*
G37*
%TD.AperFunction*%
%TD*%
D17*
%TO.P,J1,2*%
%TO.N,GND*%
X73025000Y-87550000D03*
D18*
%TO.P,J1,1*%
%TO.N,VDD*%
X73025000Y-82550000D03*
%TD*%
D19*
%TO.P,U3,5*%
%TO.N,Net-(U3-Pad5)*%
X103693000Y-86962000D03*
%TO.P,U3,6*%
%TO.N,VDD*%
X102743000Y-86962000D03*
%TO.P,U3,4*%
%TO.N,GND*%
X104643000Y-86962000D03*
%TO.P,U3,3*%
%TO.N,Net-(U3-Pad3)*%
X104643000Y-89662000D03*
%TO.P,U3,2*%
%TO.N,VDD*%
X103693000Y-89662000D03*
%TO.P,U3,1*%
%TO.N,/3V*%
X102743000Y-89662000D03*
%TD*%
D20*
%TO.P,U2,8*%
%TO.N,/3V*%
X96475000Y-100935000D03*
%TO.P,U2,7*%
%TO.N,Net-(U2-Pad7)*%
X96475000Y-101585000D03*
%TO.P,U2,6*%
%TO.N,Net-(U2-Pad6)*%
X96475000Y-102235000D03*
%TO.P,U2,5*%
%TO.N,Net-(U2-Pad5)*%
X96475000Y-102885000D03*
%TO.P,U2,4*%
%TO.N,/-2.5V*%
X92075000Y-102885000D03*
%TO.P,U2,3*%
%TO.N,/VIN+*%
X92075000Y-102235000D03*
%TO.P,U2,2*%
%TO.N,/VOP-*%
X92075000Y-101585000D03*
%TO.P,U2,1*%
%TO.N,/VOUT*%
X92075000Y-100935000D03*
%TD*%
%TO.P,U1,8*%
%TO.N,/Ipk*%
%TA.AperFunction,SMDPad,CuDef*%
G36*
G01*
X102400000Y-75080000D02*
X102400000Y-74780000D01*
G75*
G02*
X102550000Y-74630000I150000J0D01*
G01*
X104200000Y-74630000D01*
G75*
G02*
X104350000Y-74780000I0J-150000D01*
G01*
X104350000Y-75080000D01*
G75*
G02*
X104200000Y-75230000I-150000J0D01*
G01*
X102550000Y-75230000D01*
G75*
G02*
X102400000Y-75080000I0J150000D01*
G01*
G37*
%TD.AperFunction*%
%TO.P,U1,7*%
%TA.AperFunction,SMDPad,CuDef*%
G36*
G01*
X102400000Y-76350000D02*
X102400000Y-76050000D01*
G75*
G02*
X102550000Y-75900000I150000J0D01*
G01*
X104200000Y-75900000D01*
G75*
G02*
X104350000Y-76050000I0J-150000D01*
G01*
X104350000Y-76350000D01*
G75*
G02*
X104200000Y-76500000I-150000J0D01*
G01*
X102550000Y-76500000D01*
G75*
G02*
X102400000Y-76350000I0J150000D01*
G01*
G37*
%TD.AperFunction*%
%TO.P,U1,6*%
%TO.N,VDD*%
%TA.AperFunction,SMDPad,CuDef*%
G36*
G01*
X102400000Y-77620000D02*
X102400000Y-77320000D01*
G75*
G02*
X102550000Y-77170000I150000J0D01*
G01*
X104200000Y-77170000D01*
G75*
G02*
X104350000Y-77320000I0J-150000D01*
G01*
X104350000Y-77620000D01*
G75*
G02*
X104200000Y-77770000I-150000J0D01*
G01*
X102550000Y-77770000D01*
G75*
G02*
X102400000Y-77620000I0J150000D01*
G01*
G37*
%TD.AperFunction*%
%TO.P,U1,5*%
%TO.N,/VFB*%
%TA.AperFunction,SMDPad,CuDef*%
G36*
G01*
X102400000Y-78890000D02*
X102400000Y-78590000D01*
G75*
G02*
X102550000Y-78440000I150000J0D01*
G01*
X104200000Y-78440000D01*
G75*
G02*
X104350000Y-78590000I0J-150000D01*
G01*
X104350000Y-78890000D01*
G75*
G02*
X104200000Y-79040000I-150000J0D01*
G01*
X102550000Y-79040000D01*
G75*
G02*
X102400000Y-78890000I0J150000D01*
G01*
G37*
%TD.AperFunction*%
%TO.P,U1,4*%
%TO.N,-5V*%
%TA.AperFunction,SMDPad,CuDef*%
G36*
G01*
X97450000Y-78890000D02*
X97450000Y-78590000D01*
G75*
G02*
X97600000Y-78440000I150000J0D01*
G01*
X99250000Y-78440000D01*
G75*
G02*
X99400000Y-78590000I0J-150000D01*
G01*
X99400000Y-78890000D01*
G75*
G02*
X99250000Y-79040000I-150000J0D01*
G01*
X97600000Y-79040000D01*
G75*
G02*
X97450000Y-78890000I0J150000D01*
G01*
G37*
%TD.AperFunction*%
%TO.P,U1,3*%
%TO.N,/TC*%
%TA.AperFunction,SMDPad,CuDef*%
G36*
G01*
X97450000Y-77620000D02*
X97450000Y-77320000D01*
G75*
G02*
X97600000Y-77170000I150000J0D01*
G01*
X99250000Y-77170000D01*
G75*
G02*
X99400000Y-77320000I0J-150000D01*
G01*
X99400000Y-77620000D01*
G75*
G02*
X99250000Y-77770000I-150000J0D01*
G01*
X97600000Y-77770000D01*
G75*
G02*
X97450000Y-77620000I0J150000D01*
G01*
G37*
%TD.AperFunction*%
%TO.P,U1,2*%
%TO.N,/SwE*%
%TA.AperFunction,SMDPad,CuDef*%
G36*
G01*
X97450000Y-76350000D02*
X97450000Y-76050000D01*
G75*
G02*
X97600000Y-75900000I150000J0D01*
G01*
X99250000Y-75900000D01*
G75*
G02*
X99400000Y-76050000I0J-150000D01*
G01*
X99400000Y-76350000D01*
G75*
G02*
X99250000Y-76500000I-150000J0D01*
G01*
X97600000Y-76500000D01*
G75*
G02*
X97450000Y-76350000I0J150000D01*
G01*
G37*
%TD.AperFunction*%
%TO.P,U1,1*%
%TO.N,/Ipk*%
%TA.AperFunction,SMDPad,CuDef*%
G36*
G01*
X97450000Y-75080000D02*
X97450000Y-74780000D01*
G75*
G02*
X97600000Y-74630000I150000J0D01*
G01*
X99250000Y-74630000D01*
G75*
G02*
X99400000Y-74780000I0J-150000D01*
G01*
X99400000Y-75080000D01*
G75*
G02*
X99250000Y-75230000I-150000J0D01*
G01*
X97600000Y-75230000D01*
G75*
G02*
X97450000Y-75080000I0J150000D01*
G01*
G37*
%TD.AperFunction*%
%TD*%
%TO.P,RSNS1,2*%
%TO.N,VDD*%
%TA.AperFunction,SMDPad,CuDef*%
G36*
G01*
X105594999Y-76405000D02*
X106495001Y-76405000D01*
G75*
G02*
X106745000Y-76654999I0J-249999D01*
G01*
X106745000Y-77305001D01*
G75*
G02*
X106495001Y-77555000I-249999J0D01*
G01*
X105594999Y-77555000D01*
G75*
G02*
X105345000Y-77305001I0J249999D01*
G01*
X105345000Y-76654999D01*
G75*
G02*
X105594999Y-76405000I249999J0D01*
G01*
G37*
%TD.AperFunction*%
%TO.P,RSNS1,1*%
%TO.N,/Ipk*%
%TA.AperFunction,SMDPad,CuDef*%
G36*
G01*
X105594999Y-74355000D02*
X106495001Y-74355000D01*
G75*
G02*
X106745000Y-74604999I0J-249999D01*
G01*
X106745000Y-75255001D01*
G75*
G02*
X106495001Y-75505000I-249999J0D01*
G01*
X105594999Y-75505000D01*
G75*
G02*
X105345000Y-75255001I0J249999D01*
G01*
X105345000Y-74604999D01*
G75*
G02*
X105594999Y-74355000I249999J0D01*
G01*
G37*
%TD.AperFunction*%
%TD*%
%TO.P,R6,2*%
%TO.N,Net-(C10-Pad1)*%
%TA.AperFunction,SMDPad,CuDef*%
G36*
G01*
X93550000Y-95700001D02*
X93550000Y-94799999D01*
G75*
G02*
X93799999Y-94550000I249999J0D01*
G01*
X94450001Y-94550000D01*
G75*
G02*
X94700000Y-94799999I0J-249999D01*
G01*
X94700000Y-95700001D01*
G75*
G02*
X94450001Y-95950000I-249999J0D01*
G01*
X93799999Y-95950000D01*
G75*
G02*
X93550000Y-95700001I0J249999D01*
G01*
G37*
%TD.AperFunction*%
%TO.P,R6,1*%
%TO.N,/VOUT*%
%TA.AperFunction,SMDPad,CuDef*%
G36*
G01*
X91500000Y-95700001D02*
X91500000Y-94799999D01*
G75*
G02*
X91749999Y-94550000I249999J0D01*
G01*
X92400001Y-94550000D01*
G75*
G02*
X92650000Y-94799999I0J-249999D01*
G01*
X92650000Y-95700001D01*
G75*
G02*
X92400001Y-95950000I-249999J0D01*
G01*
X91749999Y-95950000D01*
G75*
G02*
X91500000Y-95700001I0J249999D01*
G01*
G37*
%TD.AperFunction*%
%TD*%
%TO.P,R5,2*%
%TO.N,/VOP-*%
%TA.AperFunction,SMDPad,CuDef*%
G36*
G01*
X93550000Y-99510001D02*
X93550000Y-98609999D01*
G75*
G02*
X93799999Y-98360000I249999J0D01*
G01*
X94450001Y-98360000D01*
G75*
G02*
X94700000Y-98609999I0J-249999D01*
G01*
X94700000Y-99510001D01*
G75*
G02*
X94450001Y-99760000I-249999J0D01*
G01*
X93799999Y-99760000D01*
G75*
G02*
X93550000Y-99510001I0J249999D01*
G01*
G37*
%TD.AperFunction*%
%TO.P,R5,1*%
%TO.N,/VOUT*%
%TA.AperFunction,SMDPad,CuDef*%
G36*
G01*
X91500000Y-99510001D02*
X91500000Y-98609999D01*
G75*
G02*
X91749999Y-98360000I249999J0D01*
G01*
X92400001Y-98360000D01*
G75*
G02*
X92650000Y-98609999I0J-249999D01*
G01*
X92650000Y-99510001D01*
G75*
G02*
X92400001Y-99760000I-249999J0D01*
G01*
X91749999Y-99760000D01*
G75*
G02*
X91500000Y-99510001I0J249999D01*
G01*
G37*
%TD.AperFunction*%
%TD*%
%TO.P,R4,2*%
%TO.N,/VIN-*%
%TA.AperFunction,SMDPad,CuDef*%
G36*
G01*
X88205000Y-101149999D02*
X88205000Y-102050001D01*
G75*
G02*
X87955001Y-102300000I-249999J0D01*
G01*
X87304999Y-102300000D01*
G75*
G02*
X87055000Y-102050001I0J249999D01*
G01*
X87055000Y-101149999D01*
G75*
G02*
X87304999Y-100900000I249999J0D01*
G01*
X87955001Y-100900000D01*
G75*
G02*
X88205000Y-101149999I0J-249999D01*
G01*
G37*
%TD.AperFunction*%
%TO.P,R4,1*%
%TO.N,/VOP-*%
%TA.AperFunction,SMDPad,CuDef*%
G36*
G01*
X90255000Y-101149999D02*
X90255000Y-102050001D01*
G75*
G02*
X90005001Y-102300000I-249999J0D01*
G01*
X89354999Y-102300000D01*
G75*
G02*
X89105000Y-102050001I0J249999D01*
G01*
X89105000Y-101149999D01*
G75*
G02*
X89354999Y-100900000I249999J0D01*
G01*
X90005001Y-100900000D01*
G75*
G02*
X90255000Y-101149999I0J-249999D01*
G01*
G37*
%TD.AperFunction*%
%TD*%
%TO.P,R3,2*%
%TO.N,Net-(R1-Pad1)*%
%TA.AperFunction,SMDPad,CuDef*%
G36*
G01*
X98875001Y-70425000D02*
X97974999Y-70425000D01*
G75*
G02*
X97725000Y-70175001I0J249999D01*
G01*
X97725000Y-69524999D01*
G75*
G02*
X97974999Y-69275000I249999J0D01*
G01*
X98875001Y-69275000D01*
G75*
G02*
X99125000Y-69524999I0J-249999D01*
G01*
X99125000Y-70175001D01*
G75*
G02*
X98875001Y-70425000I-249999J0D01*
G01*
G37*
%TD.AperFunction*%
%TO.P,R3,1*%
%TO.N,-5V*%
%TA.AperFunction,SMDPad,CuDef*%
G36*
G01*
X98875001Y-72475000D02*
X97974999Y-72475000D01*
G75*
G02*
X97725000Y-72225001I0J249999D01*
G01*
X97725000Y-71574999D01*
G75*
G02*
X97974999Y-71325000I249999J0D01*
G01*
X98875001Y-71325000D01*
G75*
G02*
X99125000Y-71574999I0J-249999D01*
G01*
X99125000Y-72225001D01*
G75*
G02*
X98875001Y-72475000I-249999J0D01*
G01*
G37*
%TD.AperFunction*%
%TD*%
%TO.P,R2,2*%
%TO.N,GND*%
%TA.AperFunction,SMDPad,CuDef*%
G36*
G01*
X102685001Y-70425000D02*
X101784999Y-70425000D01*
G75*
G02*
X101535000Y-70175001I0J249999D01*
G01*
X101535000Y-69524999D01*
G75*
G02*
X101784999Y-69275000I249999J0D01*
G01*
X102685001Y-69275000D01*
G75*
G02*
X102935000Y-69524999I0J-249999D01*
G01*
X102935000Y-70175001D01*
G75*
G02*
X102685001Y-70425000I-249999J0D01*
G01*
G37*
%TD.AperFunction*%
%TO.P,R2,1*%
%TO.N,/VFB*%
%TA.AperFunction,SMDPad,CuDef*%
G36*
G01*
X102685001Y-72475000D02*
X101784999Y-72475000D01*
G75*
G02*
X101535000Y-72225001I0J249999D01*
G01*
X101535000Y-71574999D01*
G75*
G02*
X101784999Y-71325000I249999J0D01*
G01*
X102685001Y-71325000D01*
G75*
G02*
X102935000Y-71574999I0J-249999D01*
G01*
X102935000Y-72225001D01*
G75*
G02*
X102685001Y-72475000I-249999J0D01*
G01*
G37*
%TD.AperFunction*%
%TD*%
%TO.P,R1,2*%
%TO.N,/VFB*%
%TA.AperFunction,SMDPad,CuDef*%
G36*
G01*
X99879999Y-71325000D02*
X100780001Y-71325000D01*
G75*
G02*
X101030000Y-71574999I0J-249999D01*
G01*
X101030000Y-72225001D01*
G75*
G02*
X100780001Y-72475000I-249999J0D01*
G01*
X99879999Y-72475000D01*
G75*
G02*
X99630000Y-72225001I0J249999D01*
G01*
X99630000Y-71574999D01*
G75*
G02*
X99879999Y-71325000I249999J0D01*
G01*
G37*
%TD.AperFunction*%
%TO.P,R1,1*%
%TO.N,Net-(R1-Pad1)*%
%TA.AperFunction,SMDPad,CuDef*%
G36*
G01*
X99879999Y-69275000D02*
X100780001Y-69275000D01*
G75*
G02*
X101030000Y-69524999I0J-249999D01*
G01*
X101030000Y-70175001D01*
G75*
G02*
X100780001Y-70425000I-249999J0D01*
G01*
X99879999Y-70425000D01*
G75*
G02*
X99630000Y-70175001I0J249999D01*
G01*
X99630000Y-69524999D01*
G75*
G02*
X99879999Y-69275000I249999J0D01*
G01*
G37*
%TD.AperFunction*%
%TD*%
%TO.P,L1,2*%
%TO.N,GND*%
%TA.AperFunction,SMDPad,CuDef*%
G36*
G01*
X89095000Y-77827500D02*
X91245000Y-77827500D01*
G75*
G02*
X91495000Y-78077500I0J-250000D01*
G01*
X91495000Y-79002500D01*
G75*
G02*
X91245000Y-79252500I-250000J0D01*
G01*
X89095000Y-79252500D01*
G75*
G02*
X88845000Y-79002500I0J250000D01*
G01*
X88845000Y-78077500D01*
G75*
G02*
X89095000Y-77827500I250000J0D01*
G01*
G37*
%TD.AperFunction*%
%TO.P,L1,1*%
%TO.N,/SwE*%
%TA.AperFunction,SMDPad,CuDef*%
G36*
G01*
X89095000Y-74852500D02*
X91245000Y-74852500D01*
G75*
G02*
X91495000Y-75102500I0J-250000D01*
G01*
X91495000Y-76027500D01*
G75*
G02*
X91245000Y-76277500I-250000J0D01*
G01*
X89095000Y-76277500D01*
G75*
G02*
X88845000Y-76027500I0J250000D01*
G01*
X88845000Y-75102500D01*
G75*
G02*
X89095000Y-74852500I250000J0D01*
G01*
G37*
%TD.AperFunction*%
%TD*%
D21*
%TO.P,J3,2*%
%TO.N,GND*%
X101600000Y-98830000D03*
X101600000Y-104370000D03*
%TO.P,J3,1*%
%TO.N,/VOUT*%
X101600000Y-101600000D03*
%TD*%
%TO.P,J2,2*%
%TO.N,GND*%
X84005000Y-104370000D03*
X84005000Y-98830000D03*
%TO.P,J2,1*%
%TO.N,/VIN-*%
X84005000Y-101600000D03*
%TD*%
D22*
%TO.P,H4,1*%
%TO.N,N/C*%
X83820000Y-109220000D03*
%TD*%
%TO.P,H3,1*%
%TO.N,N/C*%
X101600000Y-109220000D03*
%TD*%
%TO.P,H2,1*%
%TO.N,N/C*%
X111760000Y-69850000D03*
%TD*%
%TO.P,H1,1*%
%TO.N,N/C*%
X73660000Y-69850000D03*
%TD*%
D23*
%TO.P,D1,2*%
%TO.N,-5V*%
X93980000Y-79335000D03*
%TO.P,D1,1*%
%TO.N,/SwE*%
X93980000Y-74335000D03*
%TD*%
%TO.P,C10,2*%
%TO.N,GND*%
%TA.AperFunction,SMDPad,CuDef*%
G36*
G01*
X97360000Y-95700001D02*
X97360000Y-94799999D01*
G75*
G02*
X97609999Y-94550000I249999J0D01*
G01*
X98260001Y-94550000D01*
G75*
G02*
X98510000Y-94799999I0J-249999D01*
G01*
X98510000Y-95700001D01*
G75*
G02*
X98260001Y-95950000I-249999J0D01*
G01*
X97609999Y-95950000D01*
G75*
G02*
X97360000Y-95700001I0J249999D01*
G01*
G37*
%TD.AperFunction*%
%TO.P,C10,1*%
%TO.N,Net-(C10-Pad1)*%
%TA.AperFunction,SMDPad,CuDef*%
G36*
G01*
X95310000Y-95700001D02*
X95310000Y-94799999D01*
G75*
G02*
X95559999Y-94550000I249999J0D01*
G01*
X96210001Y-94550000D01*
G75*
G02*
X96460000Y-94799999I0J-249999D01*
G01*
X96460000Y-95700001D01*
G75*
G02*
X96210001Y-95950000I-249999J0D01*
G01*
X95559999Y-95950000D01*
G75*
G02*
X95310000Y-95700001I0J249999D01*
G01*
G37*
%TD.AperFunction*%
%TD*%
%TO.P,C9,2*%
%TO.N,/VOP-*%
%TA.AperFunction,SMDPad,CuDef*%
G36*
G01*
X93550000Y-97605001D02*
X93550000Y-96704999D01*
G75*
G02*
X93799999Y-96455000I249999J0D01*
G01*
X94450001Y-96455000D01*
G75*
G02*
X94700000Y-96704999I0J-249999D01*
G01*
X94700000Y-97605001D01*
G75*
G02*
X94450001Y-97855000I-249999J0D01*
G01*
X93799999Y-97855000D01*
G75*
G02*
X93550000Y-97605001I0J249999D01*
G01*
G37*
%TD.AperFunction*%
%TO.P,C9,1*%
%TO.N,/VOUT*%
%TA.AperFunction,SMDPad,CuDef*%
G36*
G01*
X91500000Y-97605001D02*
X91500000Y-96704999D01*
G75*
G02*
X91749999Y-96455000I249999J0D01*
G01*
X92400001Y-96455000D01*
G75*
G02*
X92650000Y-96704999I0J-249999D01*
G01*
X92650000Y-97605001D01*
G75*
G02*
X92400001Y-97855000I-249999J0D01*
G01*
X91749999Y-97855000D01*
G75*
G02*
X91500000Y-97605001I0J249999D01*
G01*
G37*
%TD.AperFunction*%
%TD*%
%TO.P,C8,2*%
%TO.N,GND*%
%TA.AperFunction,SMDPad,CuDef*%
G36*
G01*
X89330000Y-92259999D02*
X89330000Y-93160001D01*
G75*
G02*
X89080001Y-93410000I-249999J0D01*
G01*
X88429999Y-93410000D01*
G75*
G02*
X88180000Y-93160001I0J249999D01*
G01*
X88180000Y-92259999D01*
G75*
G02*
X88429999Y-92010000I249999J0D01*
G01*
X89080001Y-92010000D01*
G75*
G02*
X89330000Y-92259999I0J-249999D01*
G01*
G37*
%TD.AperFunction*%
%TO.P,C8,1*%
%TO.N,/-2.5V*%
%TA.AperFunction,SMDPad,CuDef*%
G36*
G01*
X91380000Y-92259999D02*
X91380000Y-93160001D01*
G75*
G02*
X91130001Y-93410000I-249999J0D01*
G01*
X90479999Y-93410000D01*
G75*
G02*
X90230000Y-93160001I0J249999D01*
G01*
X90230000Y-92259999D01*
G75*
G02*
X90479999Y-92010000I249999J0D01*
G01*
X91130001Y-92010000D01*
G75*
G02*
X91380000Y-92259999I0J-249999D01*
G01*
G37*
%TD.AperFunction*%
%TD*%
%TO.P,C7,2*%
%TO.N,Net-(C7-Pad2)*%
%TA.AperFunction,SMDPad,CuDef*%
G36*
G01*
X96090000Y-93160001D02*
X96090000Y-92259999D01*
G75*
G02*
X96339999Y-92010000I249999J0D01*
G01*
X96990001Y-92010000D01*
G75*
G02*
X97240000Y-92259999I0J-249999D01*
G01*
X97240000Y-93160001D01*
G75*
G02*
X96990001Y-93410000I-249999J0D01*
G01*
X96339999Y-93410000D01*
G75*
G02*
X96090000Y-93160001I0J249999D01*
G01*
G37*
%TD.AperFunction*%
%TO.P,C7,1*%
%TO.N,Net-(C7-Pad1)*%
%TA.AperFunction,SMDPad,CuDef*%
G36*
G01*
X94040000Y-93160001D02*
X94040000Y-92259999D01*
G75*
G02*
X94289999Y-92010000I249999J0D01*
G01*
X94940001Y-92010000D01*
G75*
G02*
X95190000Y-92259999I0J-249999D01*
G01*
X95190000Y-93160001D01*
G75*
G02*
X94940001Y-93410000I-249999J0D01*
G01*
X94289999Y-93410000D01*
G75*
G02*
X94040000Y-93160001I0J249999D01*
G01*
G37*
%TD.AperFunction*%
%TD*%
%TO.P,C6,2*%
%TO.N,GND*%
%TA.AperFunction,SMDPad,CuDef*%
G36*
G01*
X93786000Y-85667001D02*
X93786000Y-84766999D01*
G75*
G02*
X94035999Y-84517000I249999J0D01*
G01*
X94686001Y-84517000D01*
G75*
G02*
X94936000Y-84766999I0J-249999D01*
G01*
X94936000Y-85667001D01*
G75*
G02*
X94686001Y-85917000I-249999J0D01*
G01*
X94035999Y-85917000D01*
G75*
G02*
X93786000Y-85667001I0J249999D01*
G01*
G37*
%TD.AperFunction*%
%TO.P,C6,1*%
%TO.N,Net-(C6-Pad1)*%
%TA.AperFunction,SMDPad,CuDef*%
G36*
G01*
X91736000Y-85667001D02*
X91736000Y-84766999D01*
G75*
G02*
X91985999Y-84517000I249999J0D01*
G01*
X92636001Y-84517000D01*
G75*
G02*
X92886000Y-84766999I0J-249999D01*
G01*
X92886000Y-85667001D01*
G75*
G02*
X92636001Y-85917000I-249999J0D01*
G01*
X91985999Y-85917000D01*
G75*
G02*
X91736000Y-85667001I0J249999D01*
G01*
G37*
%TD.AperFunction*%
%TD*%
%TO.P,C5,2*%
%TO.N,GND*%
%TA.AperFunction,SMDPad,CuDef*%
G36*
G01*
X97360000Y-88080001D02*
X97360000Y-87179999D01*
G75*
G02*
X97609999Y-86930000I249999J0D01*
G01*
X98260001Y-86930000D01*
G75*
G02*
X98510000Y-87179999I0J-249999D01*
G01*
X98510000Y-88080001D01*
G75*
G02*
X98260001Y-88330000I-249999J0D01*
G01*
X97609999Y-88330000D01*
G75*
G02*
X97360000Y-88080001I0J249999D01*
G01*
G37*
%TD.AperFunction*%
%TO.P,C5,1*%
%TO.N,-5V*%
%TA.AperFunction,SMDPad,CuDef*%
G36*
G01*
X95310000Y-88080001D02*
X95310000Y-87179999D01*
G75*
G02*
X95559999Y-86930000I249999J0D01*
G01*
X96210001Y-86930000D01*
G75*
G02*
X96460000Y-87179999I0J-249999D01*
G01*
X96460000Y-88080001D01*
G75*
G02*
X96210001Y-88330000I-249999J0D01*
G01*
X95559999Y-88330000D01*
G75*
G02*
X95310000Y-88080001I0J249999D01*
G01*
G37*
%TD.AperFunction*%
%TD*%
%TO.P,C4,2*%
%TO.N,-5V*%
%TA.AperFunction,SMDPad,CuDef*%
G36*
G01*
X99000000Y-80829999D02*
X99000000Y-81730001D01*
G75*
G02*
X98750001Y-81980000I-249999J0D01*
G01*
X98099999Y-81980000D01*
G75*
G02*
X97850000Y-81730001I0J249999D01*
G01*
X97850000Y-80829999D01*
G75*
G02*
X98099999Y-80580000I249999J0D01*
G01*
X98750001Y-80580000D01*
G75*
G02*
X99000000Y-80829999I0J-249999D01*
G01*
G37*
%TD.AperFunction*%
%TO.P,C4,1*%
%TO.N,/TC*%
%TA.AperFunction,SMDPad,CuDef*%
G36*
G01*
X101050000Y-80829999D02*
X101050000Y-81730001D01*
G75*
G02*
X100800001Y-81980000I-249999J0D01*
G01*
X100149999Y-81980000D01*
G75*
G02*
X99900000Y-81730001I0J249999D01*
G01*
X99900000Y-80829999D01*
G75*
G02*
X100149999Y-80580000I249999J0D01*
G01*
X100800001Y-80580000D01*
G75*
G02*
X101050000Y-80829999I0J-249999D01*
G01*
G37*
%TD.AperFunction*%
%TD*%
D24*
%TO.P,C3,2*%
%TO.N,-5V*%
X86280000Y-87630000D03*
D25*
%TO.P,C3,1*%
%TO.N,GND*%
X81280000Y-87630000D03*
%TD*%
%TO.P,C2,2*%
%TO.N,-5V*%
%TA.AperFunction,SMDPad,CuDef*%
G36*
G01*
X99900000Y-83635001D02*
X99900000Y-82734999D01*
G75*
G02*
X100149999Y-82485000I249999J0D01*
G01*
X100800001Y-82485000D01*
G75*
G02*
X101050000Y-82734999I0J-249999D01*
G01*
X101050000Y-83635001D01*
G75*
G02*
X100800001Y-83885000I-249999J0D01*
G01*
X100149999Y-83885000D01*
G75*
G02*
X99900000Y-83635001I0J249999D01*
G01*
G37*
%TD.AperFunction*%
%TO.P,C2,1*%
%TO.N,/TC*%
%TA.AperFunction,SMDPad,CuDef*%
G36*
G01*
X97850000Y-83635001D02*
X97850000Y-82734999D01*
G75*
G02*
X98099999Y-82485000I249999J0D01*
G01*
X98750001Y-82485000D01*
G75*
G02*
X99000000Y-82734999I0J-249999D01*
G01*
X99000000Y-83635001D01*
G75*
G02*
X98750001Y-83885000I-249999J0D01*
G01*
X98099999Y-83885000D01*
G75*
G02*
X97850000Y-83635001I0J249999D01*
G01*
G37*
%TD.AperFunction*%
%TD*%
D24*
%TO.P,C1,2*%
%TO.N,GND*%
X86360000Y-76835000D03*
D25*
%TO.P,C1,1*%
%TO.N,VDD*%
X81360000Y-76835000D03*
%TD*%
D26*
%TO.N,GND*%
X97917000Y-97155000D03*
X99187000Y-95250000D03*
X101600000Y-97282000D03*
X101600000Y-105918000D03*
X83947000Y-97282000D03*
X84074000Y-106045000D03*
X88900000Y-91440000D03*
X95758000Y-85217000D03*
X100330000Y-93218000D03*
X105537000Y-86995000D03*
X99060000Y-87630000D03*
X90170000Y-80010000D03*
X104140000Y-69850000D03*
X89535000Y-106235500D03*
X95186500Y-106172000D03*
X88646000Y-104838500D03*
%TO.N,VDD*%
X90805000Y-82550000D03*
X102235000Y-84455000D03*
X101600000Y-77012008D03*
%TO.N,-5V*%
X99060000Y-73660000D03*
X99695000Y-79375000D03*
%TO.N,/-2.5V*%
X89535000Y-99060000D03*
X93345000Y-103505000D03*
%TO.N,/3V*%
X102743000Y-91440000D03*
X97917000Y-99568000D03*
%TO.N,/TC*%
X101600000Y-81280000D03*
X97155000Y-83185000D03*
X101600000Y-78640010D03*
%TO.N,/VOUT*%
X93076848Y-100442848D03*
X98298000Y-101473000D03*
%TD*%
D27*
%TO.N,/VIN+*%
X92075000Y-106825000D02*
X92075000Y-108204000D01*
%TO.N,GND*%
X96520000Y-97155000D02*
X97917000Y-97155000D01*
X97935000Y-95250000D02*
X99187000Y-95250000D01*
X101600000Y-98830000D02*
X101600000Y-97282000D01*
X101600000Y-104370000D02*
X101600000Y-105918000D01*
X84005000Y-97340000D02*
X83947000Y-97282000D01*
X84005000Y-98830000D02*
X84005000Y-97340000D01*
X84005000Y-104370000D02*
X84050000Y-104370000D01*
X84074000Y-104394000D02*
X84074000Y-106045000D01*
X84050000Y-104370000D02*
X84074000Y-104394000D01*
X88755000Y-91585000D02*
X88900000Y-91440000D01*
X88755000Y-92710000D02*
X88755000Y-91585000D01*
X93595000Y-85983000D02*
X94361000Y-85217000D01*
X93595000Y-87475000D02*
X93595000Y-85983000D01*
X94361000Y-85217000D02*
X95758000Y-85217000D01*
X100457000Y-93091000D02*
X100330000Y-93218000D01*
X100457000Y-91966000D02*
X100457000Y-93091000D01*
X105504000Y-86962000D02*
X105537000Y-86995000D01*
X104643000Y-86962000D02*
X105504000Y-86962000D01*
X97935000Y-87630000D02*
X99060000Y-87630000D01*
D28*
X90170000Y-78540000D02*
X90170000Y-80010000D01*
D27*
X102870000Y-69850000D02*
X104140000Y-69850000D01*
X89559000Y-106259500D02*
X89535000Y-106235500D01*
X89559000Y-109225500D02*
X89559000Y-106259500D01*
X95099000Y-106259500D02*
X95186500Y-106172000D01*
X95099000Y-109225500D02*
X95099000Y-106259500D01*
X89852500Y-104965500D02*
X89852500Y-104838500D01*
X89852500Y-104838500D02*
X88646000Y-104838500D01*
%TO.N,VDD*%
X103693000Y-88942000D02*
X103693000Y-89662000D01*
X102743000Y-87992000D02*
X103693000Y-88942000D01*
X102743000Y-86962000D02*
X102743000Y-87992000D01*
X103865000Y-76980000D02*
X103375000Y-77470000D01*
X106045000Y-76980000D02*
X103865000Y-76980000D01*
D28*
X80010000Y-82550000D02*
X80645000Y-81915000D01*
X102667999Y-84887999D02*
X102667999Y-86962000D01*
X102235000Y-84455000D02*
X102667999Y-84887999D01*
X102057992Y-77470000D02*
X101600000Y-77012008D01*
X103375000Y-77470000D02*
X102057992Y-77470000D01*
X80645000Y-82550000D02*
X73660000Y-82550000D01*
X80010000Y-82550000D02*
X80645000Y-82550000D01*
X80645000Y-82550000D02*
X90805000Y-82550000D01*
X81360000Y-81200000D02*
X80010000Y-82550000D01*
X81360000Y-76835000D02*
X81360000Y-81200000D01*
D27*
%TO.N,-5V*%
X94095000Y-88425000D02*
X94095000Y-87475000D01*
X93620000Y-88900000D02*
X94095000Y-88425000D01*
X93345000Y-88900000D02*
X93620000Y-88900000D01*
X93094998Y-88900000D02*
X93345000Y-88900000D01*
X92595000Y-88400002D02*
X93094998Y-88900000D01*
X92595000Y-87475000D02*
X92595000Y-88400002D01*
X95730000Y-87475000D02*
X95885000Y-87630000D01*
X94095000Y-87475000D02*
X95730000Y-87475000D01*
D28*
X97830000Y-79335000D02*
X98425000Y-78740000D01*
X98425000Y-78740000D02*
X98425000Y-81280000D01*
D27*
X98570000Y-81280000D02*
X100475000Y-83185000D01*
X98425000Y-81280000D02*
X98570000Y-81280000D01*
X100475000Y-83185000D02*
X100475000Y-83675000D01*
D28*
X97216490Y-86229990D02*
X95885000Y-87561480D01*
X95885000Y-87561480D02*
X95885000Y-87630000D01*
X95885000Y-87630000D02*
X94615000Y-87630000D01*
X95290000Y-83120998D02*
X97216490Y-85047488D01*
X97216490Y-85047488D02*
X97216490Y-86229990D01*
X95290000Y-79335000D02*
X95290000Y-83120998D01*
X93980000Y-79335000D02*
X95290000Y-79335000D01*
X95290000Y-79335000D02*
X97830000Y-79335000D01*
D27*
X97790000Y-71900000D02*
X97790000Y-72390000D01*
X97790000Y-72390000D02*
X99060000Y-73660000D01*
D28*
X87550000Y-88900000D02*
X93345000Y-88900000D01*
X86280000Y-87630000D02*
X87550000Y-88900000D01*
X99060000Y-78740000D02*
X99695000Y-79375000D01*
X98425000Y-78740000D02*
X99060000Y-78740000D01*
D27*
%TO.N,Net-(C6-Pad1)*%
X93095000Y-86001000D02*
X93095000Y-87475000D01*
X92311000Y-85217000D02*
X93095000Y-86001000D01*
%TO.N,Net-(C7-Pad2)*%
X94280000Y-90325000D02*
X96665000Y-92710000D01*
X94095000Y-90325000D02*
X94280000Y-90325000D01*
%TO.N,Net-(C7-Pad1)*%
X93595000Y-91690000D02*
X93595000Y-90325000D01*
X94615000Y-92710000D02*
X93595000Y-91690000D01*
%TO.N,/-2.5V*%
X92075000Y-102885000D02*
X92075000Y-104775000D01*
D28*
X92419999Y-103505000D02*
X92075000Y-103160001D01*
X93345000Y-103505000D02*
X92419999Y-103505000D01*
X92075000Y-92710000D02*
X92595000Y-93230000D01*
X90805000Y-92710000D02*
X92075000Y-92710000D01*
D27*
X92595000Y-90690000D02*
X92595000Y-91960000D01*
X92595000Y-90325000D02*
X92595000Y-90690000D01*
X92595000Y-91960000D02*
X92595000Y-93230000D01*
X92595000Y-91595000D02*
X92595000Y-91960000D01*
D28*
X89535000Y-94680000D02*
X89535000Y-99060000D01*
X90805000Y-93410000D02*
X89535000Y-94680000D01*
X90805000Y-92710000D02*
X90805000Y-93410000D01*
D27*
X88835000Y-93980000D02*
X89535000Y-94680000D01*
X83185000Y-93980000D02*
X88835000Y-93980000D01*
%TO.N,Net-(C10-Pad1)*%
X94125000Y-95250000D02*
X95885000Y-95250000D01*
%TO.N,Net-(R1-Pad1)*%
X97790000Y-69850000D02*
X100330000Y-69850000D01*
%TO.N,/3V*%
X96520000Y-100890000D02*
X96475000Y-100935000D01*
X96520000Y-99205000D02*
X96520000Y-100890000D01*
X102743000Y-89662000D02*
X102743000Y-91440000D01*
D28*
X96883000Y-99568000D02*
X96520000Y-99205000D01*
X97917000Y-99568000D02*
X96883000Y-99568000D01*
D27*
X102489000Y-89916000D02*
X102743000Y-89662000D01*
X100457000Y-89916000D02*
X102489000Y-89916000D01*
%TO.N,/TC*%
X100475000Y-81280000D02*
X101600000Y-81280000D01*
X97155000Y-83185000D02*
X98425000Y-83185000D01*
X98425000Y-77470000D02*
X99400000Y-77470000D01*
X98425000Y-77470000D02*
X100330000Y-77470000D01*
X101500010Y-78640010D02*
X101600000Y-78640010D01*
X100330000Y-77470000D02*
X101500010Y-78640010D01*
X104775000Y-81280000D02*
X105410000Y-81915000D01*
X100475000Y-81280000D02*
X104775000Y-81280000D01*
%TO.N,/VOP-*%
X92060000Y-101600000D02*
X92075000Y-101585000D01*
X89680000Y-101600000D02*
X92060000Y-101600000D01*
X92960002Y-101585000D02*
X92075000Y-101585000D01*
X94125000Y-100420002D02*
X92960002Y-101585000D01*
X94125000Y-99060000D02*
X94125000Y-100420002D01*
X94125000Y-97155000D02*
X94125000Y-99060000D01*
%TO.N,/VOUT*%
X92075000Y-100935000D02*
X92075000Y-99060000D01*
X92075000Y-99060000D02*
X92075000Y-97155000D01*
X92075000Y-97155000D02*
X92075000Y-95250000D01*
X92584696Y-100935000D02*
X93076848Y-100442848D01*
X92075000Y-100935000D02*
X92584696Y-100935000D01*
X101473000Y-101473000D02*
X101600000Y-101600000D01*
X98298000Y-101473000D02*
X101473000Y-101473000D01*
D28*
%TO.N,/SwE*%
X92750000Y-75565000D02*
X90170000Y-75565000D01*
X93980000Y-74335000D02*
X92750000Y-75565000D01*
X95845000Y-76200000D02*
X98425000Y-76200000D01*
X93980000Y-74335000D02*
X95845000Y-76200000D01*
D27*
X88265000Y-73660000D02*
X90170000Y-75565000D01*
X88265000Y-68580000D02*
X88265000Y-73660000D01*
%TO.N,/VIN-*%
X84005000Y-101600000D02*
X87630000Y-101600000D01*
%TO.N,/VFB*%
X100330000Y-71900000D02*
X102870000Y-71900000D01*
X105873190Y-78740000D02*
X103375000Y-78740000D01*
X107070010Y-77543180D02*
X105873190Y-78740000D01*
X107070010Y-74366820D02*
X107070010Y-77543180D01*
X104603190Y-71900000D02*
X107070010Y-74366820D01*
X102870000Y-71900000D02*
X104603190Y-71900000D01*
D28*
%TO.N,/Ipk*%
X98425000Y-74930000D02*
X103375000Y-74930000D01*
X103375000Y-74930000D02*
X103375000Y-76200000D01*
X103375000Y-74930000D02*
X106045000Y-74930000D01*
D27*
X94615000Y-71120000D02*
X98425000Y-74930000D01*
X94615000Y-68580000D02*
X94615000Y-71120000D01*
%TO.N,/VIN+*%
X94170010Y-103163270D02*
X94170010Y-104594490D01*
X94170010Y-104594490D02*
X92329000Y-106435500D01*
X93241740Y-102235000D02*
X94170010Y-103163270D01*
X92329000Y-106435500D02*
X92329000Y-109225500D01*
X92075000Y-102235000D02*
X93241740Y-102235000D01*
%TD*%
M02*
