%TF.GenerationSoftware,KiCad,Pcbnew,(5.1.6-0-10_14)*%
%TF.CreationDate,2021-02-11T16:18:00-08:00*%
%TF.ProjectId,TIADevBoard,54494144-6576-4426-9f61-72642e6b6963,rev?*%
%TF.SameCoordinates,Original*%
%TF.FileFunction,Legend,Bot*%
%TF.FilePolarity,Positive*%
%FSLAX46Y46*%
G04 Gerber Fmt 4.6, Leading zero omitted, Abs format (unit mm)*
G04 Created by KiCad (PCBNEW (5.1.6-0-10_14)) date 2021-02-11 16:18:00*
%MOMM*%
%LPD*%
G01*
G04 APERTURE LIST*
%ADD10C,0.120000*%
%ADD11C,0.150000*%
G04 APERTURE END LIST*
D10*
%TO.C,R3*%
X91695748Y-98223000D02*
X92218252Y-98223000D01*
X91695748Y-99643000D02*
X92218252Y-99643000D01*
%TO.C,R2*%
X92200252Y-97738000D02*
X91677748Y-97738000D01*
X92200252Y-96318000D02*
X91677748Y-96318000D01*
%TO.C,R1*%
X91677748Y-92508000D02*
X92200252Y-92508000D01*
X91677748Y-93928000D02*
X92200252Y-93928000D01*
%TO.C,C1*%
X92200252Y-95833000D02*
X91677748Y-95833000D01*
X92200252Y-94413000D02*
X91677748Y-94413000D01*
%TO.C,R3*%
D11*
X95053666Y-99385380D02*
X95387000Y-98909190D01*
X95625095Y-99385380D02*
X95625095Y-98385380D01*
X95244142Y-98385380D01*
X95148904Y-98433000D01*
X95101285Y-98480619D01*
X95053666Y-98575857D01*
X95053666Y-98718714D01*
X95101285Y-98813952D01*
X95148904Y-98861571D01*
X95244142Y-98909190D01*
X95625095Y-98909190D01*
X94720333Y-98385380D02*
X94101285Y-98385380D01*
X94434619Y-98766333D01*
X94291761Y-98766333D01*
X94196523Y-98813952D01*
X94148904Y-98861571D01*
X94101285Y-98956809D01*
X94101285Y-99194904D01*
X94148904Y-99290142D01*
X94196523Y-99337761D01*
X94291761Y-99385380D01*
X94577476Y-99385380D01*
X94672714Y-99337761D01*
X94720333Y-99290142D01*
%TO.C,R2*%
X95035666Y-97480380D02*
X95369000Y-97004190D01*
X95607095Y-97480380D02*
X95607095Y-96480380D01*
X95226142Y-96480380D01*
X95130904Y-96528000D01*
X95083285Y-96575619D01*
X95035666Y-96670857D01*
X95035666Y-96813714D01*
X95083285Y-96908952D01*
X95130904Y-96956571D01*
X95226142Y-97004190D01*
X95607095Y-97004190D01*
X94654714Y-96575619D02*
X94607095Y-96528000D01*
X94511857Y-96480380D01*
X94273761Y-96480380D01*
X94178523Y-96528000D01*
X94130904Y-96575619D01*
X94083285Y-96670857D01*
X94083285Y-96766095D01*
X94130904Y-96908952D01*
X94702333Y-97480380D01*
X94083285Y-97480380D01*
%TO.C,R1*%
X95035666Y-93670380D02*
X95369000Y-93194190D01*
X95607095Y-93670380D02*
X95607095Y-92670380D01*
X95226142Y-92670380D01*
X95130904Y-92718000D01*
X95083285Y-92765619D01*
X95035666Y-92860857D01*
X95035666Y-93003714D01*
X95083285Y-93098952D01*
X95130904Y-93146571D01*
X95226142Y-93194190D01*
X95607095Y-93194190D01*
X94083285Y-93670380D02*
X94654714Y-93670380D01*
X94369000Y-93670380D02*
X94369000Y-92670380D01*
X94464238Y-92813238D01*
X94559476Y-92908476D01*
X94654714Y-92956095D01*
%TO.C,C1*%
X94890666Y-95480142D02*
X94938285Y-95527761D01*
X95081142Y-95575380D01*
X95176380Y-95575380D01*
X95319238Y-95527761D01*
X95414476Y-95432523D01*
X95462095Y-95337285D01*
X95509714Y-95146809D01*
X95509714Y-95003952D01*
X95462095Y-94813476D01*
X95414476Y-94718238D01*
X95319238Y-94623000D01*
X95176380Y-94575380D01*
X95081142Y-94575380D01*
X94938285Y-94623000D01*
X94890666Y-94670619D01*
X93938285Y-95575380D02*
X94509714Y-95575380D01*
X94224000Y-95575380D02*
X94224000Y-94575380D01*
X94319238Y-94718238D01*
X94414476Y-94813476D01*
X94509714Y-94861095D01*
%TD*%
M02*
