M48
; DRILL file {KiCad (5.1.6-0-10_14)} date Thursday, February 25, 2021 at 02:42:39 PM
; FORMAT={-:-/ absolute / inch / decimal}
; #@! TF.CreationDate,2021-02-25T14:42:39-08:00
; #@! TF.GenerationSoftware,Kicad,Pcbnew,(5.1.6-0-10_14)
; #@! TF.FileFunction,Plated,1,2,PTH
FMAT,2
INCH
T1C0.0157
T2C0.0394
T3C0.1213
%
G90
G05
T1
X3.49Y-4.3
X3.695Y-3.655
X3.75Y-3.9
X3.755Y-3.09
X3.8Y-3.0943
X3.8Y-3.91
X3.835Y-4.295
X3.84Y-2.955
X3.875Y-3.01
X4.025Y-3.92
X4.065Y-4.29
X4.135Y-3.255
X4.135Y-3.9
X4.14Y-3.96
X4.175Y-3.375
X4.3Y-3.02
X4.305Y-3.625
X4.31Y-3.24
X4.31Y-3.72
X4.38Y-3.68
X4.4Y-4.29
X4.54Y-3.68
T2
X3.525Y-2.975
X3.745Y-3.355
X3.285Y-3.18
X3.285Y-3.28
X3.285Y-3.38
X3.385Y-3.18
X3.385Y-3.28
X3.385Y-3.38
X4.005Y-3.355
X3.495Y-3.825
X4.065Y-3.585
X4.635Y-3.945
T3
X3.3Y-4.3
X3.3Y-2.975
X4.625Y-4.3
X4.625Y-2.975
T2
G00X4.415Y-3.4044
M15
G01X4.415Y-3.3256
M16
G05
G00X4.5764Y-3.176
M15
G01X4.4977Y-3.176
M16
G05
G00X4.6611Y-3.4044
M15
G01X4.6611Y-3.3256
M16
G05
T0
M30
