M48
; DRILL file {KiCad (5.1.6-0-10_14)} date Friday, January 15, 2021 at 10:59:35 AM
; FORMAT={-:-/ absolute / inch / decimal}
; #@! TF.CreationDate,2021-01-15T10:59:35-08:00
; #@! TF.GenerationSoftware,Kicad,Pcbnew,(5.1.6-0-10_14)
; #@! TF.FileFunction,Plated,1,2,PTH
FMAT,2
INCH
T1C0.0157
T2C0.0315
T3C0.0394
T4C0.0520
T5C0.1213
%
G90
G05
T1
X3.305Y-3.83
X3.31Y-4.175
X3.5Y-3.6
X3.525Y-3.9
X3.55Y-3.15
X3.575Y-3.25
X3.625Y-4.26
X3.6644Y-3.9544
X3.675Y-4.075
X3.7Y-4.025
X3.77Y-3.355
X3.825Y-3.275
X3.855Y-3.825
X3.855Y-3.92
X3.87Y-3.995
X3.9Y-2.9
X3.9Y-3.45
X3.905Y-3.75
X3.925Y-3.125
X3.95Y-3.67
X4.0Y-3.032
X4.0Y-3.0961
X4.0Y-3.2
X4.0Y-3.83
X4.0Y-4.17
X4.025Y-3.325
X4.045Y-3.6
X4.1Y-2.75
X4.155Y-3.425
T2
X3.2Y-3.45
X3.3969Y-3.45
X3.2031Y-3.025
X3.4Y-3.025
T3
X3.575Y-2.8
X3.275Y-3.7
X2.85Y-2.925
X2.85Y-3.025
X2.95Y-3.025
X4.15Y-3.225
X3.475Y-2.7
X3.725Y-2.7
X4.15Y-3.65
X2.95Y-2.925
X3.05Y-2.925
X3.05Y-3.025
T4
X2.875Y-3.25
X2.875Y-3.4469
T5
X4.4Y-2.75
X3.3Y-4.3
X2.9Y-2.75
X4.0Y-4.3
T0
M30
