%TF.GenerationSoftware,KiCad,Pcbnew,(5.1.6-0-10_14)*%
%TF.CreationDate,2021-02-11T16:18:00-08:00*%
%TF.ProjectId,TIADevBoard,54494144-6576-4426-9f61-72642e6b6963,rev?*%
%TF.SameCoordinates,Original*%
%TF.FileFunction,Paste,Top*%
%TF.FilePolarity,Positive*%
%FSLAX46Y46*%
G04 Gerber Fmt 4.6, Leading zero omitted, Abs format (unit mm)*
G04 Created by KiCad (PCBNEW (5.1.6-0-10_14)) date 2021-02-11 16:18:00*
%MOMM*%
%LPD*%
G01*
G04 APERTURE LIST*
%ADD10R,1.450000X0.450000*%
%ADD11R,1.600000X5.080000*%
%ADD12R,0.650000X1.560000*%
%ADD13R,5.080000X1.600000*%
G04 APERTURE END LIST*
D10*
%TO.C,U2*%
X94189000Y-100808000D03*
X94189000Y-101458000D03*
X94189000Y-102108000D03*
X94189000Y-102758000D03*
X89789000Y-102758000D03*
X89789000Y-102108000D03*
X89789000Y-101458000D03*
X89789000Y-100808000D03*
%TD*%
D11*
%TO.C,J5*%
X95099000Y-109225500D03*
X89559000Y-109225500D03*
X92329000Y-109225500D03*
%TD*%
%TO.C,C13*%
G36*
G01*
X97986001Y-94156000D02*
X97085999Y-94156000D01*
G75*
G02*
X96836000Y-93906001I0J249999D01*
G01*
X96836000Y-93255999D01*
G75*
G02*
X97085999Y-93006000I249999J0D01*
G01*
X97986001Y-93006000D01*
G75*
G02*
X98236000Y-93255999I0J-249999D01*
G01*
X98236000Y-93906001D01*
G75*
G02*
X97986001Y-94156000I-249999J0D01*
G01*
G37*
G36*
G01*
X97986001Y-96206000D02*
X97085999Y-96206000D01*
G75*
G02*
X96836000Y-95956001I0J249999D01*
G01*
X96836000Y-95305999D01*
G75*
G02*
X97085999Y-95056000I249999J0D01*
G01*
X97986001Y-95056000D01*
G75*
G02*
X98236000Y-95305999I0J-249999D01*
G01*
X98236000Y-95956001D01*
G75*
G02*
X97986001Y-96206000I-249999J0D01*
G01*
G37*
%TD*%
%TO.C,C11*%
G36*
G01*
X93783999Y-98503000D02*
X94684001Y-98503000D01*
G75*
G02*
X94934000Y-98752999I0J-249999D01*
G01*
X94934000Y-99403001D01*
G75*
G02*
X94684001Y-99653000I-249999J0D01*
G01*
X93783999Y-99653000D01*
G75*
G02*
X93534000Y-99403001I0J249999D01*
G01*
X93534000Y-98752999D01*
G75*
G02*
X93783999Y-98503000I249999J0D01*
G01*
G37*
G36*
G01*
X93783999Y-96453000D02*
X94684001Y-96453000D01*
G75*
G02*
X94934000Y-96702999I0J-249999D01*
G01*
X94934000Y-97353001D01*
G75*
G02*
X94684001Y-97603000I-249999J0D01*
G01*
X93783999Y-97603000D01*
G75*
G02*
X93534000Y-97353001I0J249999D01*
G01*
X93534000Y-96702999D01*
G75*
G02*
X93783999Y-96453000I249999J0D01*
G01*
G37*
%TD*%
D12*
%TO.C,U3*%
X100838000Y-93091000D03*
X99888000Y-93091000D03*
X101788000Y-93091000D03*
X101788000Y-95791000D03*
X100838000Y-95791000D03*
X99888000Y-95791000D03*
%TD*%
%TO.C,R6*%
G36*
G01*
X91264000Y-95573001D02*
X91264000Y-94672999D01*
G75*
G02*
X91513999Y-94423000I249999J0D01*
G01*
X92164001Y-94423000D01*
G75*
G02*
X92414000Y-94672999I0J-249999D01*
G01*
X92414000Y-95573001D01*
G75*
G02*
X92164001Y-95823000I-249999J0D01*
G01*
X91513999Y-95823000D01*
G75*
G02*
X91264000Y-95573001I0J249999D01*
G01*
G37*
G36*
G01*
X89214000Y-95573001D02*
X89214000Y-94672999D01*
G75*
G02*
X89463999Y-94423000I249999J0D01*
G01*
X90114001Y-94423000D01*
G75*
G02*
X90364000Y-94672999I0J-249999D01*
G01*
X90364000Y-95573001D01*
G75*
G02*
X90114001Y-95823000I-249999J0D01*
G01*
X89463999Y-95823000D01*
G75*
G02*
X89214000Y-95573001I0J249999D01*
G01*
G37*
%TD*%
%TO.C,R5*%
G36*
G01*
X91264000Y-99383001D02*
X91264000Y-98482999D01*
G75*
G02*
X91513999Y-98233000I249999J0D01*
G01*
X92164001Y-98233000D01*
G75*
G02*
X92414000Y-98482999I0J-249999D01*
G01*
X92414000Y-99383001D01*
G75*
G02*
X92164001Y-99633000I-249999J0D01*
G01*
X91513999Y-99633000D01*
G75*
G02*
X91264000Y-99383001I0J249999D01*
G01*
G37*
G36*
G01*
X89214000Y-99383001D02*
X89214000Y-98482999D01*
G75*
G02*
X89463999Y-98233000I249999J0D01*
G01*
X90114001Y-98233000D01*
G75*
G02*
X90364000Y-98482999I0J-249999D01*
G01*
X90364000Y-99383001D01*
G75*
G02*
X90114001Y-99633000I-249999J0D01*
G01*
X89463999Y-99633000D01*
G75*
G02*
X89214000Y-99383001I0J249999D01*
G01*
G37*
%TD*%
%TO.C,R4*%
G36*
G01*
X86925999Y-102567000D02*
X87826001Y-102567000D01*
G75*
G02*
X88076000Y-102816999I0J-249999D01*
G01*
X88076000Y-103467001D01*
G75*
G02*
X87826001Y-103717000I-249999J0D01*
G01*
X86925999Y-103717000D01*
G75*
G02*
X86676000Y-103467001I0J249999D01*
G01*
X86676000Y-102816999D01*
G75*
G02*
X86925999Y-102567000I249999J0D01*
G01*
G37*
G36*
G01*
X86925999Y-100517000D02*
X87826001Y-100517000D01*
G75*
G02*
X88076000Y-100766999I0J-249999D01*
G01*
X88076000Y-101417001D01*
G75*
G02*
X87826001Y-101667000I-249999J0D01*
G01*
X86925999Y-101667000D01*
G75*
G02*
X86676000Y-101417001I0J249999D01*
G01*
X86676000Y-100766999D01*
G75*
G02*
X86925999Y-100517000I249999J0D01*
G01*
G37*
%TD*%
D13*
%TO.C,J3*%
X101600000Y-98830000D03*
X101600000Y-104370000D03*
X101600000Y-101600000D03*
%TD*%
%TO.C,J2*%
X83566000Y-104370000D03*
X83566000Y-98830000D03*
X83566000Y-101600000D03*
%TD*%
%TO.C,C10*%
G36*
G01*
X95074000Y-95573001D02*
X95074000Y-94672999D01*
G75*
G02*
X95323999Y-94423000I249999J0D01*
G01*
X95974001Y-94423000D01*
G75*
G02*
X96224000Y-94672999I0J-249999D01*
G01*
X96224000Y-95573001D01*
G75*
G02*
X95974001Y-95823000I-249999J0D01*
G01*
X95323999Y-95823000D01*
G75*
G02*
X95074000Y-95573001I0J249999D01*
G01*
G37*
G36*
G01*
X93024000Y-95573001D02*
X93024000Y-94672999D01*
G75*
G02*
X93273999Y-94423000I249999J0D01*
G01*
X93924001Y-94423000D01*
G75*
G02*
X94174000Y-94672999I0J-249999D01*
G01*
X94174000Y-95573001D01*
G75*
G02*
X93924001Y-95823000I-249999J0D01*
G01*
X93273999Y-95823000D01*
G75*
G02*
X93024000Y-95573001I0J249999D01*
G01*
G37*
%TD*%
%TO.C,C9*%
G36*
G01*
X91264000Y-97478001D02*
X91264000Y-96577999D01*
G75*
G02*
X91513999Y-96328000I249999J0D01*
G01*
X92164001Y-96328000D01*
G75*
G02*
X92414000Y-96577999I0J-249999D01*
G01*
X92414000Y-97478001D01*
G75*
G02*
X92164001Y-97728000I-249999J0D01*
G01*
X91513999Y-97728000D01*
G75*
G02*
X91264000Y-97478001I0J249999D01*
G01*
G37*
G36*
G01*
X89214000Y-97478001D02*
X89214000Y-96577999D01*
G75*
G02*
X89463999Y-96328000I249999J0D01*
G01*
X90114001Y-96328000D01*
G75*
G02*
X90364000Y-96577999I0J-249999D01*
G01*
X90364000Y-97478001D01*
G75*
G02*
X90114001Y-97728000I-249999J0D01*
G01*
X89463999Y-97728000D01*
G75*
G02*
X89214000Y-97478001I0J249999D01*
G01*
G37*
%TD*%
M02*
