%TF.GenerationSoftware,KiCad,Pcbnew,(5.1.6-0-10_14)*%
%TF.CreationDate,2021-02-25T14:42:38-08:00*%
%TF.ProjectId,TIADevBoard,54494144-6576-4426-9f61-72642e6b6963,rev?*%
%TF.SameCoordinates,Original*%
%TF.FileFunction,Copper,L2,Bot*%
%TF.FilePolarity,Positive*%
%FSLAX46Y46*%
G04 Gerber Fmt 4.6, Leading zero omitted, Abs format (unit mm)*
G04 Created by KiCad (PCBNEW (5.1.6-0-10_14)) date 2021-02-25 14:42:38*
%MOMM*%
%LPD*%
G01*
G04 APERTURE LIST*
%TA.AperFunction,SMDPad,CuDef*%
%ADD10R,1.600000X5.080000*%
%TD*%
%TA.AperFunction,ComponentPad*%
%ADD11C,2.000000*%
%TD*%
%TA.AperFunction,ComponentPad*%
%ADD12R,3.500000X3.500000*%
%TD*%
%TA.AperFunction,ComponentPad*%
%ADD13O,1.700000X1.700000*%
%TD*%
%TA.AperFunction,ComponentPad*%
%ADD14R,1.700000X1.700000*%
%TD*%
%TA.AperFunction,ComponentPad*%
%ADD15C,4.000000*%
%TD*%
%TA.AperFunction,ViaPad*%
%ADD16C,0.800000*%
%TD*%
%TA.AperFunction,Conductor*%
%ADD17C,1.000000*%
%TD*%
%TA.AperFunction,Conductor*%
%ADD18C,0.250000*%
%TD*%
%TA.AperFunction,Conductor*%
%ADD19C,0.254000*%
%TD*%
G04 APERTURE END LIST*
D10*
%TO.P,J3,2*%
%TO.N,GND*%
X110188000Y-108966000D03*
X104648000Y-108966000D03*
%TD*%
D11*
%TO.P,TP6,1*%
%TO.N,Net-(CFF1-Pad2)*%
X89535000Y-75565000D03*
%TD*%
%TO.P,TP5,1*%
%TO.N,Net-(C3-Pad2)*%
X95123000Y-85217000D03*
%TD*%
%TO.P,TP4,1*%
%TO.N,/-9V_UF*%
X101727000Y-85217000D03*
%TD*%
%TO.P,TP3,1*%
%TO.N,-5V*%
X117729000Y-100203000D03*
%TD*%
%TO.P,TP2,1*%
%TO.N,-9V*%
X103251000Y-91059000D03*
%TD*%
%TO.P,J1,3*%
%TO.N,N/C*%
%TA.AperFunction,ComponentPad*%
G36*
G01*
X116991000Y-79796000D02*
X116991000Y-81546000D01*
G75*
G02*
X116116000Y-82421000I-875000J0D01*
G01*
X114366000Y-82421000D01*
G75*
G02*
X113491000Y-81546000I0J875000D01*
G01*
X113491000Y-79796000D01*
G75*
G02*
X114366000Y-78921000I875000J0D01*
G01*
X116116000Y-78921000D01*
G75*
G02*
X116991000Y-79796000I0J-875000D01*
G01*
G37*
%TD.AperFunction*%
%TO.P,J1,2*%
%TO.N,GND*%
%TA.AperFunction,ComponentPad*%
G36*
G01*
X119891000Y-84471000D02*
X119891000Y-86471000D01*
G75*
G02*
X119141000Y-87221000I-750000J0D01*
G01*
X117641000Y-87221000D01*
G75*
G02*
X116891000Y-86471000I0J750000D01*
G01*
X116891000Y-84471000D01*
G75*
G02*
X117641000Y-83721000I750000J0D01*
G01*
X119141000Y-83721000D01*
G75*
G02*
X119891000Y-84471000I0J-750000D01*
G01*
G37*
%TD.AperFunction*%
D12*
%TO.P,J1,1*%
%TO.N,VDD*%
X112141000Y-85471000D03*
%TD*%
D13*
%TO.P,J4,6*%
%TO.N,GND*%
X83439000Y-80772000D03*
%TO.P,J4,5*%
X85979000Y-80772000D03*
%TO.P,J4,4*%
X83439000Y-83312000D03*
%TO.P,J4,3*%
X85979000Y-83312000D03*
%TO.P,J4,2*%
X83439000Y-85852000D03*
D14*
%TO.P,J4,1*%
X85979000Y-85852000D03*
%TD*%
D11*
%TO.P,TP1,1*%
%TO.N,+5V*%
X88773000Y-97155000D03*
%TD*%
D10*
%TO.P,J2,2*%
%TO.N,GND*%
X95734000Y-109162000D03*
X90194000Y-109162000D03*
%TD*%
D15*
%TO.P,H4,1*%
%TO.N,N/C*%
X83820000Y-109220000D03*
%TD*%
%TO.P,H3,1*%
%TO.N,N/C*%
X117475000Y-109220000D03*
%TD*%
%TO.P,H2,1*%
%TO.N,N/C*%
X117475000Y-75565000D03*
%TD*%
%TO.P,H1,1*%
%TO.N,N/C*%
X83820000Y-75565000D03*
%TD*%
D16*
%TO.N,GND*%
X105156000Y-100584000D03*
X111252000Y-93472000D03*
X115316000Y-93472000D03*
X97536000Y-75057000D03*
X98425000Y-76454000D03*
X95250000Y-99060000D03*
X96520000Y-99314000D03*
X93853000Y-92837000D03*
X102235000Y-99568000D03*
X109220000Y-76708000D03*
X105029000Y-82677000D03*
X95377000Y-78486000D03*
X109347000Y-92075000D03*
X109474000Y-94488000D03*
X105029000Y-99060000D03*
X103251000Y-108966000D03*
X111760000Y-108966000D03*
X88646000Y-109220000D03*
X97409000Y-109093000D03*
%TO.N,/-9V_UF*%
X109474000Y-82296000D03*
%TO.N,VDD*%
X106045000Y-85725000D03*
%TO.N,Net-(CFF1-Pad2)*%
X96520000Y-78596002D03*
%TD*%
D17*
%TO.N,VDD*%
X112141000Y-85471000D02*
X106299000Y-85471000D01*
X106299000Y-85471000D02*
X106045000Y-85725000D01*
D18*
%TO.N,Net-(CFF1-Pad2)*%
X93488998Y-75565000D02*
X96520000Y-78596002D01*
X89535000Y-75565000D02*
X93488998Y-75565000D01*
%TD*%
D19*
%TO.N,GND*%
G36*
X116226859Y-73229893D02*
G01*
X115795285Y-73518262D01*
X115428262Y-73885285D01*
X115139893Y-74316859D01*
X114941261Y-74796399D01*
X114840000Y-75305475D01*
X114840000Y-75824525D01*
X114941261Y-76333601D01*
X115139893Y-76813141D01*
X115428262Y-77244715D01*
X115795285Y-77611738D01*
X116226859Y-77900107D01*
X116706399Y-78098739D01*
X117215475Y-78200000D01*
X117734525Y-78200000D01*
X118243601Y-78098739D01*
X118723141Y-77900107D01*
X119154715Y-77611738D01*
X119521738Y-77244715D01*
X119810107Y-76813141D01*
X119989502Y-76380043D01*
X119988663Y-83092547D01*
X119891000Y-83082928D01*
X118676750Y-83086000D01*
X118518000Y-83244750D01*
X118518000Y-85344000D01*
X118538000Y-85344000D01*
X118538000Y-85598000D01*
X118518000Y-85598000D01*
X118518000Y-87697250D01*
X118676750Y-87856000D01*
X119891000Y-87859072D01*
X119988068Y-87849512D01*
X119987953Y-88773000D01*
X94615000Y-88773000D01*
X94590224Y-88775440D01*
X94566399Y-88782667D01*
X94544443Y-88794403D01*
X94525197Y-88810197D01*
X94509403Y-88829443D01*
X94497667Y-88851399D01*
X94490440Y-88875224D01*
X94488000Y-88900000D01*
X94488000Y-90170000D01*
X94490440Y-90194776D01*
X94497667Y-90218601D01*
X94509403Y-90240557D01*
X94525197Y-90259803D01*
X94544443Y-90275597D01*
X94566399Y-90287333D01*
X94590224Y-90294560D01*
X94615000Y-90297000D01*
X101796920Y-90297000D01*
X101678832Y-90582088D01*
X101616000Y-90897967D01*
X101616000Y-91220033D01*
X101678832Y-91535912D01*
X101802082Y-91833463D01*
X101981013Y-92101252D01*
X102208748Y-92328987D01*
X102476537Y-92507918D01*
X102774088Y-92631168D01*
X103089967Y-92694000D01*
X103412033Y-92694000D01*
X103727912Y-92631168D01*
X104025463Y-92507918D01*
X104293252Y-92328987D01*
X104520987Y-92101252D01*
X104699918Y-91833463D01*
X104823168Y-91535912D01*
X104886000Y-91220033D01*
X104886000Y-90897967D01*
X104823168Y-90582088D01*
X104705080Y-90297000D01*
X119987762Y-90297000D01*
X119985500Y-108395295D01*
X119810107Y-107971859D01*
X119521738Y-107540285D01*
X119154715Y-107173262D01*
X118723141Y-106884893D01*
X118243601Y-106686261D01*
X117734525Y-106585000D01*
X117215475Y-106585000D01*
X116706399Y-106686261D01*
X116226859Y-106884893D01*
X115795285Y-107173262D01*
X115428262Y-107540285D01*
X115139893Y-107971859D01*
X114941261Y-108451399D01*
X114840000Y-108960475D01*
X114840000Y-109479525D01*
X114941261Y-109988601D01*
X115139893Y-110468141D01*
X115428262Y-110899715D01*
X115795285Y-111266738D01*
X116226859Y-111555107D01*
X116661159Y-111735000D01*
X111582107Y-111735000D01*
X111613812Y-111630482D01*
X111626072Y-111506000D01*
X111623000Y-109251750D01*
X111464250Y-109093000D01*
X110315000Y-109093000D01*
X110315000Y-109113000D01*
X110061000Y-109113000D01*
X110061000Y-109093000D01*
X108911750Y-109093000D01*
X108753000Y-109251750D01*
X108749928Y-111506000D01*
X108762188Y-111630482D01*
X108793893Y-111735000D01*
X106042107Y-111735000D01*
X106073812Y-111630482D01*
X106086072Y-111506000D01*
X106083000Y-109251750D01*
X105924250Y-109093000D01*
X104775000Y-109093000D01*
X104775000Y-109113000D01*
X104521000Y-109113000D01*
X104521000Y-109093000D01*
X103371750Y-109093000D01*
X103213000Y-109251750D01*
X103209928Y-111506000D01*
X103222188Y-111630482D01*
X103253893Y-111735000D01*
X97168822Y-111735000D01*
X97172072Y-111702000D01*
X97169000Y-109447750D01*
X97010250Y-109289000D01*
X95861000Y-109289000D01*
X95861000Y-109309000D01*
X95607000Y-109309000D01*
X95607000Y-109289000D01*
X94457750Y-109289000D01*
X94299000Y-109447750D01*
X94295928Y-111702000D01*
X94299178Y-111735000D01*
X91628822Y-111735000D01*
X91632072Y-111702000D01*
X91629000Y-109447750D01*
X91470250Y-109289000D01*
X90321000Y-109289000D01*
X90321000Y-109309000D01*
X90067000Y-109309000D01*
X90067000Y-109289000D01*
X88917750Y-109289000D01*
X88759000Y-109447750D01*
X88755928Y-111702000D01*
X88759178Y-111735000D01*
X84633841Y-111735000D01*
X85068141Y-111555107D01*
X85499715Y-111266738D01*
X85866738Y-110899715D01*
X86155107Y-110468141D01*
X86353739Y-109988601D01*
X86455000Y-109479525D01*
X86455000Y-108960475D01*
X86353739Y-108451399D01*
X86155107Y-107971859D01*
X85866738Y-107540285D01*
X85499715Y-107173262D01*
X85068141Y-106884893D01*
X84588601Y-106686261D01*
X84265538Y-106622000D01*
X88755928Y-106622000D01*
X88759000Y-108876250D01*
X88917750Y-109035000D01*
X90067000Y-109035000D01*
X90067000Y-106145750D01*
X90321000Y-106145750D01*
X90321000Y-109035000D01*
X91470250Y-109035000D01*
X91629000Y-108876250D01*
X91632072Y-106622000D01*
X94295928Y-106622000D01*
X94299000Y-108876250D01*
X94457750Y-109035000D01*
X95607000Y-109035000D01*
X95607000Y-106145750D01*
X95861000Y-106145750D01*
X95861000Y-109035000D01*
X97010250Y-109035000D01*
X97169000Y-108876250D01*
X97172072Y-106622000D01*
X97159812Y-106497518D01*
X97138118Y-106426000D01*
X103209928Y-106426000D01*
X103213000Y-108680250D01*
X103371750Y-108839000D01*
X104521000Y-108839000D01*
X104521000Y-105949750D01*
X104775000Y-105949750D01*
X104775000Y-108839000D01*
X105924250Y-108839000D01*
X106083000Y-108680250D01*
X106086072Y-106426000D01*
X108749928Y-106426000D01*
X108753000Y-108680250D01*
X108911750Y-108839000D01*
X110061000Y-108839000D01*
X110061000Y-105949750D01*
X110315000Y-105949750D01*
X110315000Y-108839000D01*
X111464250Y-108839000D01*
X111623000Y-108680250D01*
X111626072Y-106426000D01*
X111613812Y-106301518D01*
X111577502Y-106181820D01*
X111518537Y-106071506D01*
X111439185Y-105974815D01*
X111342494Y-105895463D01*
X111232180Y-105836498D01*
X111112482Y-105800188D01*
X110988000Y-105787928D01*
X110473750Y-105791000D01*
X110315000Y-105949750D01*
X110061000Y-105949750D01*
X109902250Y-105791000D01*
X109388000Y-105787928D01*
X109263518Y-105800188D01*
X109143820Y-105836498D01*
X109033506Y-105895463D01*
X108936815Y-105974815D01*
X108857463Y-106071506D01*
X108798498Y-106181820D01*
X108762188Y-106301518D01*
X108749928Y-106426000D01*
X106086072Y-106426000D01*
X106073812Y-106301518D01*
X106037502Y-106181820D01*
X105978537Y-106071506D01*
X105899185Y-105974815D01*
X105802494Y-105895463D01*
X105692180Y-105836498D01*
X105572482Y-105800188D01*
X105448000Y-105787928D01*
X104933750Y-105791000D01*
X104775000Y-105949750D01*
X104521000Y-105949750D01*
X104362250Y-105791000D01*
X103848000Y-105787928D01*
X103723518Y-105800188D01*
X103603820Y-105836498D01*
X103493506Y-105895463D01*
X103396815Y-105974815D01*
X103317463Y-106071506D01*
X103258498Y-106181820D01*
X103222188Y-106301518D01*
X103209928Y-106426000D01*
X97138118Y-106426000D01*
X97123502Y-106377820D01*
X97064537Y-106267506D01*
X96985185Y-106170815D01*
X96888494Y-106091463D01*
X96778180Y-106032498D01*
X96658482Y-105996188D01*
X96534000Y-105983928D01*
X96019750Y-105987000D01*
X95861000Y-106145750D01*
X95607000Y-106145750D01*
X95448250Y-105987000D01*
X94934000Y-105983928D01*
X94809518Y-105996188D01*
X94689820Y-106032498D01*
X94579506Y-106091463D01*
X94482815Y-106170815D01*
X94403463Y-106267506D01*
X94344498Y-106377820D01*
X94308188Y-106497518D01*
X94295928Y-106622000D01*
X91632072Y-106622000D01*
X91619812Y-106497518D01*
X91583502Y-106377820D01*
X91524537Y-106267506D01*
X91445185Y-106170815D01*
X91348494Y-106091463D01*
X91238180Y-106032498D01*
X91118482Y-105996188D01*
X90994000Y-105983928D01*
X90479750Y-105987000D01*
X90321000Y-106145750D01*
X90067000Y-106145750D01*
X89908250Y-105987000D01*
X89394000Y-105983928D01*
X89269518Y-105996188D01*
X89149820Y-106032498D01*
X89039506Y-106091463D01*
X88942815Y-106170815D01*
X88863463Y-106267506D01*
X88804498Y-106377820D01*
X88768188Y-106497518D01*
X88755928Y-106622000D01*
X84265538Y-106622000D01*
X84079525Y-106585000D01*
X83560475Y-106585000D01*
X83051399Y-106686261D01*
X82571859Y-106884893D01*
X82140285Y-107173262D01*
X81773262Y-107540285D01*
X81484893Y-107971859D01*
X81305000Y-108406159D01*
X81305000Y-100041967D01*
X116094000Y-100041967D01*
X116094000Y-100364033D01*
X116156832Y-100679912D01*
X116280082Y-100977463D01*
X116459013Y-101245252D01*
X116686748Y-101472987D01*
X116954537Y-101651918D01*
X117252088Y-101775168D01*
X117567967Y-101838000D01*
X117890033Y-101838000D01*
X118205912Y-101775168D01*
X118503463Y-101651918D01*
X118771252Y-101472987D01*
X118998987Y-101245252D01*
X119177918Y-100977463D01*
X119301168Y-100679912D01*
X119364000Y-100364033D01*
X119364000Y-100041967D01*
X119301168Y-99726088D01*
X119177918Y-99428537D01*
X118998987Y-99160748D01*
X118771252Y-98933013D01*
X118503463Y-98754082D01*
X118205912Y-98630832D01*
X117890033Y-98568000D01*
X117567967Y-98568000D01*
X117252088Y-98630832D01*
X116954537Y-98754082D01*
X116686748Y-98933013D01*
X116459013Y-99160748D01*
X116280082Y-99428537D01*
X116156832Y-99726088D01*
X116094000Y-100041967D01*
X81305000Y-100041967D01*
X81305000Y-96993967D01*
X87138000Y-96993967D01*
X87138000Y-97316033D01*
X87200832Y-97631912D01*
X87324082Y-97929463D01*
X87503013Y-98197252D01*
X87730748Y-98424987D01*
X87998537Y-98603918D01*
X88296088Y-98727168D01*
X88611967Y-98790000D01*
X88934033Y-98790000D01*
X89249912Y-98727168D01*
X89547463Y-98603918D01*
X89815252Y-98424987D01*
X90042987Y-98197252D01*
X90221918Y-97929463D01*
X90345168Y-97631912D01*
X90408000Y-97316033D01*
X90408000Y-96993967D01*
X90345168Y-96678088D01*
X90221918Y-96380537D01*
X90042987Y-96112748D01*
X89815252Y-95885013D01*
X89547463Y-95706082D01*
X89249912Y-95582832D01*
X88934033Y-95520000D01*
X88611967Y-95520000D01*
X88296088Y-95582832D01*
X87998537Y-95706082D01*
X87730748Y-95885013D01*
X87503013Y-96112748D01*
X87324082Y-96380537D01*
X87200832Y-96678088D01*
X87138000Y-96993967D01*
X81305000Y-96993967D01*
X81305000Y-90297000D01*
X93980000Y-90297000D01*
X94004776Y-90294560D01*
X94028601Y-90287333D01*
X94050557Y-90275597D01*
X94069803Y-90259803D01*
X94085597Y-90240557D01*
X94097333Y-90218601D01*
X94104560Y-90194776D01*
X94107000Y-90170000D01*
X94107000Y-88900000D01*
X94104560Y-88875224D01*
X94097333Y-88851399D01*
X94085597Y-88829443D01*
X94069803Y-88810197D01*
X94050557Y-88794403D01*
X94028601Y-88782667D01*
X94004776Y-88775440D01*
X93980000Y-88773000D01*
X81305000Y-88773000D01*
X81305000Y-86208890D01*
X81997524Y-86208890D01*
X82042175Y-86356099D01*
X82167359Y-86618920D01*
X82341412Y-86852269D01*
X82557645Y-87047178D01*
X82807748Y-87196157D01*
X83082109Y-87293481D01*
X83312000Y-87172814D01*
X83312000Y-85979000D01*
X83566000Y-85979000D01*
X83566000Y-87172814D01*
X83795891Y-87293481D01*
X84070252Y-87196157D01*
X84320355Y-87047178D01*
X84516502Y-86870374D01*
X84539498Y-86946180D01*
X84598463Y-87056494D01*
X84677815Y-87153185D01*
X84774506Y-87232537D01*
X84884820Y-87291502D01*
X85004518Y-87327812D01*
X85129000Y-87340072D01*
X85693250Y-87337000D01*
X85852000Y-87178250D01*
X85852000Y-85979000D01*
X86106000Y-85979000D01*
X86106000Y-87178250D01*
X86264750Y-87337000D01*
X86829000Y-87340072D01*
X86953482Y-87327812D01*
X87073180Y-87291502D01*
X87183494Y-87232537D01*
X87280185Y-87153185D01*
X87359537Y-87056494D01*
X87418502Y-86946180D01*
X87454812Y-86826482D01*
X87467072Y-86702000D01*
X87464000Y-86137750D01*
X87305250Y-85979000D01*
X86106000Y-85979000D01*
X85852000Y-85979000D01*
X83566000Y-85979000D01*
X83312000Y-85979000D01*
X82118845Y-85979000D01*
X81997524Y-86208890D01*
X81305000Y-86208890D01*
X81305000Y-83668890D01*
X81997524Y-83668890D01*
X82042175Y-83816099D01*
X82167359Y-84078920D01*
X82341412Y-84312269D01*
X82557645Y-84507178D01*
X82683255Y-84582000D01*
X82557645Y-84656822D01*
X82341412Y-84851731D01*
X82167359Y-85085080D01*
X82042175Y-85347901D01*
X81997524Y-85495110D01*
X82118845Y-85725000D01*
X83312000Y-85725000D01*
X83312000Y-83439000D01*
X83566000Y-83439000D01*
X83566000Y-85725000D01*
X85852000Y-85725000D01*
X85852000Y-83439000D01*
X86106000Y-83439000D01*
X86106000Y-85725000D01*
X87305250Y-85725000D01*
X87464000Y-85566250D01*
X87466778Y-85055967D01*
X93488000Y-85055967D01*
X93488000Y-85378033D01*
X93550832Y-85693912D01*
X93674082Y-85991463D01*
X93853013Y-86259252D01*
X94080748Y-86486987D01*
X94348537Y-86665918D01*
X94646088Y-86789168D01*
X94961967Y-86852000D01*
X95284033Y-86852000D01*
X95599912Y-86789168D01*
X95897463Y-86665918D01*
X96165252Y-86486987D01*
X96392987Y-86259252D01*
X96571918Y-85991463D01*
X96695168Y-85693912D01*
X96758000Y-85378033D01*
X96758000Y-85055967D01*
X100092000Y-85055967D01*
X100092000Y-85378033D01*
X100154832Y-85693912D01*
X100278082Y-85991463D01*
X100457013Y-86259252D01*
X100684748Y-86486987D01*
X100952537Y-86665918D01*
X101250088Y-86789168D01*
X101565967Y-86852000D01*
X101888033Y-86852000D01*
X102203912Y-86789168D01*
X102501463Y-86665918D01*
X102769252Y-86486987D01*
X102996987Y-86259252D01*
X103175918Y-85991463D01*
X103286290Y-85725000D01*
X104904509Y-85725000D01*
X104926423Y-85947498D01*
X104991324Y-86161446D01*
X105096717Y-86358622D01*
X105238552Y-86531448D01*
X105411378Y-86673283D01*
X105608554Y-86778676D01*
X105822502Y-86843577D01*
X106045000Y-86865491D01*
X106267498Y-86843577D01*
X106481446Y-86778676D01*
X106678622Y-86673283D01*
X106760607Y-86606000D01*
X109752928Y-86606000D01*
X109752928Y-87221000D01*
X109765188Y-87345482D01*
X109801498Y-87465180D01*
X109860463Y-87575494D01*
X109939815Y-87672185D01*
X110036506Y-87751537D01*
X110146820Y-87810502D01*
X110266518Y-87846812D01*
X110391000Y-87859072D01*
X113891000Y-87859072D01*
X114015482Y-87846812D01*
X114135180Y-87810502D01*
X114245494Y-87751537D01*
X114342185Y-87672185D01*
X114421537Y-87575494D01*
X114480502Y-87465180D01*
X114516812Y-87345482D01*
X114529072Y-87221000D01*
X116252928Y-87221000D01*
X116265188Y-87345482D01*
X116301498Y-87465180D01*
X116360463Y-87575494D01*
X116439815Y-87672185D01*
X116536506Y-87751537D01*
X116646820Y-87810502D01*
X116766518Y-87846812D01*
X116891000Y-87859072D01*
X118105250Y-87856000D01*
X118264000Y-87697250D01*
X118264000Y-85598000D01*
X116414750Y-85598000D01*
X116256000Y-85756750D01*
X116252928Y-87221000D01*
X114529072Y-87221000D01*
X114529072Y-83721000D01*
X116252928Y-83721000D01*
X116256000Y-85185250D01*
X116414750Y-85344000D01*
X118264000Y-85344000D01*
X118264000Y-83244750D01*
X118105250Y-83086000D01*
X116891000Y-83082928D01*
X116766518Y-83095188D01*
X116646820Y-83131498D01*
X116536506Y-83190463D01*
X116439815Y-83269815D01*
X116360463Y-83366506D01*
X116301498Y-83476820D01*
X116265188Y-83596518D01*
X116252928Y-83721000D01*
X114529072Y-83721000D01*
X114516812Y-83596518D01*
X114480502Y-83476820D01*
X114421537Y-83366506D01*
X114342185Y-83269815D01*
X114245494Y-83190463D01*
X114135180Y-83131498D01*
X114015482Y-83095188D01*
X113891000Y-83082928D01*
X110391000Y-83082928D01*
X110266518Y-83095188D01*
X110146820Y-83131498D01*
X110036506Y-83190463D01*
X109939815Y-83269815D01*
X109860463Y-83366506D01*
X109801498Y-83476820D01*
X109765188Y-83596518D01*
X109752928Y-83721000D01*
X109752928Y-84336000D01*
X106354741Y-84336000D01*
X106298999Y-84330510D01*
X106243257Y-84336000D01*
X106243248Y-84336000D01*
X106076501Y-84352423D01*
X105862553Y-84417324D01*
X105665377Y-84522716D01*
X105492551Y-84664551D01*
X105457004Y-84707865D01*
X105203012Y-84961857D01*
X105096717Y-85091378D01*
X104991324Y-85288554D01*
X104926423Y-85502502D01*
X104904509Y-85725000D01*
X103286290Y-85725000D01*
X103299168Y-85693912D01*
X103362000Y-85378033D01*
X103362000Y-85055967D01*
X103299168Y-84740088D01*
X103175918Y-84442537D01*
X102996987Y-84174748D01*
X102769252Y-83947013D01*
X102501463Y-83768082D01*
X102203912Y-83644832D01*
X101888033Y-83582000D01*
X101565967Y-83582000D01*
X101250088Y-83644832D01*
X100952537Y-83768082D01*
X100684748Y-83947013D01*
X100457013Y-84174748D01*
X100278082Y-84442537D01*
X100154832Y-84740088D01*
X100092000Y-85055967D01*
X96758000Y-85055967D01*
X96695168Y-84740088D01*
X96571918Y-84442537D01*
X96392987Y-84174748D01*
X96165252Y-83947013D01*
X95897463Y-83768082D01*
X95599912Y-83644832D01*
X95284033Y-83582000D01*
X94961967Y-83582000D01*
X94646088Y-83644832D01*
X94348537Y-83768082D01*
X94080748Y-83947013D01*
X93853013Y-84174748D01*
X93674082Y-84442537D01*
X93550832Y-84740088D01*
X93488000Y-85055967D01*
X87466778Y-85055967D01*
X87467072Y-85002000D01*
X87454812Y-84877518D01*
X87418502Y-84757820D01*
X87359537Y-84647506D01*
X87280185Y-84550815D01*
X87183494Y-84471463D01*
X87073180Y-84412498D01*
X86992534Y-84388034D01*
X87076588Y-84312269D01*
X87250641Y-84078920D01*
X87375825Y-83816099D01*
X87420476Y-83668890D01*
X87299155Y-83439000D01*
X86106000Y-83439000D01*
X85852000Y-83439000D01*
X83566000Y-83439000D01*
X83312000Y-83439000D01*
X82118845Y-83439000D01*
X81997524Y-83668890D01*
X81305000Y-83668890D01*
X81305000Y-81128890D01*
X81997524Y-81128890D01*
X82042175Y-81276099D01*
X82167359Y-81538920D01*
X82341412Y-81772269D01*
X82557645Y-81967178D01*
X82683255Y-82042000D01*
X82557645Y-82116822D01*
X82341412Y-82311731D01*
X82167359Y-82545080D01*
X82042175Y-82807901D01*
X81997524Y-82955110D01*
X82118845Y-83185000D01*
X83312000Y-83185000D01*
X83312000Y-80899000D01*
X83566000Y-80899000D01*
X83566000Y-83185000D01*
X85852000Y-83185000D01*
X85852000Y-80899000D01*
X86106000Y-80899000D01*
X86106000Y-83185000D01*
X87299155Y-83185000D01*
X87420476Y-82955110D01*
X87375825Y-82807901D01*
X87250641Y-82545080D01*
X87076588Y-82311731D01*
X86946045Y-82194061D01*
X108439000Y-82194061D01*
X108439000Y-82397939D01*
X108478774Y-82597898D01*
X108556795Y-82786256D01*
X108670063Y-82955774D01*
X108814226Y-83099937D01*
X108983744Y-83213205D01*
X109172102Y-83291226D01*
X109372061Y-83331000D01*
X109575939Y-83331000D01*
X109775898Y-83291226D01*
X109964256Y-83213205D01*
X110133774Y-83099937D01*
X110277937Y-82955774D01*
X110391205Y-82786256D01*
X110469226Y-82597898D01*
X110509000Y-82397939D01*
X110509000Y-82194061D01*
X110469226Y-81994102D01*
X110391205Y-81805744D01*
X110277937Y-81636226D01*
X110133774Y-81492063D01*
X109964256Y-81378795D01*
X109775898Y-81300774D01*
X109575939Y-81261000D01*
X109372061Y-81261000D01*
X109172102Y-81300774D01*
X108983744Y-81378795D01*
X108814226Y-81492063D01*
X108670063Y-81636226D01*
X108556795Y-81805744D01*
X108478774Y-81994102D01*
X108439000Y-82194061D01*
X86946045Y-82194061D01*
X86860355Y-82116822D01*
X86734745Y-82042000D01*
X86860355Y-81967178D01*
X87076588Y-81772269D01*
X87250641Y-81538920D01*
X87375825Y-81276099D01*
X87420476Y-81128890D01*
X87299155Y-80899000D01*
X86106000Y-80899000D01*
X85852000Y-80899000D01*
X83566000Y-80899000D01*
X83312000Y-80899000D01*
X82118845Y-80899000D01*
X81997524Y-81128890D01*
X81305000Y-81128890D01*
X81305000Y-80415110D01*
X81997524Y-80415110D01*
X82118845Y-80645000D01*
X83312000Y-80645000D01*
X83312000Y-79451186D01*
X83566000Y-79451186D01*
X83566000Y-80645000D01*
X85852000Y-80645000D01*
X85852000Y-79451186D01*
X86106000Y-79451186D01*
X86106000Y-80645000D01*
X87299155Y-80645000D01*
X87420476Y-80415110D01*
X87375825Y-80267901D01*
X87250641Y-80005080D01*
X87094691Y-79796000D01*
X112852928Y-79796000D01*
X112852928Y-81546000D01*
X112882001Y-81841186D01*
X112968104Y-82125028D01*
X113107927Y-82386618D01*
X113296097Y-82615903D01*
X113525382Y-82804073D01*
X113786972Y-82943896D01*
X114070814Y-83029999D01*
X114366000Y-83059072D01*
X116116000Y-83059072D01*
X116411186Y-83029999D01*
X116695028Y-82943896D01*
X116956618Y-82804073D01*
X117185903Y-82615903D01*
X117374073Y-82386618D01*
X117513896Y-82125028D01*
X117599999Y-81841186D01*
X117629072Y-81546000D01*
X117629072Y-79796000D01*
X117599999Y-79500814D01*
X117513896Y-79216972D01*
X117374073Y-78955382D01*
X117185903Y-78726097D01*
X116956618Y-78537927D01*
X116695028Y-78398104D01*
X116411186Y-78312001D01*
X116116000Y-78282928D01*
X114366000Y-78282928D01*
X114070814Y-78312001D01*
X113786972Y-78398104D01*
X113525382Y-78537927D01*
X113296097Y-78726097D01*
X113107927Y-78955382D01*
X112968104Y-79216972D01*
X112882001Y-79500814D01*
X112852928Y-79796000D01*
X87094691Y-79796000D01*
X87076588Y-79771731D01*
X86860355Y-79576822D01*
X86610252Y-79427843D01*
X86335891Y-79330519D01*
X86106000Y-79451186D01*
X85852000Y-79451186D01*
X85622109Y-79330519D01*
X85347748Y-79427843D01*
X85097645Y-79576822D01*
X84881412Y-79771731D01*
X84709000Y-80002880D01*
X84536588Y-79771731D01*
X84320355Y-79576822D01*
X84070252Y-79427843D01*
X83795891Y-79330519D01*
X83566000Y-79451186D01*
X83312000Y-79451186D01*
X83082109Y-79330519D01*
X82807748Y-79427843D01*
X82557645Y-79576822D01*
X82341412Y-79771731D01*
X82167359Y-80005080D01*
X82042175Y-80267901D01*
X81997524Y-80415110D01*
X81305000Y-80415110D01*
X81305000Y-76378841D01*
X81484893Y-76813141D01*
X81773262Y-77244715D01*
X82140285Y-77611738D01*
X82571859Y-77900107D01*
X83051399Y-78098739D01*
X83560475Y-78200000D01*
X84079525Y-78200000D01*
X84588601Y-78098739D01*
X85068141Y-77900107D01*
X85499715Y-77611738D01*
X85866738Y-77244715D01*
X86155107Y-76813141D01*
X86353739Y-76333601D01*
X86455000Y-75824525D01*
X86455000Y-75403967D01*
X87900000Y-75403967D01*
X87900000Y-75726033D01*
X87962832Y-76041912D01*
X88086082Y-76339463D01*
X88265013Y-76607252D01*
X88492748Y-76834987D01*
X88760537Y-77013918D01*
X89058088Y-77137168D01*
X89373967Y-77200000D01*
X89696033Y-77200000D01*
X90011912Y-77137168D01*
X90309463Y-77013918D01*
X90577252Y-76834987D01*
X90804987Y-76607252D01*
X90983918Y-76339463D01*
X90989909Y-76325000D01*
X93174197Y-76325000D01*
X95485000Y-78635804D01*
X95485000Y-78697941D01*
X95524774Y-78897900D01*
X95602795Y-79086258D01*
X95716063Y-79255776D01*
X95860226Y-79399939D01*
X96029744Y-79513207D01*
X96218102Y-79591228D01*
X96418061Y-79631002D01*
X96621939Y-79631002D01*
X96821898Y-79591228D01*
X97010256Y-79513207D01*
X97179774Y-79399939D01*
X97323937Y-79255776D01*
X97437205Y-79086258D01*
X97515226Y-78897900D01*
X97555000Y-78697941D01*
X97555000Y-78494063D01*
X97515226Y-78294104D01*
X97437205Y-78105746D01*
X97323937Y-77936228D01*
X97179774Y-77792065D01*
X97010256Y-77678797D01*
X96821898Y-77600776D01*
X96621939Y-77561002D01*
X96559802Y-77561002D01*
X94052802Y-75054003D01*
X94028999Y-75024999D01*
X93913274Y-74930026D01*
X93781245Y-74859454D01*
X93637984Y-74815997D01*
X93526331Y-74805000D01*
X93526320Y-74805000D01*
X93488998Y-74801324D01*
X93451676Y-74805000D01*
X90989909Y-74805000D01*
X90983918Y-74790537D01*
X90804987Y-74522748D01*
X90577252Y-74295013D01*
X90309463Y-74116082D01*
X90011912Y-73992832D01*
X89696033Y-73930000D01*
X89373967Y-73930000D01*
X89058088Y-73992832D01*
X88760537Y-74116082D01*
X88492748Y-74295013D01*
X88265013Y-74522748D01*
X88086082Y-74790537D01*
X87962832Y-75088088D01*
X87900000Y-75403967D01*
X86455000Y-75403967D01*
X86455000Y-75305475D01*
X86353739Y-74796399D01*
X86155107Y-74316859D01*
X85866738Y-73885285D01*
X85499715Y-73518262D01*
X85068141Y-73229893D01*
X84633841Y-73050000D01*
X116661159Y-73050000D01*
X116226859Y-73229893D01*
G37*
X116226859Y-73229893D02*
X115795285Y-73518262D01*
X115428262Y-73885285D01*
X115139893Y-74316859D01*
X114941261Y-74796399D01*
X114840000Y-75305475D01*
X114840000Y-75824525D01*
X114941261Y-76333601D01*
X115139893Y-76813141D01*
X115428262Y-77244715D01*
X115795285Y-77611738D01*
X116226859Y-77900107D01*
X116706399Y-78098739D01*
X117215475Y-78200000D01*
X117734525Y-78200000D01*
X118243601Y-78098739D01*
X118723141Y-77900107D01*
X119154715Y-77611738D01*
X119521738Y-77244715D01*
X119810107Y-76813141D01*
X119989502Y-76380043D01*
X119988663Y-83092547D01*
X119891000Y-83082928D01*
X118676750Y-83086000D01*
X118518000Y-83244750D01*
X118518000Y-85344000D01*
X118538000Y-85344000D01*
X118538000Y-85598000D01*
X118518000Y-85598000D01*
X118518000Y-87697250D01*
X118676750Y-87856000D01*
X119891000Y-87859072D01*
X119988068Y-87849512D01*
X119987953Y-88773000D01*
X94615000Y-88773000D01*
X94590224Y-88775440D01*
X94566399Y-88782667D01*
X94544443Y-88794403D01*
X94525197Y-88810197D01*
X94509403Y-88829443D01*
X94497667Y-88851399D01*
X94490440Y-88875224D01*
X94488000Y-88900000D01*
X94488000Y-90170000D01*
X94490440Y-90194776D01*
X94497667Y-90218601D01*
X94509403Y-90240557D01*
X94525197Y-90259803D01*
X94544443Y-90275597D01*
X94566399Y-90287333D01*
X94590224Y-90294560D01*
X94615000Y-90297000D01*
X101796920Y-90297000D01*
X101678832Y-90582088D01*
X101616000Y-90897967D01*
X101616000Y-91220033D01*
X101678832Y-91535912D01*
X101802082Y-91833463D01*
X101981013Y-92101252D01*
X102208748Y-92328987D01*
X102476537Y-92507918D01*
X102774088Y-92631168D01*
X103089967Y-92694000D01*
X103412033Y-92694000D01*
X103727912Y-92631168D01*
X104025463Y-92507918D01*
X104293252Y-92328987D01*
X104520987Y-92101252D01*
X104699918Y-91833463D01*
X104823168Y-91535912D01*
X104886000Y-91220033D01*
X104886000Y-90897967D01*
X104823168Y-90582088D01*
X104705080Y-90297000D01*
X119987762Y-90297000D01*
X119985500Y-108395295D01*
X119810107Y-107971859D01*
X119521738Y-107540285D01*
X119154715Y-107173262D01*
X118723141Y-106884893D01*
X118243601Y-106686261D01*
X117734525Y-106585000D01*
X117215475Y-106585000D01*
X116706399Y-106686261D01*
X116226859Y-106884893D01*
X115795285Y-107173262D01*
X115428262Y-107540285D01*
X115139893Y-107971859D01*
X114941261Y-108451399D01*
X114840000Y-108960475D01*
X114840000Y-109479525D01*
X114941261Y-109988601D01*
X115139893Y-110468141D01*
X115428262Y-110899715D01*
X115795285Y-111266738D01*
X116226859Y-111555107D01*
X116661159Y-111735000D01*
X111582107Y-111735000D01*
X111613812Y-111630482D01*
X111626072Y-111506000D01*
X111623000Y-109251750D01*
X111464250Y-109093000D01*
X110315000Y-109093000D01*
X110315000Y-109113000D01*
X110061000Y-109113000D01*
X110061000Y-109093000D01*
X108911750Y-109093000D01*
X108753000Y-109251750D01*
X108749928Y-111506000D01*
X108762188Y-111630482D01*
X108793893Y-111735000D01*
X106042107Y-111735000D01*
X106073812Y-111630482D01*
X106086072Y-111506000D01*
X106083000Y-109251750D01*
X105924250Y-109093000D01*
X104775000Y-109093000D01*
X104775000Y-109113000D01*
X104521000Y-109113000D01*
X104521000Y-109093000D01*
X103371750Y-109093000D01*
X103213000Y-109251750D01*
X103209928Y-111506000D01*
X103222188Y-111630482D01*
X103253893Y-111735000D01*
X97168822Y-111735000D01*
X97172072Y-111702000D01*
X97169000Y-109447750D01*
X97010250Y-109289000D01*
X95861000Y-109289000D01*
X95861000Y-109309000D01*
X95607000Y-109309000D01*
X95607000Y-109289000D01*
X94457750Y-109289000D01*
X94299000Y-109447750D01*
X94295928Y-111702000D01*
X94299178Y-111735000D01*
X91628822Y-111735000D01*
X91632072Y-111702000D01*
X91629000Y-109447750D01*
X91470250Y-109289000D01*
X90321000Y-109289000D01*
X90321000Y-109309000D01*
X90067000Y-109309000D01*
X90067000Y-109289000D01*
X88917750Y-109289000D01*
X88759000Y-109447750D01*
X88755928Y-111702000D01*
X88759178Y-111735000D01*
X84633841Y-111735000D01*
X85068141Y-111555107D01*
X85499715Y-111266738D01*
X85866738Y-110899715D01*
X86155107Y-110468141D01*
X86353739Y-109988601D01*
X86455000Y-109479525D01*
X86455000Y-108960475D01*
X86353739Y-108451399D01*
X86155107Y-107971859D01*
X85866738Y-107540285D01*
X85499715Y-107173262D01*
X85068141Y-106884893D01*
X84588601Y-106686261D01*
X84265538Y-106622000D01*
X88755928Y-106622000D01*
X88759000Y-108876250D01*
X88917750Y-109035000D01*
X90067000Y-109035000D01*
X90067000Y-106145750D01*
X90321000Y-106145750D01*
X90321000Y-109035000D01*
X91470250Y-109035000D01*
X91629000Y-108876250D01*
X91632072Y-106622000D01*
X94295928Y-106622000D01*
X94299000Y-108876250D01*
X94457750Y-109035000D01*
X95607000Y-109035000D01*
X95607000Y-106145750D01*
X95861000Y-106145750D01*
X95861000Y-109035000D01*
X97010250Y-109035000D01*
X97169000Y-108876250D01*
X97172072Y-106622000D01*
X97159812Y-106497518D01*
X97138118Y-106426000D01*
X103209928Y-106426000D01*
X103213000Y-108680250D01*
X103371750Y-108839000D01*
X104521000Y-108839000D01*
X104521000Y-105949750D01*
X104775000Y-105949750D01*
X104775000Y-108839000D01*
X105924250Y-108839000D01*
X106083000Y-108680250D01*
X106086072Y-106426000D01*
X108749928Y-106426000D01*
X108753000Y-108680250D01*
X108911750Y-108839000D01*
X110061000Y-108839000D01*
X110061000Y-105949750D01*
X110315000Y-105949750D01*
X110315000Y-108839000D01*
X111464250Y-108839000D01*
X111623000Y-108680250D01*
X111626072Y-106426000D01*
X111613812Y-106301518D01*
X111577502Y-106181820D01*
X111518537Y-106071506D01*
X111439185Y-105974815D01*
X111342494Y-105895463D01*
X111232180Y-105836498D01*
X111112482Y-105800188D01*
X110988000Y-105787928D01*
X110473750Y-105791000D01*
X110315000Y-105949750D01*
X110061000Y-105949750D01*
X109902250Y-105791000D01*
X109388000Y-105787928D01*
X109263518Y-105800188D01*
X109143820Y-105836498D01*
X109033506Y-105895463D01*
X108936815Y-105974815D01*
X108857463Y-106071506D01*
X108798498Y-106181820D01*
X108762188Y-106301518D01*
X108749928Y-106426000D01*
X106086072Y-106426000D01*
X106073812Y-106301518D01*
X106037502Y-106181820D01*
X105978537Y-106071506D01*
X105899185Y-105974815D01*
X105802494Y-105895463D01*
X105692180Y-105836498D01*
X105572482Y-105800188D01*
X105448000Y-105787928D01*
X104933750Y-105791000D01*
X104775000Y-105949750D01*
X104521000Y-105949750D01*
X104362250Y-105791000D01*
X103848000Y-105787928D01*
X103723518Y-105800188D01*
X103603820Y-105836498D01*
X103493506Y-105895463D01*
X103396815Y-105974815D01*
X103317463Y-106071506D01*
X103258498Y-106181820D01*
X103222188Y-106301518D01*
X103209928Y-106426000D01*
X97138118Y-106426000D01*
X97123502Y-106377820D01*
X97064537Y-106267506D01*
X96985185Y-106170815D01*
X96888494Y-106091463D01*
X96778180Y-106032498D01*
X96658482Y-105996188D01*
X96534000Y-105983928D01*
X96019750Y-105987000D01*
X95861000Y-106145750D01*
X95607000Y-106145750D01*
X95448250Y-105987000D01*
X94934000Y-105983928D01*
X94809518Y-105996188D01*
X94689820Y-106032498D01*
X94579506Y-106091463D01*
X94482815Y-106170815D01*
X94403463Y-106267506D01*
X94344498Y-106377820D01*
X94308188Y-106497518D01*
X94295928Y-106622000D01*
X91632072Y-106622000D01*
X91619812Y-106497518D01*
X91583502Y-106377820D01*
X91524537Y-106267506D01*
X91445185Y-106170815D01*
X91348494Y-106091463D01*
X91238180Y-106032498D01*
X91118482Y-105996188D01*
X90994000Y-105983928D01*
X90479750Y-105987000D01*
X90321000Y-106145750D01*
X90067000Y-106145750D01*
X89908250Y-105987000D01*
X89394000Y-105983928D01*
X89269518Y-105996188D01*
X89149820Y-106032498D01*
X89039506Y-106091463D01*
X88942815Y-106170815D01*
X88863463Y-106267506D01*
X88804498Y-106377820D01*
X88768188Y-106497518D01*
X88755928Y-106622000D01*
X84265538Y-106622000D01*
X84079525Y-106585000D01*
X83560475Y-106585000D01*
X83051399Y-106686261D01*
X82571859Y-106884893D01*
X82140285Y-107173262D01*
X81773262Y-107540285D01*
X81484893Y-107971859D01*
X81305000Y-108406159D01*
X81305000Y-100041967D01*
X116094000Y-100041967D01*
X116094000Y-100364033D01*
X116156832Y-100679912D01*
X116280082Y-100977463D01*
X116459013Y-101245252D01*
X116686748Y-101472987D01*
X116954537Y-101651918D01*
X117252088Y-101775168D01*
X117567967Y-101838000D01*
X117890033Y-101838000D01*
X118205912Y-101775168D01*
X118503463Y-101651918D01*
X118771252Y-101472987D01*
X118998987Y-101245252D01*
X119177918Y-100977463D01*
X119301168Y-100679912D01*
X119364000Y-100364033D01*
X119364000Y-100041967D01*
X119301168Y-99726088D01*
X119177918Y-99428537D01*
X118998987Y-99160748D01*
X118771252Y-98933013D01*
X118503463Y-98754082D01*
X118205912Y-98630832D01*
X117890033Y-98568000D01*
X117567967Y-98568000D01*
X117252088Y-98630832D01*
X116954537Y-98754082D01*
X116686748Y-98933013D01*
X116459013Y-99160748D01*
X116280082Y-99428537D01*
X116156832Y-99726088D01*
X116094000Y-100041967D01*
X81305000Y-100041967D01*
X81305000Y-96993967D01*
X87138000Y-96993967D01*
X87138000Y-97316033D01*
X87200832Y-97631912D01*
X87324082Y-97929463D01*
X87503013Y-98197252D01*
X87730748Y-98424987D01*
X87998537Y-98603918D01*
X88296088Y-98727168D01*
X88611967Y-98790000D01*
X88934033Y-98790000D01*
X89249912Y-98727168D01*
X89547463Y-98603918D01*
X89815252Y-98424987D01*
X90042987Y-98197252D01*
X90221918Y-97929463D01*
X90345168Y-97631912D01*
X90408000Y-97316033D01*
X90408000Y-96993967D01*
X90345168Y-96678088D01*
X90221918Y-96380537D01*
X90042987Y-96112748D01*
X89815252Y-95885013D01*
X89547463Y-95706082D01*
X89249912Y-95582832D01*
X88934033Y-95520000D01*
X88611967Y-95520000D01*
X88296088Y-95582832D01*
X87998537Y-95706082D01*
X87730748Y-95885013D01*
X87503013Y-96112748D01*
X87324082Y-96380537D01*
X87200832Y-96678088D01*
X87138000Y-96993967D01*
X81305000Y-96993967D01*
X81305000Y-90297000D01*
X93980000Y-90297000D01*
X94004776Y-90294560D01*
X94028601Y-90287333D01*
X94050557Y-90275597D01*
X94069803Y-90259803D01*
X94085597Y-90240557D01*
X94097333Y-90218601D01*
X94104560Y-90194776D01*
X94107000Y-90170000D01*
X94107000Y-88900000D01*
X94104560Y-88875224D01*
X94097333Y-88851399D01*
X94085597Y-88829443D01*
X94069803Y-88810197D01*
X94050557Y-88794403D01*
X94028601Y-88782667D01*
X94004776Y-88775440D01*
X93980000Y-88773000D01*
X81305000Y-88773000D01*
X81305000Y-86208890D01*
X81997524Y-86208890D01*
X82042175Y-86356099D01*
X82167359Y-86618920D01*
X82341412Y-86852269D01*
X82557645Y-87047178D01*
X82807748Y-87196157D01*
X83082109Y-87293481D01*
X83312000Y-87172814D01*
X83312000Y-85979000D01*
X83566000Y-85979000D01*
X83566000Y-87172814D01*
X83795891Y-87293481D01*
X84070252Y-87196157D01*
X84320355Y-87047178D01*
X84516502Y-86870374D01*
X84539498Y-86946180D01*
X84598463Y-87056494D01*
X84677815Y-87153185D01*
X84774506Y-87232537D01*
X84884820Y-87291502D01*
X85004518Y-87327812D01*
X85129000Y-87340072D01*
X85693250Y-87337000D01*
X85852000Y-87178250D01*
X85852000Y-85979000D01*
X86106000Y-85979000D01*
X86106000Y-87178250D01*
X86264750Y-87337000D01*
X86829000Y-87340072D01*
X86953482Y-87327812D01*
X87073180Y-87291502D01*
X87183494Y-87232537D01*
X87280185Y-87153185D01*
X87359537Y-87056494D01*
X87418502Y-86946180D01*
X87454812Y-86826482D01*
X87467072Y-86702000D01*
X87464000Y-86137750D01*
X87305250Y-85979000D01*
X86106000Y-85979000D01*
X85852000Y-85979000D01*
X83566000Y-85979000D01*
X83312000Y-85979000D01*
X82118845Y-85979000D01*
X81997524Y-86208890D01*
X81305000Y-86208890D01*
X81305000Y-83668890D01*
X81997524Y-83668890D01*
X82042175Y-83816099D01*
X82167359Y-84078920D01*
X82341412Y-84312269D01*
X82557645Y-84507178D01*
X82683255Y-84582000D01*
X82557645Y-84656822D01*
X82341412Y-84851731D01*
X82167359Y-85085080D01*
X82042175Y-85347901D01*
X81997524Y-85495110D01*
X82118845Y-85725000D01*
X83312000Y-85725000D01*
X83312000Y-83439000D01*
X83566000Y-83439000D01*
X83566000Y-85725000D01*
X85852000Y-85725000D01*
X85852000Y-83439000D01*
X86106000Y-83439000D01*
X86106000Y-85725000D01*
X87305250Y-85725000D01*
X87464000Y-85566250D01*
X87466778Y-85055967D01*
X93488000Y-85055967D01*
X93488000Y-85378033D01*
X93550832Y-85693912D01*
X93674082Y-85991463D01*
X93853013Y-86259252D01*
X94080748Y-86486987D01*
X94348537Y-86665918D01*
X94646088Y-86789168D01*
X94961967Y-86852000D01*
X95284033Y-86852000D01*
X95599912Y-86789168D01*
X95897463Y-86665918D01*
X96165252Y-86486987D01*
X96392987Y-86259252D01*
X96571918Y-85991463D01*
X96695168Y-85693912D01*
X96758000Y-85378033D01*
X96758000Y-85055967D01*
X100092000Y-85055967D01*
X100092000Y-85378033D01*
X100154832Y-85693912D01*
X100278082Y-85991463D01*
X100457013Y-86259252D01*
X100684748Y-86486987D01*
X100952537Y-86665918D01*
X101250088Y-86789168D01*
X101565967Y-86852000D01*
X101888033Y-86852000D01*
X102203912Y-86789168D01*
X102501463Y-86665918D01*
X102769252Y-86486987D01*
X102996987Y-86259252D01*
X103175918Y-85991463D01*
X103286290Y-85725000D01*
X104904509Y-85725000D01*
X104926423Y-85947498D01*
X104991324Y-86161446D01*
X105096717Y-86358622D01*
X105238552Y-86531448D01*
X105411378Y-86673283D01*
X105608554Y-86778676D01*
X105822502Y-86843577D01*
X106045000Y-86865491D01*
X106267498Y-86843577D01*
X106481446Y-86778676D01*
X106678622Y-86673283D01*
X106760607Y-86606000D01*
X109752928Y-86606000D01*
X109752928Y-87221000D01*
X109765188Y-87345482D01*
X109801498Y-87465180D01*
X109860463Y-87575494D01*
X109939815Y-87672185D01*
X110036506Y-87751537D01*
X110146820Y-87810502D01*
X110266518Y-87846812D01*
X110391000Y-87859072D01*
X113891000Y-87859072D01*
X114015482Y-87846812D01*
X114135180Y-87810502D01*
X114245494Y-87751537D01*
X114342185Y-87672185D01*
X114421537Y-87575494D01*
X114480502Y-87465180D01*
X114516812Y-87345482D01*
X114529072Y-87221000D01*
X116252928Y-87221000D01*
X116265188Y-87345482D01*
X116301498Y-87465180D01*
X116360463Y-87575494D01*
X116439815Y-87672185D01*
X116536506Y-87751537D01*
X116646820Y-87810502D01*
X116766518Y-87846812D01*
X116891000Y-87859072D01*
X118105250Y-87856000D01*
X118264000Y-87697250D01*
X118264000Y-85598000D01*
X116414750Y-85598000D01*
X116256000Y-85756750D01*
X116252928Y-87221000D01*
X114529072Y-87221000D01*
X114529072Y-83721000D01*
X116252928Y-83721000D01*
X116256000Y-85185250D01*
X116414750Y-85344000D01*
X118264000Y-85344000D01*
X118264000Y-83244750D01*
X118105250Y-83086000D01*
X116891000Y-83082928D01*
X116766518Y-83095188D01*
X116646820Y-83131498D01*
X116536506Y-83190463D01*
X116439815Y-83269815D01*
X116360463Y-83366506D01*
X116301498Y-83476820D01*
X116265188Y-83596518D01*
X116252928Y-83721000D01*
X114529072Y-83721000D01*
X114516812Y-83596518D01*
X114480502Y-83476820D01*
X114421537Y-83366506D01*
X114342185Y-83269815D01*
X114245494Y-83190463D01*
X114135180Y-83131498D01*
X114015482Y-83095188D01*
X113891000Y-83082928D01*
X110391000Y-83082928D01*
X110266518Y-83095188D01*
X110146820Y-83131498D01*
X110036506Y-83190463D01*
X109939815Y-83269815D01*
X109860463Y-83366506D01*
X109801498Y-83476820D01*
X109765188Y-83596518D01*
X109752928Y-83721000D01*
X109752928Y-84336000D01*
X106354741Y-84336000D01*
X106298999Y-84330510D01*
X106243257Y-84336000D01*
X106243248Y-84336000D01*
X106076501Y-84352423D01*
X105862553Y-84417324D01*
X105665377Y-84522716D01*
X105492551Y-84664551D01*
X105457004Y-84707865D01*
X105203012Y-84961857D01*
X105096717Y-85091378D01*
X104991324Y-85288554D01*
X104926423Y-85502502D01*
X104904509Y-85725000D01*
X103286290Y-85725000D01*
X103299168Y-85693912D01*
X103362000Y-85378033D01*
X103362000Y-85055967D01*
X103299168Y-84740088D01*
X103175918Y-84442537D01*
X102996987Y-84174748D01*
X102769252Y-83947013D01*
X102501463Y-83768082D01*
X102203912Y-83644832D01*
X101888033Y-83582000D01*
X101565967Y-83582000D01*
X101250088Y-83644832D01*
X100952537Y-83768082D01*
X100684748Y-83947013D01*
X100457013Y-84174748D01*
X100278082Y-84442537D01*
X100154832Y-84740088D01*
X100092000Y-85055967D01*
X96758000Y-85055967D01*
X96695168Y-84740088D01*
X96571918Y-84442537D01*
X96392987Y-84174748D01*
X96165252Y-83947013D01*
X95897463Y-83768082D01*
X95599912Y-83644832D01*
X95284033Y-83582000D01*
X94961967Y-83582000D01*
X94646088Y-83644832D01*
X94348537Y-83768082D01*
X94080748Y-83947013D01*
X93853013Y-84174748D01*
X93674082Y-84442537D01*
X93550832Y-84740088D01*
X93488000Y-85055967D01*
X87466778Y-85055967D01*
X87467072Y-85002000D01*
X87454812Y-84877518D01*
X87418502Y-84757820D01*
X87359537Y-84647506D01*
X87280185Y-84550815D01*
X87183494Y-84471463D01*
X87073180Y-84412498D01*
X86992534Y-84388034D01*
X87076588Y-84312269D01*
X87250641Y-84078920D01*
X87375825Y-83816099D01*
X87420476Y-83668890D01*
X87299155Y-83439000D01*
X86106000Y-83439000D01*
X85852000Y-83439000D01*
X83566000Y-83439000D01*
X83312000Y-83439000D01*
X82118845Y-83439000D01*
X81997524Y-83668890D01*
X81305000Y-83668890D01*
X81305000Y-81128890D01*
X81997524Y-81128890D01*
X82042175Y-81276099D01*
X82167359Y-81538920D01*
X82341412Y-81772269D01*
X82557645Y-81967178D01*
X82683255Y-82042000D01*
X82557645Y-82116822D01*
X82341412Y-82311731D01*
X82167359Y-82545080D01*
X82042175Y-82807901D01*
X81997524Y-82955110D01*
X82118845Y-83185000D01*
X83312000Y-83185000D01*
X83312000Y-80899000D01*
X83566000Y-80899000D01*
X83566000Y-83185000D01*
X85852000Y-83185000D01*
X85852000Y-80899000D01*
X86106000Y-80899000D01*
X86106000Y-83185000D01*
X87299155Y-83185000D01*
X87420476Y-82955110D01*
X87375825Y-82807901D01*
X87250641Y-82545080D01*
X87076588Y-82311731D01*
X86946045Y-82194061D01*
X108439000Y-82194061D01*
X108439000Y-82397939D01*
X108478774Y-82597898D01*
X108556795Y-82786256D01*
X108670063Y-82955774D01*
X108814226Y-83099937D01*
X108983744Y-83213205D01*
X109172102Y-83291226D01*
X109372061Y-83331000D01*
X109575939Y-83331000D01*
X109775898Y-83291226D01*
X109964256Y-83213205D01*
X110133774Y-83099937D01*
X110277937Y-82955774D01*
X110391205Y-82786256D01*
X110469226Y-82597898D01*
X110509000Y-82397939D01*
X110509000Y-82194061D01*
X110469226Y-81994102D01*
X110391205Y-81805744D01*
X110277937Y-81636226D01*
X110133774Y-81492063D01*
X109964256Y-81378795D01*
X109775898Y-81300774D01*
X109575939Y-81261000D01*
X109372061Y-81261000D01*
X109172102Y-81300774D01*
X108983744Y-81378795D01*
X108814226Y-81492063D01*
X108670063Y-81636226D01*
X108556795Y-81805744D01*
X108478774Y-81994102D01*
X108439000Y-82194061D01*
X86946045Y-82194061D01*
X86860355Y-82116822D01*
X86734745Y-82042000D01*
X86860355Y-81967178D01*
X87076588Y-81772269D01*
X87250641Y-81538920D01*
X87375825Y-81276099D01*
X87420476Y-81128890D01*
X87299155Y-80899000D01*
X86106000Y-80899000D01*
X85852000Y-80899000D01*
X83566000Y-80899000D01*
X83312000Y-80899000D01*
X82118845Y-80899000D01*
X81997524Y-81128890D01*
X81305000Y-81128890D01*
X81305000Y-80415110D01*
X81997524Y-80415110D01*
X82118845Y-80645000D01*
X83312000Y-80645000D01*
X83312000Y-79451186D01*
X83566000Y-79451186D01*
X83566000Y-80645000D01*
X85852000Y-80645000D01*
X85852000Y-79451186D01*
X86106000Y-79451186D01*
X86106000Y-80645000D01*
X87299155Y-80645000D01*
X87420476Y-80415110D01*
X87375825Y-80267901D01*
X87250641Y-80005080D01*
X87094691Y-79796000D01*
X112852928Y-79796000D01*
X112852928Y-81546000D01*
X112882001Y-81841186D01*
X112968104Y-82125028D01*
X113107927Y-82386618D01*
X113296097Y-82615903D01*
X113525382Y-82804073D01*
X113786972Y-82943896D01*
X114070814Y-83029999D01*
X114366000Y-83059072D01*
X116116000Y-83059072D01*
X116411186Y-83029999D01*
X116695028Y-82943896D01*
X116956618Y-82804073D01*
X117185903Y-82615903D01*
X117374073Y-82386618D01*
X117513896Y-82125028D01*
X117599999Y-81841186D01*
X117629072Y-81546000D01*
X117629072Y-79796000D01*
X117599999Y-79500814D01*
X117513896Y-79216972D01*
X117374073Y-78955382D01*
X117185903Y-78726097D01*
X116956618Y-78537927D01*
X116695028Y-78398104D01*
X116411186Y-78312001D01*
X116116000Y-78282928D01*
X114366000Y-78282928D01*
X114070814Y-78312001D01*
X113786972Y-78398104D01*
X113525382Y-78537927D01*
X113296097Y-78726097D01*
X113107927Y-78955382D01*
X112968104Y-79216972D01*
X112882001Y-79500814D01*
X112852928Y-79796000D01*
X87094691Y-79796000D01*
X87076588Y-79771731D01*
X86860355Y-79576822D01*
X86610252Y-79427843D01*
X86335891Y-79330519D01*
X86106000Y-79451186D01*
X85852000Y-79451186D01*
X85622109Y-79330519D01*
X85347748Y-79427843D01*
X85097645Y-79576822D01*
X84881412Y-79771731D01*
X84709000Y-80002880D01*
X84536588Y-79771731D01*
X84320355Y-79576822D01*
X84070252Y-79427843D01*
X83795891Y-79330519D01*
X83566000Y-79451186D01*
X83312000Y-79451186D01*
X83082109Y-79330519D01*
X82807748Y-79427843D01*
X82557645Y-79576822D01*
X82341412Y-79771731D01*
X82167359Y-80005080D01*
X82042175Y-80267901D01*
X81997524Y-80415110D01*
X81305000Y-80415110D01*
X81305000Y-76378841D01*
X81484893Y-76813141D01*
X81773262Y-77244715D01*
X82140285Y-77611738D01*
X82571859Y-77900107D01*
X83051399Y-78098739D01*
X83560475Y-78200000D01*
X84079525Y-78200000D01*
X84588601Y-78098739D01*
X85068141Y-77900107D01*
X85499715Y-77611738D01*
X85866738Y-77244715D01*
X86155107Y-76813141D01*
X86353739Y-76333601D01*
X86455000Y-75824525D01*
X86455000Y-75403967D01*
X87900000Y-75403967D01*
X87900000Y-75726033D01*
X87962832Y-76041912D01*
X88086082Y-76339463D01*
X88265013Y-76607252D01*
X88492748Y-76834987D01*
X88760537Y-77013918D01*
X89058088Y-77137168D01*
X89373967Y-77200000D01*
X89696033Y-77200000D01*
X90011912Y-77137168D01*
X90309463Y-77013918D01*
X90577252Y-76834987D01*
X90804987Y-76607252D01*
X90983918Y-76339463D01*
X90989909Y-76325000D01*
X93174197Y-76325000D01*
X95485000Y-78635804D01*
X95485000Y-78697941D01*
X95524774Y-78897900D01*
X95602795Y-79086258D01*
X95716063Y-79255776D01*
X95860226Y-79399939D01*
X96029744Y-79513207D01*
X96218102Y-79591228D01*
X96418061Y-79631002D01*
X96621939Y-79631002D01*
X96821898Y-79591228D01*
X97010256Y-79513207D01*
X97179774Y-79399939D01*
X97323937Y-79255776D01*
X97437205Y-79086258D01*
X97515226Y-78897900D01*
X97555000Y-78697941D01*
X97555000Y-78494063D01*
X97515226Y-78294104D01*
X97437205Y-78105746D01*
X97323937Y-77936228D01*
X97179774Y-77792065D01*
X97010256Y-77678797D01*
X96821898Y-77600776D01*
X96621939Y-77561002D01*
X96559802Y-77561002D01*
X94052802Y-75054003D01*
X94028999Y-75024999D01*
X93913274Y-74930026D01*
X93781245Y-74859454D01*
X93637984Y-74815997D01*
X93526331Y-74805000D01*
X93526320Y-74805000D01*
X93488998Y-74801324D01*
X93451676Y-74805000D01*
X90989909Y-74805000D01*
X90983918Y-74790537D01*
X90804987Y-74522748D01*
X90577252Y-74295013D01*
X90309463Y-74116082D01*
X90011912Y-73992832D01*
X89696033Y-73930000D01*
X89373967Y-73930000D01*
X89058088Y-73992832D01*
X88760537Y-74116082D01*
X88492748Y-74295013D01*
X88265013Y-74522748D01*
X88086082Y-74790537D01*
X87962832Y-75088088D01*
X87900000Y-75403967D01*
X86455000Y-75403967D01*
X86455000Y-75305475D01*
X86353739Y-74796399D01*
X86155107Y-74316859D01*
X85866738Y-73885285D01*
X85499715Y-73518262D01*
X85068141Y-73229893D01*
X84633841Y-73050000D01*
X116661159Y-73050000D01*
X116226859Y-73229893D01*
%TD*%
M02*
